#N canvas 934 734 769 321 10;
#N canvas 0 0 450 300 _gemwin 0;
#N canvas 49 41 975 650 init_gem__ 0;
#X msg 211 333 create;
#X msg 236 454 destroy;
#X msg 193 380 1;
#X msg 261 405 0;
#X obj 236 382 t b b;
#X obj 193 286 select 1;
#X obj 411 46 inlet;
#X obj 411 92 t b f b;
#X obj 193 199 f;
#X obj 660 42 inlet;
#X msg 428 407 dimen \$1 \$2;
#X msg 428 160 320 240;
#X msg 445 183 640 480;
#X msg 477 229 1024 768;
#X msg 493 253 1280 1024;
#X msg 660 180 0;
#X msg 688 222 1024;
#X msg 702 246 1280;
#X msg 716 269 1400;
#X msg 745 315 1920;
#X msg 526 303 1680 1200;
#X msg 510 278 1400 1050;
#X msg 543 328 1920 1024;
#X msg 730 291 1680;
#X msg 222 200 0;
#X obj 74 487 r reset;
#N canvas 0 0 581 668 gemwin 0;
#X obj 289 139 f;
#X obj 210 120 spigot;
#X obj 271 111 sel 0 1;
#X obj 241 92 t f f;
#X obj 210 168 -;
#X obj 210 217 +;
#X obj 271 181 f;
#X obj 163 136 f;
#X obj 84 117 spigot;
#X obj 145 108 sel 0 1;
#X obj 115 89 t f f;
#X obj 84 168 -;
#X obj 84 217 +;
#X obj 145 178 f;
#X obj 410 130 f;
#X obj 331 114 spigot;
#X obj 392 105 sel 0 1;
#X obj 362 86 t f f;
#X obj 331 165 -;
#X obj 392 175 f;
#X obj 84 433 * 4;
#X obj 139 435 * 4;
#X obj 160 276 t b f;
#X obj 98 340 cos;
#X obj 110 398 * 1;
#X obj 84 398 * 1;
#X obj 136 341 sin;
#X obj 111 434 * 4;
#X obj 98 362 t b f;
#X obj 98 316 / 200;
#X obj 84 459 pack f f f;
#X obj 98 19 gemmouse;
#X msg 84 484 view \$1 \$2 \$3 0 0 0 0 1 0;
#X obj 84 276 sin;
#X obj 110 277 cos;
#X obj 331 214 + 200;
#X obj 161 250 / 50;
#X obj 84 251 / -200;
#X obj 24 24 inlet;
#X obj 24 547 outlet;
#X obj 25 519 gemwin \$1;
#X connect 0 0 4 1;
#X connect 1 0 4 0;
#X connect 2 0 6 0;
#X connect 2 1 0 0;
#X connect 3 0 1 1;
#X connect 3 1 2 0;
#X connect 4 0 5 0;
#X connect 5 0 6 1;
#X connect 5 0 29 0;
#X connect 6 0 5 1;
#X connect 7 0 11 1;
#X connect 8 0 11 0;
#X connect 9 0 13 0;
#X connect 9 1 7 0;
#X connect 10 0 8 1;
#X connect 10 1 9 0;
#X connect 11 0 12 0;
#X connect 12 0 13 1;
#X connect 12 0 37 0;
#X connect 13 0 12 1;
#X connect 14 0 18 1;
#X connect 15 0 18 0;
#X connect 16 0 19 0;
#X connect 16 1 14 0;
#X connect 17 0 15 1;
#X connect 17 1 16 0;
#X connect 18 0 35 0;
#X connect 19 0 35 1;
#X connect 20 0 30 0;
#X connect 21 0 30 2;
#X connect 22 0 21 0;
#X connect 22 0 20 0;
#X connect 22 0 27 0;
#X connect 22 1 21 1;
#X connect 22 1 20 1;
#X connect 22 1 27 1;
#X connect 23 0 28 0;
#X connect 24 0 21 0;
#X connect 25 0 20 0;
#X connect 26 0 27 0;
#X connect 27 0 30 1;
#X connect 28 0 24 0;
#X connect 28 0 25 0;
#X connect 28 1 24 1;
#X connect 28 1 25 1;
#X connect 29 0 23 0;
#X connect 29 0 26 0;
#X connect 30 0 32 0;
#X connect 31 0 8 0;
#X connect 31 0 7 1;
#X connect 31 1 1 0;
#X connect 31 1 0 1;
#X connect 31 1 14 1;
#X connect 31 1 15 0;
#X connect 31 3 17 0;
#X connect 31 4 3 0;
#X connect 31 4 10 0;
#X connect 32 0 40 0;
#X connect 33 0 25 0;
#X connect 34 0 24 0;
#X connect 35 0 19 1;
#X connect 35 0 36 0;
#X connect 36 0 22 0;
#X connect 37 0 33 0;
#X connect 37 0 34 0;
#X connect 38 0 40 0;
#X connect 40 0 39 0;
#X restore 31 582 pd gemwin;
#X msg 73 514 view 0 0 4 0 0 0 0 1 0;
#X msg 660 358 \$1;
#X obj 660 408 * 1;
#X obj 855 36 inlet;
#X obj 854 173 sel 0 1;
#X msg 854 198 1;
#X msg 872 225 -1;
#X obj 660 384 f;
#X obj 855 73 t b f;
#X obj 660 441 pack f 0;
#X msg 660 474 offset \$1 \$2;
#X obj 703 416 r offset_vertical;
#X obj 428 136 select 0 1 2 3 4 5 6;
#X msg 460 206 800 600;
#X obj 660 502 t b a b;
#X obj 193 60 r start_stop;
#X msg 674 201 800;
#X obj 660 137 sel 0 1 2 3 4 5;
#X obj 44 421 inlet;
#X obj 193 237 change 0;
#X obj 193 355 delay 100;
#X obj 193 260 speedlim 200;
#X obj 236 427 delay 100;
#X obj 195 309 t b b;
#X msg 300 303 set create :0.1;
#X msg 303 270 set create;
#X obj 303 248 loadbang;
#X obj 323 191 r create_2;
#X obj 323 218 sel 0 1;
#X obj 30 160 gemkeyname;
#X obj 30 182 sel Escape;
#X obj 29 228 + 1;
#X obj 29 205 f;
#X obj 30 249 % 2;
#X obj 37 334 s start_stop_ext;
#X obj 33 278 sel 0;
#X msg 46 309 0;
#X obj 430 440 s dim;
#X obj 335 349 r gemwin;
#X obj 336 369 route dimen;
#X obj 64 463 r pos_cam;
#X connect 0 0 26 0;
#X connect 1 0 26 0;
#X connect 2 0 26 0;
#X connect 3 0 26 0;
#X connect 4 0 49 0;
#X connect 4 1 3 0;
#X connect 5 0 50 0;
#X connect 5 1 4 0;
#X connect 6 0 7 0;
#X connect 7 0 8 0;
#X connect 7 1 39 0;
#X connect 7 2 24 0;
#X connect 8 0 46 0;
#X connect 9 0 44 0;
#X connect 10 0 26 0;
#X connect 10 0 64 0;
#X connect 11 0 10 0;
#X connect 12 0 10 0;
#X connect 13 0 10 0;
#X connect 14 0 10 0;
#X connect 15 0 28 0;
#X connect 16 0 28 0;
#X connect 17 0 28 0;
#X connect 18 0 28 0;
#X connect 19 0 28 0;
#X connect 20 0 10 0;
#X connect 21 0 10 0;
#X connect 22 0 10 0;
#X connect 23 0 28 0;
#X connect 24 0 46 0;
#X connect 27 0 26 0;
#X connect 28 0 34 0;
#X connect 29 0 36 0;
#X connect 30 0 35 0;
#X connect 31 0 32 0;
#X connect 31 1 33 0;
#X connect 32 0 29 1;
#X connect 33 0 29 1;
#X connect 34 0 29 0;
#X connect 35 0 34 0;
#X connect 35 1 31 0;
#X connect 36 0 37 0;
#X connect 37 0 41 0;
#X connect 38 0 36 1;
#X connect 39 0 11 0;
#X connect 39 1 12 0;
#X connect 39 2 40 0;
#X connect 39 3 13 0;
#X connect 39 4 14 0;
#X connect 39 5 21 0;
#X connect 39 6 20 0;
#X connect 39 7 22 0;
#X connect 40 0 10 0;
#X connect 41 0 8 0;
#X connect 41 1 26 0;
#X connect 41 2 24 0;
#X connect 42 0 8 0;
#X connect 43 0 28 0;
#X connect 44 0 15 0;
#X connect 44 1 43 0;
#X connect 44 2 16 0;
#X connect 44 3 17 0;
#X connect 44 4 18 0;
#X connect 44 5 23 0;
#X connect 44 6 19 0;
#X connect 45 0 26 0;
#X connect 46 0 48 0;
#X connect 47 0 2 0;
#X connect 48 0 5 0;
#X connect 49 0 1 0;
#X connect 50 0 47 0;
#X connect 50 1 0 0;
#X connect 51 0 0 0;
#X connect 52 0 0 0;
#X connect 53 0 52 0;
#X connect 54 0 55 0;
#X connect 55 0 52 0;
#X connect 55 1 51 0;
#X connect 56 1 57 0;
#X connect 57 0 59 0;
#X connect 58 0 60 0;
#X connect 59 0 58 0;
#X connect 60 0 59 1;
#X connect 60 0 62 0;
#X connect 62 0 63 0;
#X connect 63 0 61 0;
#X connect 65 0 66 0;
#X connect 66 0 10 0;
#X connect 66 1 26 0;
#X connect 67 0 26 0;
#X restore 44 201 pd init_gem__;
#X obj 70 51 vradio 15 1 0 8 empty empty empty 0 -6 0 8 -262144 -1
-1 3;
#X obj 92 66 vradio 15 1 0 7 empty empty empty 0 -6 0 8 -262144 -1
-1 1;
#X obj 108 49 tgl 15 0 empty empty empty 0 -6 0 8 -262144 -1 -1 0 1
;
#X obj 118 83 cnv 15 50 12 empty empty 800 0 7 0 14 -262144 -1 0;
#X obj 118 97 cnv 15 50 12 empty empty 1024 0 7 0 14 -262144 -1 0;
#X obj 118 112 cnv 15 50 12 empty empty 1280 0 7 0 14 -262144 -1 0
;
#X obj 118 126 cnv 15 50 12 empty empty 1400 0 7 0 14 -262144 -1 0
;
#X obj 118 141 cnv 15 50 12 empty empty 1680 0 7 0 14 -262144 -1 0
;
#X obj 118 156 cnv 15 50 12 empty empty 1920 0 7 0 14 -262144 -1 0
;
#X obj 119 67 cnv 15 50 12 empty empty 0 0 7 0 14 -262144 -1 0;
#X obj 7 86 cnv 15 50 12 empty empty 800 0 7 0 14 -262144 -1 0;
#X obj 7 100 cnv 15 50 12 empty empty 1024 0 7 0 14 -262144 -1 0;
#X obj 7 115 cnv 15 50 12 empty empty 1280 0 7 0 14 -262144 -1 0;
#X obj 7 129 cnv 15 50 12 empty empty 1400 0 7 0 14 -262144 -1 0;
#X obj 7 144 cnv 15 50 12 empty empty 1680 0 7 0 14 -262144 -1 0;
#X obj 7 159 cnv 15 50 12 empty empty 1920 0 7 0 14 -262144 -1 0;
#X obj 126 49 cnv 15 50 12 empty empty right/left 0 7 0 14 -262144
-1 0;
#X obj 7 53 cnv 15 50 12 empty empty 320 0 7 0 14 -262144 -1 0;
#X obj 7 70 cnv 15 50 12 empty empty 640 0 7 0 14 -262144 -1 0;
#X obj 7 35 cnv 15 50 12 empty empty window 0 7 0 14 -262144 -1 0;
#X obj 133 66 cnv 15 50 12 empty empty offset 0 7 0 14 -262144 -1 0
;
#X obj 2 1 inlet;
#X obj 168 121 tgl 50 0 start_stop start_stop_ext empty 0 -6 0 8 -258699
-1 -1 1 1;
#X obj 35 2 s create_2;
#X obj 8 20 tgl 15 0 empty empty empty 0 -6 0 8 -262144 -1 -1 0 1;
#X obj 27 28 cnv 5 100 10 empty empty 2eme_X 0 0 0 14 -262144 -66577
0;
#X obj 195 4 tgl 15 0 empty empty empty 0 -6 0 8 -262144 -1 -1 0 1
;
#X msg 238 18 lighting \$1;
#X obj 195 21 tgl 15 0 empty empty empty 0 -6 0 8 -262144 -1 -1 0 1
;
#X msg 244 53 border \$1;
#X obj 144 5 cnv 15 50 12 empty empty light 0 7 0 14 -262144 -1 0;
#X obj 134 20 cnv 15 50 12 empty empty border 0 7 0 14 -262144 -1 0
;
#X obj 312 72 key;
#X obj 312 104 sel 27;
#X connect 1 0 0 1;
#X connect 2 0 0 2;
#X connect 3 0 0 3;
#X connect 22 0 0 0;
#X connect 25 0 24 0;
#X connect 27 0 28 0;
#X connect 28 0 0 0;
#X connect 29 0 30 0;
#X connect 30 0 0 0;
#X connect 33 0 34 0;
#X connect 34 0 23 0;
#X coords 0 -1 1 1 220 175 1 6 1;
#X restore 26 56 pd _gemwin;
#X obj 399 105 spigot;
#X obj 436 87 tgl 15 0 empty empty empty 0 -6 0 8 -262144 -1 -1 1 1
;
#N canvas 1 168 155 238 rx 0;
#X obj 18 71 delay 500;
#X msg 18 95 0;
#X obj 18 48 t b;
#X obj 18 120 change;
#X msg 55 97 1;
#X obj 19 24 inlet;
#X obj 18 145 outlet;
#X connect 0 0 1 0;
#X connect 1 0 3 0;
#X connect 2 0 0 0;
#X connect 2 0 4 0;
#X connect 3 0 6 0;
#X connect 4 0 3 0;
#X connect 5 0 2 0;
#X restore 460 86 pd rx;
#X obj 460 106 tgl 15 0 empty empty empty 0 -6 0 8 -262144 -1 -1 1
1;
#N canvas 330 234 623 522 primitive 0;
#X obj 41 39 inlet;
#X obj 169 43 inlet;
#X text 38 21 gemlist;
#X text 165 25 activation du neurone;
#X obj 41 175 scaleXYZ;
#X obj 41 212 color;
#X obj 169 220 * 3;
#X obj 169 242 + 3;
#X obj 191 304 sphere 0.5;
#X obj 41 276 rectangle 0.5;
#X obj 349 202 inlet;
#X obj 397 224 inlet;
#X floatatom 381 119 5 0 0 0 - - -;
#X obj 224 106 expr $f2 - $f1;
#X floatatom 326 89 5 0 0 0 - - -;
#X msg 253 269 \$1 0.1 0.1;
#X msg 224 166 \$1 0 0.1;
#X obj 381 25 loadbang;
#X msg 326 56 1.6;
#X obj 224 136 / 1.31;
#X msg 381 94 1.31;
#X obj 267 57 inlet;
#X obj 169 197 expr $f2 - $f1;
#X floatatom 473 180 5 0 0 0 - - -;
#X msg 473 151 2;
#X obj 41 362 pix_write;
#X msg 63 336 auto \$1;
#X obj 63 319 tgl 15 0 empty empty empty 0 -6 0 8 -262144 -1 -1 0 1
;
#X msg 41 386;
#X msg 159 345 file som- 80;
#X obj 53 299 r gemwrite;
#X connect 0 0 4 0;
#X connect 1 0 13 0;
#X connect 1 0 4 3;
#X connect 1 0 22 0;
#X connect 4 0 5 0;
#X connect 5 0 9 0;
#X connect 6 0 7 0;
#X connect 7 0 9 2;
#X connect 7 0 9 1;
#X connect 9 0 25 0;
#X connect 10 0 6 1;
#X connect 11 0 7 1;
#X connect 12 0 19 1;
#X connect 13 0 19 0;
#X connect 14 0 13 1;
#X connect 16 0 5 1;
#X connect 17 0 18 0;
#X connect 17 0 20 0;
#X connect 17 0 24 0;
#X connect 18 0 14 0;
#X connect 19 0 16 0;
#X connect 20 0 12 0;
#X connect 21 0 14 0;
#X connect 22 0 6 0;
#X connect 23 0 22 1;
#X connect 24 0 23 0;
#X connect 25 0 28 0;
#X connect 26 0 25 0;
#X connect 27 0 26 0;
#X connect 29 0 25 0;
#X connect 30 0 25 0;
#X restore 335 264 pd primitive _________;
#N canvas 538 349 450 300 position_orientation 0;
#X obj 43 27 inlet;
#X obj 43 161 outlet;
#X obj 43 109 rotateXYZ;
#X obj 43 135 scaleXYZ 0.2 0.2 0.2;
#X floatatom 182 73 5 0 0 0 - - -;
#X obj 182 33 inlet;
#X floatatom 246 92 5 0 0 0 - - -;
#X floatatom 287 92 5 0 0 0 - - -;
#X floatatom 326 92 5 0 0 0 - - -;
#X connect 0 0 2 0;
#X connect 2 0 3 0;
#X connect 3 0 1 0;
#X connect 4 0 3 1;
#X connect 4 0 3 2;
#X connect 4 0 3 3;
#X connect 5 0 4 0;
#X connect 6 0 2 1;
#X connect 7 0 2 2;
#X connect 8 0 2 3;
#X restore 335 204 pd position_orientation;
#X obj 335 183 gemhead;
#N canvas 112 56 688 593 tableau 0;
#X obj 318 31 inlet;
#X text 333 50 dataflow;
#X obj 477 36 inlet;
#X text 498 54 taille du reseau;
#X obj 297 142 list;
#X msg 297 116 list;
#X obj 53 515 outlet;
#X obj 276 564 outlet;
#X obj 477 82 unpack f f;
#X obj 477 160 *;
#X text 506 115 taille total de la list;
#X obj 141 339 f;
#X obj 157 313 + 1;
#X msg 141 287 0;
#X obj 141 368 %;
#X obj 141 395 == 0;
#X obj 106 415 spigot;
#X obj 68 493 GEMglPushMatrix;
#X obj 38 540 GEMglPopMatrix;
#X obj 310 477 t a;
#X obj 276 444 list split 1;
#X obj 38 294 repeat 1;
#X obj 38 21 inlet;
#X obj 38 376 t a a a b a b;
#X obj 106 441 translateXYZ 0 1 0;
#X obj 106 465 translateXYZ -6 0 0;
#X obj 38 566 translateXYZ 1 0 0;
#X obj 187 414 * -1;
#X obj 188 344 f;
#X obj 73 174 / 2;
#X obj 38 206 translateXYZ 0 0 0;
#X obj 38 253 translateXYZ 0 0 0;
#X obj 108 228 / -2;
#X obj 276 420 list;
#X msg 276 394 list;
#X obj 38 98 t a b b, f 35;
#X obj 38 132 translateXYZ 0.5 -0.5 0;
#X connect 0 0 4 1;
#X connect 2 0 8 0;
#X connect 4 0 33 1;
#X connect 5 0 4 0;
#X connect 8 0 9 0;
#X connect 8 0 28 0;
#X connect 8 1 9 1;
#X connect 8 1 32 0;
#X connect 9 0 21 1;
#X connect 11 0 12 0;
#X connect 11 0 14 0;
#X connect 12 0 11 1;
#X connect 13 0 11 0;
#X connect 14 0 15 0;
#X connect 15 0 16 1;
#X connect 16 0 24 0;
#X connect 18 0 26 0;
#X connect 19 0 33 1;
#X connect 20 0 7 0;
#X connect 20 1 19 0;
#X connect 21 0 23 0;
#X connect 22 0 35 0;
#X connect 23 0 18 0;
#X connect 23 1 6 0;
#X connect 23 2 17 0;
#X connect 23 3 11 0;
#X connect 23 4 16 0;
#X connect 23 5 34 0;
#X connect 24 0 25 0;
#X connect 27 0 25 1;
#X connect 28 0 27 0;
#X connect 28 0 14 1;
#X connect 28 0 29 0;
#X connect 29 0 30 1;
#X connect 30 0 31 0;
#X connect 31 0 21 0;
#X connect 32 0 31 2;
#X connect 33 0 20 0;
#X connect 34 0 33 0;
#X connect 35 0 36 0;
#X connect 35 1 13 0;
#X connect 35 2 5 0;
#X connect 36 0 30 0;
#X restore 335 226 pd tableau ___________;
#N canvas 1 108 255 157 light 0;
#X obj 34 34 gemhead 1;
#X obj 34 61 world_light;
#X connect 0 0 1 0;
#X restore 26 237 pd light;
#X obj 26 13 loadbang;
#X msg 572 208 \$1 \$1;
#X floatatom 572 188 5 0 0 0 arete - -;
#X floatatom 636 247 5 0 0 0 - - -;
#X floatatom 675 247 5 0 0 0 - - -;
#X floatatom 491 187 5 0 0 0 - - -;
#X obj 636 149 loadbang;
#X msg 572 167 10;
#X msg 491 167 0.67;
#X text 231 9 Monitoring erreur SOM;
#X msg 26 35 perspec -1 1 -1 1 10 50 \, view 0 0 40 \, lighting 1;
#X floatatom 521 247 3 0 4 1 contraste contraste -;
#N canvas 1 108 372 286 gemcmds 0;
#X floatatom 29 112 5 0 0 0 - - -;
#X obj 29 92 key;
#X obj 208 218 tgl 15 0 empty empty empty 0 -6 0 8 -262144 -1 -1 0
1;
#X msg 208 235 \; gemwrite auto \$1;
#X msg 29 218 \; gemwrite bang;
#X obj 29 149 sel 96;
#X msg 39 173 \; gemwrite file som- 80;
#X connect 0 0 5 0;
#X connect 1 0 0 0;
#X connect 2 0 3 0;
#X connect 5 0 4 0;
#X connect 5 0 6 0;
#X restore 26 258 pd gemcmds;
#X obj 119 247 tgl 15 0 empty empty empty 0 -6 0 8 -262144 -1 -1 0
1;
#X msg 141 240 \; gemwrite auto \$1;
#X msg 636 216 0.02;
#X msg 675 216 0.4;
#X obj 361 136 list length;
#X floatatom 361 159 5 0 0 0 - - -;
#X msg 546 141 20;
#X obj 399 51 netreceive 12004 1;
#X msg 581 141 30;
#X msg 470 142 0.25;
#X connect 1 0 8 1;
#X connect 1 0 27 0;
#X connect 2 0 1 1;
#X connect 3 0 4 0;
#X connect 6 0 8 0;
#X connect 7 0 6 0;
#X connect 8 0 5 0;
#X connect 8 1 5 1;
#X connect 10 0 20 0;
#X connect 11 0 8 2;
#X connect 12 0 11 0;
#X connect 13 0 5 3;
#X connect 14 0 5 4;
#X connect 15 0 6 1;
#X connect 16 0 17 0;
#X connect 16 0 18 0;
#X connect 16 0 25 0;
#X connect 16 0 26 0;
#X connect 17 0 12 0;
#X connect 18 0 15 0;
#X connect 20 0 0 0;
#X connect 21 0 5 2;
#X connect 23 0 24 0;
#X connect 25 0 13 0;
#X connect 26 0 14 0;
#X connect 27 0 28 0;
#X connect 29 0 12 0;
#X connect 30 0 3 0;
#X connect 30 0 1 0;
#X connect 31 0 12 0;
#X connect 32 0 15 0;
