{
	"patcher" : 	{
		"fileversion" : 1,
		"appversion" : 		{
			"major" : 8,
			"minor" : 6,
			"revision" : 5,
			"architecture" : "x64",
			"modernui" : 1
		}
,
		"classnamespace" : "box",
		"rect" : [ -177.0, -1001.0, 918.0, 715.0 ],
		"bglocked" : 0,
		"openinpresentation" : 0,
		"default_fontsize" : 12.0,
		"default_fontface" : 0,
		"default_fontname" : "Arial",
		"gridonopen" : 1,
		"gridsize" : [ 15.0, 15.0 ],
		"gridsnaponopen" : 1,
		"objectsnaponopen" : 1,
		"statusbarvisible" : 2,
		"toolbarvisible" : 1,
		"lefttoolbarpinned" : 0,
		"toptoolbarpinned" : 0,
		"righttoolbarpinned" : 0,
		"bottomtoolbarpinned" : 0,
		"toolbars_unpinned_last_save" : 0,
		"tallnewobj" : 0,
		"boxanimatetime" : 200,
		"enablehscroll" : 1,
		"enablevscroll" : 1,
		"devicewidth" : 0.0,
		"description" : "",
		"digest" : "",
		"tags" : "",
		"style" : "",
		"subpatcher_template" : "",
		"assistshowspatchername" : 0,
		"boxes" : [ 			{
				"box" : 				{
					"id" : "obj-34",
					"maxclass" : "newobj",
					"numinlets" : 2,
					"numoutlets" : 1,
					"outlettype" : [ "" ],
					"patching_rect" : [ 183.0, 438.0, 55.0, 22.0 ],
					"saved_object_attributes" : 					{
						"embed" : 0,
						"versionnumber" : 80900
					}
,
					"text" : "bach.reg"
				}

			}
, 			{
				"box" : 				{
					"id" : "obj-32",
					"maxclass" : "newobj",
					"numinlets" : 1,
					"numoutlets" : 1,
					"outlettype" : [ "bang" ],
					"patching_rect" : [ 242.0, 354.0, 77.0, 22.0 ],
					"text" : "key_trigger s"
				}

			}
, 			{
				"box" : 				{
					"id" : "obj-28",
					"maxclass" : "newobj",
					"numinlets" : 2,
					"numoutlets" : 1,
					"outlettype" : [ "" ],
					"patching_rect" : [ 148.0, 162.0, 55.0, 22.0 ],
					"saved_object_attributes" : 					{
						"embed" : 0,
						"versionnumber" : 80900
					}
,
					"text" : "bach.reg"
				}

			}
, 			{
				"box" : 				{
					"id" : "obj-5",
					"maxclass" : "message",
					"numinlets" : 2,
					"numoutlets" : 1,
					"outlettype" : [ "" ],
					"patching_rect" : [ 564.0, 390.0, 173.0, 22.0 ],
					"text" : "[ [ 4 6 8 9 ] [ 2 4 5 ] [ 2 3 ] [ 1 ] ]"
				}

			}
, 			{
				"box" : 				{
					"id" : "obj-44",
					"maxclass" : "button",
					"numinlets" : 1,
					"numoutlets" : 1,
					"outlettype" : [ "bang" ],
					"parameter_enable" : 0,
					"patching_rect" : [ 191.0, 63.0, 24.0, 24.0 ]
				}

			}
, 			{
				"box" : 				{
					"id" : "obj-37",
					"maxclass" : "newobj",
					"numinlets" : 1,
					"numoutlets" : 2,
					"outlettype" : [ "", "" ],
					"patcher" : 					{
						"fileversion" : 1,
						"appversion" : 						{
							"major" : 8,
							"minor" : 6,
							"revision" : 5,
							"architecture" : "x64",
							"modernui" : 1
						}
,
						"classnamespace" : "box",
						"rect" : [ 218.0, 241.0, 640.0, 480.0 ],
						"bglocked" : 0,
						"openinpresentation" : 0,
						"default_fontsize" : 12.0,
						"default_fontface" : 0,
						"default_fontname" : "Arial",
						"gridonopen" : 1,
						"gridsize" : [ 15.0, 15.0 ],
						"gridsnaponopen" : 1,
						"objectsnaponopen" : 1,
						"statusbarvisible" : 2,
						"toolbarvisible" : 1,
						"lefttoolbarpinned" : 0,
						"toptoolbarpinned" : 0,
						"righttoolbarpinned" : 0,
						"bottomtoolbarpinned" : 0,
						"toolbars_unpinned_last_save" : 0,
						"tallnewobj" : 0,
						"boxanimatetime" : 200,
						"enablehscroll" : 1,
						"enablevscroll" : 1,
						"devicewidth" : 0.0,
						"description" : "",
						"digest" : "",
						"tags" : "",
						"style" : "",
						"subpatcher_template" : "",
						"assistshowspatchername" : 0,
						"boxes" : [ 							{
								"box" : 								{
									"id" : "obj-7",
									"maxclass" : "newobj",
									"numinlets" : 2,
									"numoutlets" : 1,
									"outlettype" : [ "" ],
									"patching_rect" : [ 294.0, 362.0, 119.0, 22.0 ],
									"text" : "lisp.quickeval @out t"
								}

							}
, 							{
								"box" : 								{
									"comment" : "",
									"id" : "obj-1",
									"index" : 2,
									"maxclass" : "outlet",
									"numinlets" : 1,
									"numoutlets" : 0,
									"patching_rect" : [ 351.0, 429.0, 30.0, 30.0 ]
								}

							}
, 							{
								"box" : 								{
									"id" : "obj-6",
									"maxclass" : "newobj",
									"numinlets" : 1,
									"numoutlets" : 1,
									"outlettype" : [ "" ],
									"patching_rect" : [ 50.000019096923779, 328.0, 83.0, 22.0 ],
									"text" : "lisp.expr not x"
								}

							}
, 							{
								"box" : 								{
									"id" : "obj-5",
									"maxclass" : "newobj",
									"numinlets" : 1,
									"numoutlets" : 1,
									"outlettype" : [ "" ],
									"patching_rect" : [ 50.000019096923779, 290.0, 83.0, 22.0 ],
									"text" : "lisp.expr not x"
								}

							}
, 							{
								"box" : 								{
									"id" : "obj-4",
									"maxclass" : "newobj",
									"numinlets" : 4,
									"numoutlets" : 1,
									"outlettype" : [ "" ],
									"patching_rect" : [ 50.000019096923779, 248.0, 323.5, 22.0 ],
									"text" : "lisp.expr MEMBER 6. l :test #'equalp"
								}

							}
, 							{
								"box" : 								{
									"id" : "obj-3",
									"maxclass" : "newobj",
									"numinlets" : 1,
									"numoutlets" : 1,
									"outlettype" : [ "" ],
									"patching_rect" : [ 50.000019096923779, 202.0, 128.0, 22.0 ],
									"text" : "lisp.expr pw::flat chord"
								}

							}
, 							{
								"box" : 								{
									"id" : "obj-2",
									"maxclass" : "newobj",
									"numinlets" : 1,
									"numoutlets" : 1,
									"outlettype" : [ "" ],
									"patching_rect" : [ 50.000019096923779, 167.0, 142.0, 22.0 ],
									"text" : "lisp.expr pw::g-abs chord"
								}

							}
, 							{
								"box" : 								{
									"id" : "obj-14",
									"maxclass" : "newobj",
									"numinlets" : 1,
									"numoutlets" : 1,
									"outlettype" : [ "" ],
									"patching_rect" : [ 50.0, 90.0, 70.0, 22.0 ],
									"text" : "lisp.quote 1"
								}

							}
, 							{
								"box" : 								{
									"id" : "obj-19",
									"maxclass" : "newobj",
									"numinlets" : 1,
									"numoutlets" : 1,
									"outlettype" : [ "" ],
									"patching_rect" : [ 50.000019096923779, 134.0, 258.0, 22.0 ],
									"text" : "lisp.expr jbs-constraints::find-all-intervals chord"
								}

							}
, 							{
								"box" : 								{
									"id" : "obj-16",
									"maxclass" : "newobj",
									"numinlets" : 2,
									"numoutlets" : 1,
									"outlettype" : [ "" ],
									"patching_rect" : [ 50.000019096923779, 384.0, 119.0, 22.0 ],
									"text" : "lisp.quickeval @out t"
								}

							}
, 							{
								"box" : 								{
									"comment" : "",
									"id" : "obj-33",
									"index" : 1,
									"maxclass" : "inlet",
									"numinlets" : 0,
									"numoutlets" : 1,
									"outlettype" : [ "" ],
									"patching_rect" : [ 50.0, 51.0, 30.0, 30.0 ]
								}

							}
, 							{
								"box" : 								{
									"comment" : "",
									"id" : "obj-34",
									"index" : 1,
									"maxclass" : "outlet",
									"numinlets" : 1,
									"numoutlets" : 0,
									"patching_rect" : [ 50.000019096923779, 429.0, 30.0, 30.0 ]
								}

							}
 ],
						"lines" : [ 							{
								"patchline" : 								{
									"destination" : [ "obj-19", 0 ],
									"source" : [ "obj-14", 0 ]
								}

							}
, 							{
								"patchline" : 								{
									"destination" : [ "obj-34", 0 ],
									"source" : [ "obj-16", 0 ]
								}

							}
, 							{
								"patchline" : 								{
									"destination" : [ "obj-2", 0 ],
									"order" : 1,
									"source" : [ "obj-19", 0 ]
								}

							}
, 							{
								"patchline" : 								{
									"destination" : [ "obj-7", 0 ],
									"order" : 0,
									"source" : [ "obj-19", 0 ]
								}

							}
, 							{
								"patchline" : 								{
									"destination" : [ "obj-3", 0 ],
									"source" : [ "obj-2", 0 ]
								}

							}
, 							{
								"patchline" : 								{
									"destination" : [ "obj-4", 1 ],
									"source" : [ "obj-3", 0 ]
								}

							}
, 							{
								"patchline" : 								{
									"destination" : [ "obj-14", 0 ],
									"source" : [ "obj-33", 0 ]
								}

							}
, 							{
								"patchline" : 								{
									"destination" : [ "obj-5", 0 ],
									"source" : [ "obj-4", 0 ]
								}

							}
, 							{
								"patchline" : 								{
									"destination" : [ "obj-6", 0 ],
									"source" : [ "obj-5", 0 ]
								}

							}
, 							{
								"patchline" : 								{
									"destination" : [ "obj-16", 0 ],
									"source" : [ "obj-6", 0 ]
								}

							}
, 							{
								"patchline" : 								{
									"destination" : [ "obj-1", 0 ],
									"source" : [ "obj-7", 0 ]
								}

							}
 ]
					}
,
					"patching_rect" : [ 550.666606999999999, 344.0, 38.0, 22.0 ],
					"saved_object_attributes" : 					{
						"description" : "",
						"digest" : "",
						"globalpatchername" : "",
						"tags" : ""
					}
,
					"text" : "p test"
				}

			}
, 			{
				"box" : 				{
					"fontface" : 3,
					"fontsize" : 31.619663521170434,
					"id" : "obj-10",
					"maxclass" : "comment",
					"numinlets" : 1,
					"numoutlets" : 0,
					"patching_rect" : [ 419.0, 496.0, 211.0, 42.0 ],
					"text" : "BUG fixed ! :)",
					"textcolor" : [ 0.298039215686275, 0.0, 1.0, 1.0 ]
				}

			}
, 			{
				"box" : 				{
					"hidden" : 1,
					"id" : "obj-27",
					"maxclass" : "message",
					"numinlets" : 2,
					"numoutlets" : 1,
					"outlettype" : [ "" ],
					"patching_rect" : [ 106.0, 474.0, 172.0, 22.0 ],
					"text" : "collapse 2, to_chord zoom 150"
				}

			}
, 			{
				"box" : 				{
					"hidden" : 1,
					"id" : "obj-22",
					"maxclass" : "newobj",
					"numinlets" : 1,
					"numoutlets" : 1,
					"outlettype" : [ "bang" ],
					"patching_rect" : [ 106.0, 447.0, 58.0, 22.0 ],
					"text" : "loadbang"
				}

			}
, 			{
				"box" : 				{
					"id" : "obj-31",
					"maxclass" : "button",
					"numinlets" : 1,
					"numoutlets" : 1,
					"outlettype" : [ "bang" ],
					"parameter_enable" : 0,
					"patching_rect" : [ 668.5, 49.73728813559319, 24.0, 24.0 ]
				}

			}
, 			{
				"box" : 				{
					"id" : "obj-29",
					"maxclass" : "newobj",
					"numinlets" : 2,
					"numoutlets" : 1,
					"outlettype" : [ "" ],
					"patching_rect" : [ 668.5, 291.474576271186379, 65.0, 22.0 ],
					"text" : "bach./ 100"
				}

			}
, 			{
				"box" : 				{
					"hidden" : 1,
					"id" : "obj-12",
					"maxclass" : "message",
					"numinlets" : 2,
					"numoutlets" : 1,
					"outlettype" : [ "" ],
					"patching_rect" : [ 668.5, 49.73728813559319, 325.0, 22.0 ],
					"text" : "6000 6200 6400 6500 6700, collapse 2, to_chord zoom 150"
				}

			}
, 			{
				"box" : 				{
					"hidden" : 1,
					"id" : "obj-26",
					"maxclass" : "newobj",
					"numinlets" : 1,
					"numoutlets" : 1,
					"outlettype" : [ "bang" ],
					"patching_rect" : [ 668.5, 23.202096939086914, 58.0, 22.0 ],
					"text" : "loadbang"
				}

			}
, 			{
				"box" : 				{
					"bgmode" : 1,
					"border" : 1,
					"clickthrough" : 0,
					"enablehscroll" : 0,
					"enablevscroll" : 0,
					"id" : "obj-24",
					"lockeddragscroll" : 0,
					"lockedsize" : 0,
					"maxclass" : "bpatcher",
					"name" : "moz.chord_view.maxpat",
					"numinlets" : 2,
					"numoutlets" : 2,
					"offset" : [ 0.0, 0.0 ],
					"outlettype" : [ "", "" ],
					"patching_rect" : [ 668.0, 81.0, 151.0, 202.0 ],
					"varname" : "bp556905767840[1]",
					"viewvisibility" : 1
				}

			}
, 			{
				"box" : 				{
					"id" : "obj-21",
					"maxclass" : "message",
					"numinlets" : 2,
					"numoutlets" : 1,
					"outlettype" : [ "" ],
					"patching_rect" : [ 468.5, 384.0, 29.5, 22.0 ],
					"text" : "T"
				}

			}
, 			{
				"box" : 				{
					"hidden" : 1,
					"id" : "obj-9",
					"maxclass" : "newobj",
					"numinlets" : 1,
					"numoutlets" : 1,
					"outlettype" : [ "" ],
					"patching_rect" : [ 183.0, 517.0, 117.0, 22.0 ],
					"text" : "loadmess collapse 1"
				}

			}
, 			{
				"box" : 				{
					"args" : [ "SWAM", "Kontakt", "Pianoteq" ],
					"bgmode" : 1,
					"border" : 1,
					"clickthrough" : 0,
					"enablehscroll" : 0,
					"enablevscroll" : 0,
					"id" : "obj-11",
					"lockeddragscroll" : 0,
					"lockedsize" : 0,
					"maxclass" : "bpatcher",
					"name" : "moz.ezmidi_instr.maxpat",
					"numinlets" : 5,
					"numoutlets" : 6,
					"offset" : [ 0.0, 0.0 ],
					"outlettype" : [ "signal", "signal", "", "list", "", "" ],
					"patching_rect" : [ 182.0, 541.0, 172.0, 56.0 ],
					"varname" : "bp314334572207",
					"viewvisibility" : 1
				}

			}
, 			{
				"box" : 				{
					"id" : "obj-4",
					"maxclass" : "newobj",
					"numinlets" : 2,
					"numoutlets" : 1,
					"outlettype" : [ "" ],
					"patching_rect" : [ 23.0, 468.0, 66.0, 22.0 ],
					"text" : "bach.* 100"
				}

			}
, 			{
				"box" : 				{
					"bgmode" : 1,
					"border" : 1,
					"clickthrough" : 0,
					"enablehscroll" : 0,
					"enablevscroll" : 0,
					"id" : "obj-2",
					"lockeddragscroll" : 0,
					"lockedsize" : 0,
					"maxclass" : "bpatcher",
					"name" : "moz.chord_view.maxpat",
					"numinlets" : 2,
					"numoutlets" : 2,
					"offset" : [ 0.0, 0.0 ],
					"outlettype" : [ "", "" ],
					"patching_rect" : [ 23.0, 503.0, 151.0, 202.0 ],
					"varname" : "bp556905767840",
					"viewvisibility" : 1
				}

			}
, 			{
				"box" : 				{
					"id" : "obj-36",
					"maxclass" : "newobj",
					"numinlets" : 2,
					"numoutlets" : 2,
					"outlettype" : [ "", "clear" ],
					"patching_rect" : [ 224.5, 164.499999999999972, 87.0, 22.0 ],
					"text" : "jbs.rule_switch"
				}

			}
, 			{
				"box" : 				{
					"hidden" : 1,
					"id" : "obj-25",
					"maxclass" : "newobj",
					"numinlets" : 1,
					"numoutlets" : 1,
					"outlettype" : [ "" ],
					"patching_rect" : [ 224.5, 88.0, 90.0, 22.0 ],
					"text" : "loadmess 0 0 1"
				}

			}
, 			{
				"box" : 				{
					"columns" : 2,
					"id" : "obj-20",
					"maxclass" : "matrixctrl",
					"numinlets" : 1,
					"numoutlets" : 2,
					"outlettype" : [ "list", "list" ],
					"parameter_enable" : 0,
					"patching_rect" : [ 224.5, 133.262711864406725, 56.5, 26.237288135593246 ],
					"rows" : 1
				}

			}
, 			{
				"box" : 				{
					"id" : "obj-8",
					"maxclass" : "newobj",
					"numinlets" : 1,
					"numoutlets" : 1,
					"outlettype" : [ "" ],
					"patching_rect" : [ 111.0, 107.0, 89.0, 22.0 ],
					"text" : "loadmess set 5"
				}

			}
, 			{
				"box" : 				{
					"id" : "obj-3",
					"maxclass" : "newobj",
					"numinlets" : 4,
					"numoutlets" : 1,
					"outlettype" : [ "" ],
					"patching_rect" : [ 23.0, 81.0, 131.0, 22.0 ],
					"saved_object_attributes" : 					{
						"versionnumber" : 80105
					}
,
					"text" : "bach.arithmser 60 71 1"
				}

			}
, 			{
				"box" : 				{
					"fontsize" : 27.543332568129117,
					"id" : "obj-15",
					"maxclass" : "newobj",
					"numinlets" : 2,
					"numoutlets" : 1,
					"outlettype" : [ "" ],
					"patcher" : 					{
						"fileversion" : 1,
						"appversion" : 						{
							"major" : 8,
							"minor" : 6,
							"revision" : 5,
							"architecture" : "x64",
							"modernui" : 1
						}
,
						"classnamespace" : "box",
						"rect" : [ 706.0, -834.0, 671.0, 787.0 ],
						"bglocked" : 0,
						"openinpresentation" : 0,
						"default_fontsize" : 12.0,
						"default_fontface" : 0,
						"default_fontname" : "Arial",
						"gridonopen" : 1,
						"gridsize" : [ 15.0, 15.0 ],
						"gridsnaponopen" : 1,
						"objectsnaponopen" : 1,
						"statusbarvisible" : 2,
						"toolbarvisible" : 1,
						"lefttoolbarpinned" : 0,
						"toptoolbarpinned" : 0,
						"righttoolbarpinned" : 0,
						"bottomtoolbarpinned" : 0,
						"toolbars_unpinned_last_save" : 0,
						"tallnewobj" : 0,
						"boxanimatetime" : 200,
						"enablehscroll" : 1,
						"enablevscroll" : 1,
						"devicewidth" : 0.0,
						"description" : "",
						"digest" : "",
						"tags" : "",
						"style" : "",
						"subpatcher_template" : "",
						"assistshowspatchername" : 0,
						"boxes" : [ 							{
								"box" : 								{
									"id" : "obj-6",
									"maxclass" : "newobj",
									"numinlets" : 2,
									"numoutlets" : 1,
									"outlettype" : [ "" ],
									"patching_rect" : [ 241.0, 350.0, 55.0, 22.0 ],
									"saved_object_attributes" : 									{
										"embed" : 0,
										"versionnumber" : 80900
									}
,
									"text" : "bach.reg"
								}

							}
, 							{
								"box" : 								{
									"id" : "obj-5",
									"maxclass" : "newobj",
									"numinlets" : 2,
									"numoutlets" : 1,
									"outlettype" : [ "" ],
									"patching_rect" : [ 215.0, 697.0, 55.0, 22.0 ],
									"saved_object_attributes" : 									{
										"embed" : 0,
										"versionnumber" : 80900
									}
,
									"text" : "bach.reg"
								}

							}
, 							{
								"box" : 								{
									"fontsize" : 12.0,
									"id" : "obj-13",
									"maxclass" : "newobj",
									"numinlets" : 1,
									"numoutlets" : 1,
									"outlettype" : [ "" ],
									"patching_rect" : [ 58.125, 370.0, 77.0, 22.0 ],
									"text" : "loadmess 52"
								}

							}
, 							{
								"box" : 								{
									"bgmode" : 1,
									"border" : 1,
									"clickthrough" : 0,
									"enablehscroll" : 0,
									"enablevscroll" : 0,
									"id" : "obj-4",
									"lockeddragscroll" : 0,
									"lockedsize" : 0,
									"maxclass" : "bpatcher",
									"name" : "pmc.jbs_rules.maxpat",
									"numinlets" : 9,
									"numoutlets" : 3,
									"offset" : [ 0.0, 0.0 ],
									"outlettype" : [ "", "", "" ],
									"patching_rect" : [ 16.0, 424.0, 356.0, 203.0 ],
									"varname" : "pmc_jbs_rules[1]",
									"viewvisibility" : 1
								}

							}
, 							{
								"box" : 								{
									"id" : "obj-24",
									"maxclass" : "newobj",
									"numinlets" : 1,
									"numoutlets" : 3,
									"outlettype" : [ "", "", "" ],
									"patching_rect" : [ 206.333333333333314, 45.0, 224.0, 22.0 ],
									"text" : "unjoin 2"
								}

							}
, 							{
								"box" : 								{
									"comment" : "",
									"id" : "obj-19",
									"index" : 2,
									"maxclass" : "inlet",
									"numinlets" : 0,
									"numoutlets" : 1,
									"outlettype" : [ "" ],
									"patching_rect" : [ 206.333333333333314, 13.0, 30.0, 30.0 ]
								}

							}
, 							{
								"box" : 								{
									"id" : "obj-16",
									"maxclass" : "newobj",
									"numinlets" : 1,
									"numoutlets" : 1,
									"outlettype" : [ "" ],
									"patching_rect" : [ 346.0, 387.0, 94.0, 22.0 ],
									"text" : "prepend bypass"
								}

							}
, 							{
								"box" : 								{
									"id" : "obj-15",
									"maxclass" : "newobj",
									"numinlets" : 1,
									"numoutlets" : 1,
									"outlettype" : [ "" ],
									"patching_rect" : [ 206.333333333333314, 74.0, 94.0, 22.0 ],
									"text" : "prepend bypass"
								}

							}
, 							{
								"box" : 								{
									"fontsize" : 12.0,
									"id" : "obj-3",
									"maxclass" : "newobj",
									"numinlets" : 1,
									"numoutlets" : 1,
									"outlettype" : [ "" ],
									"patching_rect" : [ 58.125, 80.0, 77.0, 22.0 ],
									"text" : "loadmess 51"
								}

							}
, 							{
								"box" : 								{
									"bgmode" : 1,
									"border" : 1,
									"clickthrough" : 0,
									"enablehscroll" : 0,
									"enablevscroll" : 0,
									"id" : "obj-2",
									"lockeddragscroll" : 0,
									"lockedsize" : 0,
									"maxclass" : "bpatcher",
									"name" : "pmc.jbs_rules.maxpat",
									"numinlets" : 9,
									"numoutlets" : 3,
									"offset" : [ 0.0, 0.0 ],
									"outlettype" : [ "", "", "" ],
									"patching_rect" : [ 16.0, 131.0, 356.0, 203.0 ],
									"varname" : "pmc_jbs_rules[3]",
									"viewvisibility" : 1
								}

							}
, 							{
								"box" : 								{
									"comment" : "",
									"id" : "obj-12",
									"index" : 1,
									"maxclass" : "inlet",
									"numinlets" : 0,
									"numoutlets" : 1,
									"outlettype" : [ "" ],
									"patching_rect" : [ 16.0, 13.0, 30.0, 30.0 ]
								}

							}
, 							{
								"box" : 								{
									"comment" : "",
									"id" : "obj-14",
									"index" : 1,
									"maxclass" : "outlet",
									"numinlets" : 1,
									"numoutlets" : 0,
									"patching_rect" : [ 16.0, 700.0, 30.0, 30.0 ]
								}

							}
 ],
						"lines" : [ 							{
								"patchline" : 								{
									"destination" : [ "obj-2", 0 ],
									"source" : [ "obj-12", 0 ]
								}

							}
, 							{
								"patchline" : 								{
									"destination" : [ "obj-4", 1 ],
									"source" : [ "obj-13", 0 ]
								}

							}
, 							{
								"patchline" : 								{
									"destination" : [ "obj-2", 0 ],
									"midpoints" : [ 215.833333333333314, 119.5, 25.5, 119.5 ],
									"source" : [ "obj-15", 0 ]
								}

							}
, 							{
								"patchline" : 								{
									"destination" : [ "obj-4", 0 ],
									"midpoints" : [ 355.5, 416.0, 25.5, 416.0 ],
									"source" : [ "obj-16", 0 ]
								}

							}
, 							{
								"patchline" : 								{
									"destination" : [ "obj-24", 0 ],
									"source" : [ "obj-19", 0 ]
								}

							}
, 							{
								"patchline" : 								{
									"destination" : [ "obj-4", 0 ],
									"source" : [ "obj-2", 0 ]
								}

							}
, 							{
								"patchline" : 								{
									"destination" : [ "obj-6", 0 ],
									"source" : [ "obj-2", 2 ]
								}

							}
, 							{
								"patchline" : 								{
									"destination" : [ "obj-15", 0 ],
									"source" : [ "obj-24", 0 ]
								}

							}
, 							{
								"patchline" : 								{
									"destination" : [ "obj-16", 0 ],
									"midpoints" : [ 318.333333333333314, 117.0, 384.0, 117.0, 384.0, 372.0, 355.5, 372.0 ],
									"source" : [ "obj-24", 1 ]
								}

							}
, 							{
								"patchline" : 								{
									"destination" : [ "obj-2", 1 ],
									"source" : [ "obj-3", 0 ]
								}

							}
, 							{
								"patchline" : 								{
									"destination" : [ "obj-14", 0 ],
									"source" : [ "obj-4", 0 ]
								}

							}
, 							{
								"patchline" : 								{
									"destination" : [ "obj-5", 0 ],
									"source" : [ "obj-4", 2 ]
								}

							}
 ]
					}
,
					"patching_rect" : [ 23.0, 210.0, 123.0, 39.0 ],
					"saved_object_attributes" : 					{
						"description" : "",
						"digest" : "",
						"globalpatchername" : "",
						"tags" : ""
					}
,
					"text" : "p RULES"
				}

			}
, 			{
				"box" : 				{
					"id" : "obj-17",
					"maxclass" : "newobj",
					"numinlets" : 1,
					"numoutlets" : 1,
					"outlettype" : [ "" ],
					"patching_rect" : [ 23.0, 433.0, 54.0, 22.0 ],
					"saved_object_attributes" : 					{
						"versionnumber" : 80105
					}
,
					"text" : "bach.flat"
				}

			}
, 			{
				"box" : 				{
					"id" : "obj-7",
					"maxclass" : "newobj",
					"numinlets" : 1,
					"numoutlets" : 1,
					"outlettype" : [ "bang" ],
					"patching_rect" : [ 23.0, 53.0, 68.0, 22.0 ],
					"text" : "key_trigger"
				}

			}
, 			{
				"box" : 				{
					"bgmode" : 1,
					"border" : 1,
					"clickthrough" : 0,
					"enablehscroll" : 0,
					"enablevscroll" : 0,
					"id" : "obj-13",
					"lockeddragscroll" : 0,
					"lockedsize" : 0,
					"maxclass" : "bpatcher",
					"name" : "pmc.domain.maxpat",
					"numinlets" : 2,
					"numoutlets" : 2,
					"offset" : [ -65.0, -114.0 ],
					"outlettype" : [ "", "" ],
					"patching_rect" : [ 23.0, 138.0, 107.0, 47.0 ],
					"varname" : "bp1000621571926",
					"viewvisibility" : 1
				}

			}
, 			{
				"box" : 				{
					"bgmode" : 1,
					"border" : 1,
					"clickthrough" : 0,
					"enablehscroll" : 0,
					"enablevscroll" : 0,
					"id" : "obj-18",
					"lockeddragscroll" : 0,
					"lockedsize" : 0,
					"maxclass" : "bpatcher",
					"name" : "pmc.engine.maxpat",
					"numinlets" : 2,
					"numoutlets" : 2,
					"offset" : [ -2.0, -4.0 ],
					"outlettype" : [ "", "" ],
					"patching_rect" : [ 23.0, 359.0, 161.0, 60.0 ],
					"varname" : "bp55009240753",
					"viewvisibility" : 1
				}

			}
, 			{
				"box" : 				{
					"fontface" : 0,
					"fontname" : "Menlo Regular",
					"fontsize" : 11.0,
					"id" : "obj-1",
					"linecount" : 21,
					"maxclass" : "comment",
					"numinlets" : 1,
					"numoutlets" : 0,
					"patching_rect" : [ 323.0, 63.0, 307.0, 275.0 ],
					"text" : "This patch refers to the concept of a resulting interval. A resulting interval is an interval between a note of a sequence and any possible other notes in the same sequence. \n\nThe RESULTING-INTERVAL-RULE [1] obliges the solution to have, among all the intervals within a sequence, the defined interval. \n\nThe NOT-RESULTING-INTERVAL [2] does the opposite. \n\nIn this sense, look at the function FIND-ALL-INTERVALS (that you can call using the package JBS-CONSTRAINTS::FIND-ALL-INTERVALS). \nThis function gives all the interval between all notes of a sequence.\nEvaluate the FIND-ALL-INTERVALS box [3] and look at the result."
				}

			}
, 			{
				"box" : 				{
					"fontface" : 1,
					"fontname" : "Menlo Regular",
					"fontsize" : 31.556111999999999,
					"id" : "obj-35",
					"maxclass" : "comment",
					"numinlets" : 1,
					"numoutlets" : 0,
					"patching_rect" : [ 4.423917060628419, 2.202096939086914, 464.0, 43.0 ],
					"text" : "Resulting-interval rules"
				}

			}
 ],
		"lines" : [ 			{
				"patchline" : 				{
					"destination" : [ "obj-24", 0 ],
					"hidden" : 1,
					"source" : [ "obj-12", 0 ]
				}

			}
, 			{
				"patchline" : 				{
					"destination" : [ "obj-15", 0 ],
					"order" : 1,
					"source" : [ "obj-13", 0 ]
				}

			}
, 			{
				"patchline" : 				{
					"destination" : [ "obj-28", 0 ],
					"order" : 0,
					"source" : [ "obj-13", 0 ]
				}

			}
, 			{
				"patchline" : 				{
					"destination" : [ "obj-18", 0 ],
					"source" : [ "obj-15", 0 ]
				}

			}
, 			{
				"patchline" : 				{
					"destination" : [ "obj-37", 0 ],
					"order" : 0,
					"source" : [ "obj-17", 0 ]
				}

			}
, 			{
				"patchline" : 				{
					"destination" : [ "obj-4", 0 ],
					"order" : 1,
					"source" : [ "obj-17", 0 ]
				}

			}
, 			{
				"patchline" : 				{
					"destination" : [ "obj-17", 0 ],
					"source" : [ "obj-18", 0 ]
				}

			}
, 			{
				"patchline" : 				{
					"destination" : [ "obj-34", 0 ],
					"source" : [ "obj-18", 1 ]
				}

			}
, 			{
				"patchline" : 				{
					"destination" : [ "obj-36", 1 ],
					"source" : [ "obj-20", 1 ]
				}

			}
, 			{
				"patchline" : 				{
					"destination" : [ "obj-36", 0 ],
					"source" : [ "obj-20", 0 ]
				}

			}
, 			{
				"patchline" : 				{
					"destination" : [ "obj-27", 0 ],
					"hidden" : 1,
					"source" : [ "obj-22", 0 ]
				}

			}
, 			{
				"patchline" : 				{
					"destination" : [ "obj-29", 0 ],
					"source" : [ "obj-24", 0 ]
				}

			}
, 			{
				"patchline" : 				{
					"destination" : [ "obj-20", 0 ],
					"hidden" : 1,
					"source" : [ "obj-25", 0 ]
				}

			}
, 			{
				"patchline" : 				{
					"destination" : [ "obj-12", 0 ],
					"hidden" : 1,
					"source" : [ "obj-26", 0 ]
				}

			}
, 			{
				"patchline" : 				{
					"destination" : [ "obj-2", 0 ],
					"hidden" : 1,
					"source" : [ "obj-27", 0 ]
				}

			}
, 			{
				"patchline" : 				{
					"destination" : [ "obj-37", 0 ],
					"source" : [ "obj-29", 0 ]
				}

			}
, 			{
				"patchline" : 				{
					"destination" : [ "obj-13", 0 ],
					"source" : [ "obj-3", 0 ]
				}

			}
, 			{
				"patchline" : 				{
					"destination" : [ "obj-24", 0 ],
					"source" : [ "obj-31", 0 ]
				}

			}
, 			{
				"patchline" : 				{
					"destination" : [ "obj-18", 1 ],
					"source" : [ "obj-32", 0 ]
				}

			}
, 			{
				"patchline" : 				{
					"destination" : [ "obj-15", 1 ],
					"source" : [ "obj-36", 0 ]
				}

			}
, 			{
				"patchline" : 				{
					"destination" : [ "obj-20", 0 ],
					"midpoints" : [ 302.0, 189.0, 319.0, 189.0, 319.0, 126.0, 234.0, 126.0 ],
					"source" : [ "obj-36", 1 ]
				}

			}
, 			{
				"patchline" : 				{
					"destination" : [ "obj-21", 1 ],
					"source" : [ "obj-37", 0 ]
				}

			}
, 			{
				"patchline" : 				{
					"destination" : [ "obj-5", 1 ],
					"source" : [ "obj-37", 1 ]
				}

			}
, 			{
				"patchline" : 				{
					"destination" : [ "obj-2", 0 ],
					"source" : [ "obj-4", 0 ]
				}

			}
, 			{
				"patchline" : 				{
					"destination" : [ "obj-13", 0 ],
					"source" : [ "obj-44", 0 ]
				}

			}
, 			{
				"patchline" : 				{
					"destination" : [ "obj-3", 0 ],
					"source" : [ "obj-7", 0 ]
				}

			}
, 			{
				"patchline" : 				{
					"destination" : [ "obj-13", 1 ],
					"source" : [ "obj-8", 0 ]
				}

			}
, 			{
				"patchline" : 				{
					"destination" : [ "obj-11", 0 ],
					"hidden" : 1,
					"source" : [ "obj-9", 0 ]
				}

			}
 ],
		"parameters" : 		{
			"obj-11::obj-23" : [ "vst~[6]", "vst~[1]", 0 ],
			"obj-15::obj-2::obj-64" : [ "live.text[3]", "live.text", 0 ],
			"obj-15::obj-2::obj-85" : [ "live.text[2]", "live.text", 0 ],
			"obj-15::obj-4::obj-64" : [ "live.text[4]", "live.text", 0 ],
			"obj-15::obj-4::obj-85" : [ "live.text[5]", "live.text", 0 ],
			"parameterbanks" : 			{
				"0" : 				{
					"index" : 0,
					"name" : "",
					"parameters" : [ "-", "-", "-", "-", "-", "-", "-", "-" ]
				}

			}
,
			"parameter_overrides" : 			{
				"obj-15::obj-4::obj-64" : 				{
					"parameter_longname" : "live.text[4]"
				}
,
				"obj-15::obj-4::obj-85" : 				{
					"parameter_longname" : "live.text[5]"
				}

			}
,
			"inherited_shortname" : 1
		}
,
		"dependency_cache" : [ 			{
				"name" : "Pianoteq 5.maxsnap",
				"bootpath" : "~/Documents/Max 8/Snapshots",
				"patcherrelativepath" : "../../../../../../../Snapshots",
				"type" : "mx@s",
				"implicit" : 1
			}
, 			{
				"name" : "bach.approx.maxpat",
				"bootpath" : "~/Documents/Max 8/Packages/bach/patchers",
				"patcherrelativepath" : "../../../../../../bach/patchers",
				"type" : "JSON",
				"implicit" : 1
			}
, 			{
				"name" : "bach.args.mxo",
				"type" : "iLaX"
			}
, 			{
				"name" : "bach.arithmser.mxo",
				"type" : "iLaX"
			}
, 			{
				"name" : "bach.belong.maxpat",
				"bootpath" : "~/Documents/Max 8/Packages/bach/patchers",
				"patcherrelativepath" : "../../../../../../bach/patchers",
				"type" : "JSON",
				"implicit" : 1
			}
, 			{
				"name" : "bach.collect.mxo",
				"type" : "iLaX"
			}
, 			{
				"name" : "bach.contains.mxo",
				"type" : "iLaX"
			}
, 			{
				"name" : "bach.depth.mxo",
				"type" : "iLaX"
			}
, 			{
				"name" : "bach.div.maxpat",
				"bootpath" : "~/Documents/Max 8/Packages/bach/patchers",
				"patcherrelativepath" : "../../../../../../bach/patchers",
				"type" : "JSON",
				"implicit" : 1
			}
, 			{
				"name" : "bach.dx2x.maxpat",
				"bootpath" : "~/Documents/Max 8/Packages/bach/patchers",
				"patcherrelativepath" : "../../../../../../bach/patchers",
				"type" : "JSON",
				"implicit" : 1
			}
, 			{
				"name" : "bach.eq.mxo",
				"type" : "iLaX"
			}
, 			{
				"name" : "bach.eval.mxo",
				"type" : "iLaX"
			}
, 			{
				"name" : "bach.expr.mxo",
				"type" : "iLaX"
			}
, 			{
				"name" : "bach.filter.maxpat",
				"bootpath" : "~/Documents/Max 8/Packages/bach/patchers",
				"patcherrelativepath" : "../../../../../../bach/patchers",
				"type" : "JSON",
				"implicit" : 1
			}
, 			{
				"name" : "bach.filternull.maxpat",
				"bootpath" : "~/Documents/Max 8/Packages/bach/patchers",
				"patcherrelativepath" : "../../../../../../bach/patchers",
				"type" : "JSON",
				"implicit" : 1
			}
, 			{
				"name" : "bach.find.mxo",
				"type" : "iLaX"
			}
, 			{
				"name" : "bach.flat.mxo",
				"type" : "iLaX"
			}
, 			{
				"name" : "bach.gcd.maxpat",
				"bootpath" : "~/Documents/Max 8/Packages/bach/patchers",
				"patcherrelativepath" : "../../../../../../bach/patchers",
				"type" : "JSON",
				"implicit" : 1
			}
, 			{
				"name" : "bach.group.mxo",
				"type" : "iLaX"
			}
, 			{
				"name" : "bach.gt.mxo",
				"type" : "iLaX"
			}
, 			{
				"name" : "bach.interp.maxpat",
				"bootpath" : "~/Documents/Max 8/Packages/bach/patchers",
				"patcherrelativepath" : "../../../../../../bach/patchers",
				"type" : "JSON",
				"implicit" : 1
			}
, 			{
				"name" : "bach.intersection.mxo",
				"type" : "iLaX"
			}
, 			{
				"name" : "bach.is.mxo",
				"type" : "iLaX"
			}
, 			{
				"name" : "bach.iter.mxo",
				"type" : "iLaX"
			}
, 			{
				"name" : "bach.join.mxo",
				"type" : "iLaX"
			}
, 			{
				"name" : "bach.keys.mxo",
				"type" : "iLaX"
			}
, 			{
				"name" : "bach.length.mxo",
				"type" : "iLaX"
			}
, 			{
				"name" : "bach.lookup.maxpat",
				"bootpath" : "~/Documents/Max 8/Packages/bach/patchers",
				"patcherrelativepath" : "../../../../../../bach/patchers",
				"type" : "JSON",
				"implicit" : 1
			}
, 			{
				"name" : "bach.mapelem.mxo",
				"type" : "iLaX"
			}
, 			{
				"name" : "bach.neq.mxo",
				"type" : "iLaX"
			}
, 			{
				"name" : "bach.nth.mxo",
				"type" : "iLaX"
			}
, 			{
				"name" : "bach.pad.mxo",
				"type" : "iLaX"
			}
, 			{
				"name" : "bach.pick.mxo",
				"type" : "iLaX"
			}
, 			{
				"name" : "bach.playkeys.mxo",
				"type" : "iLaX"
			}
, 			{
				"name" : "bach.portal.mxo",
				"type" : "iLaX"
			}
, 			{
				"name" : "bach.prepend.maxpat",
				"bootpath" : "~/Documents/Max 8/Packages/bach/patchers",
				"patcherrelativepath" : "../../../../../../bach/patchers",
				"type" : "JSON",
				"implicit" : 1
			}
, 			{
				"name" : "bach.print.mxo",
				"type" : "iLaX"
			}
, 			{
				"name" : "bach.read.mxo",
				"type" : "iLaX"
			}
, 			{
				"name" : "bach.reg.mxo",
				"type" : "iLaX"
			}
, 			{
				"name" : "bach.repeat.maxpat",
				"bootpath" : "~/Documents/Max 8/Packages/bach/patchers",
				"patcherrelativepath" : "../../../../../../bach/patchers",
				"type" : "JSON",
				"implicit" : 1
			}
, 			{
				"name" : "bach.rminus.maxpat",
				"bootpath" : "~/Documents/Max 8/Packages/bach/patchers",
				"patcherrelativepath" : "../../../../../../bach/patchers",
				"type" : "JSON",
				"implicit" : 1
			}
, 			{
				"name" : "bach.roll.mxo",
				"type" : "iLaX"
			}
, 			{
				"name" : "bach.round.maxpat",
				"bootpath" : "~/Documents/Max 8/Packages/bach/patchers",
				"patcherrelativepath" : "../../../../../../bach/patchers",
				"type" : "JSON",
				"implicit" : 1
			}
, 			{
				"name" : "bach.slice.mxo",
				"type" : "iLaX"
			}
, 			{
				"name" : "bach.sum.maxpat",
				"bootpath" : "~/Documents/Max 8/Packages/bach/patchers",
				"patcherrelativepath" : "../../../../../../bach/patchers",
				"type" : "JSON",
				"implicit" : 1
			}
, 			{
				"name" : "bach.textout.mxo",
				"type" : "iLaX"
			}
, 			{
				"name" : "bach.thin.mxo",
				"type" : "iLaX"
			}
, 			{
				"name" : "bach.times.maxpat",
				"bootpath" : "~/Documents/Max 8/Packages/bach/patchers",
				"patcherrelativepath" : "../../../../../../bach/patchers",
				"type" : "JSON",
				"implicit" : 1
			}
, 			{
				"name" : "bach.value.mxo",
				"type" : "iLaX"
			}
, 			{
				"name" : "bach.wrap.mxo",
				"type" : "iLaX"
			}
, 			{
				"name" : "bach.write.mxo",
				"type" : "iLaX"
			}
, 			{
				"name" : "bpatcher-resize-gizmo.maxpat",
				"bootpath" : "~/Documents/Max 8/Packages/MOZLib/patchers/utilities",
				"patcherrelativepath" : "../../../../../patchers/utilities",
				"type" : "JSON",
				"implicit" : 1
			}
, 			{
				"name" : "bpatcher-resize.js",
				"bootpath" : "~/Documents/Max 8/Packages/MOZLib/patchers/utilities",
				"patcherrelativepath" : "../../../../../patchers/utilities",
				"type" : "TEXT",
				"implicit" : 1
			}
, 			{
				"name" : "cluster.get_doc.maxpat",
				"bootpath" : "~/Documents/Max 8/Packages/MOZLib/patchers/pw4m_cluster-engine/utilities",
				"patcherrelativepath" : "../../../../../patchers/pw4m_cluster-engine/utilities",
				"type" : "JSON",
				"implicit" : 1
			}
, 			{
				"name" : "erase.png",
				"bootpath" : "~/Documents/Max 8/Packages/MOZLib/media",
				"patcherrelativepath" : "../../../../../media",
				"type" : "PNG",
				"implicit" : 1
			}
, 			{
				"name" : "get_object-coord.js",
				"bootpath" : "~/Documents/Max 8/Packages/MOZLib/patchers/utilities",
				"patcherrelativepath" : "../../../../../patchers/utilities",
				"type" : "TEXT",
				"implicit" : 1
			}
, 			{
				"name" : "help.png",
				"bootpath" : "~/Documents/Max 8/Packages/MOZLib/media",
				"patcherrelativepath" : "../../../../../media",
				"type" : "PNG",
				"implicit" : 1
			}
, 			{
				"name" : "jbs.rule_switch.maxpat",
				"bootpath" : "~/Documents/Max 8/Packages/MOZLib/patchers/pw4m_jbs",
				"patcherrelativepath" : "../../../../../patchers/pw4m_jbs",
				"type" : "JSON",
				"implicit" : 1
			}
, 			{
				"name" : "jbs_block_code-bypass.maxpat",
				"bootpath" : "~/Documents/Max 8/Packages/MOZLib/patchers/pw4m_pmc",
				"patcherrelativepath" : "../../../../../patchers/pw4m_pmc",
				"type" : "JSON",
				"implicit" : 1
			}
, 			{
				"name" : "jbs_block_null.maxpat",
				"bootpath" : "~/Documents/Max 8/Packages/MOZLib/patchers/pw4m_pmc",
				"patcherrelativepath" : "../../../../../patchers/pw4m_pmc",
				"type" : "JSON",
				"implicit" : 1
			}
, 			{
				"name" : "jbs_block_num.maxpat",
				"bootpath" : "~/Documents/Max 8/Packages/MOZLib/patchers/pw4m_pmc",
				"patcherrelativepath" : "../../../../../patchers/pw4m_pmc",
				"type" : "JSON",
				"implicit" : 1
			}
, 			{
				"name" : "key_trigger.maxpat",
				"bootpath" : "~/Documents/Max 8/Packages/MOZLib/patchers/utilities",
				"patcherrelativepath" : "../../../../../patchers/utilities",
				"type" : "JSON",
				"implicit" : 1
			}
, 			{
				"name" : "lisp.backquote.maxpat",
				"bootpath" : "~/Documents/Max 8/Packages/MOZLib/patchers/pw4m_lisp_scripting_boxes",
				"patcherrelativepath" : "../../../../../patchers/pw4m_lisp_scripting_boxes",
				"type" : "JSON",
				"implicit" : 1
			}
, 			{
				"name" : "lisp.expr.maxpat",
				"bootpath" : "~/Documents/Max 8/Packages/MOZLib/patchers/pw4m_lisp_scripting_boxes",
				"patcherrelativepath" : "../../../../../patchers/pw4m_lisp_scripting_boxes",
				"type" : "JSON",
				"implicit" : 1
			}
, 			{
				"name" : "lisp.lighteval.maxpat",
				"bootpath" : "~/Documents/Max 8/Packages/MOZLib/patchers/pw4m_lisp_scripting_boxes",
				"patcherrelativepath" : "../../../../../patchers/pw4m_lisp_scripting_boxes",
				"type" : "JSON",
				"implicit" : 1
			}
, 			{
				"name" : "lisp.quickeval.maxpat",
				"bootpath" : "~/Documents/Max 8/Packages/MOZLib/patchers/pw4m_lisp_scripting_boxes",
				"patcherrelativepath" : "../../../../../patchers/pw4m_lisp_scripting_boxes",
				"type" : "JSON",
				"implicit" : 1
			}
, 			{
				"name" : "lisp.quote.maxpat",
				"bootpath" : "~/Documents/Max 8/Packages/MOZLib/patchers/pw4m_lisp_scripting_boxes",
				"patcherrelativepath" : "../../../../../patchers/pw4m_lisp_scripting_boxes",
				"type" : "JSON",
				"implicit" : 1
			}
, 			{
				"name" : "load_MOZ_helpfile.maxpat",
				"bootpath" : "~/Documents/Max 8/Packages/MOZLib/patchers/utilities",
				"patcherrelativepath" : "../../../../../patchers/utilities",
				"type" : "JSON",
				"implicit" : 1
			}
, 			{
				"name" : "mac_or_win.maxpat",
				"bootpath" : "~/Documents/Max 8/Packages/MOZLib/patchers/pw4m_lisp",
				"patcherrelativepath" : "../../../../../patchers/pw4m_lisp",
				"type" : "JSON",
				"implicit" : 1
			}
, 			{
				"name" : "make_path_once.maxpat",
				"bootpath" : "~/Documents/Max 8/Packages/MOZLib/patchers/pw4m_lisp",
				"patcherrelativepath" : "../../../../../patchers/pw4m_lisp",
				"type" : "JSON",
				"implicit" : 1
			}
, 			{
				"name" : "moz.chord_view.maxpat",
				"bootpath" : "~/Documents/Max 8/Packages/MOZLib/patchers/moz_modules",
				"patcherrelativepath" : "../../../../../patchers/moz_modules",
				"type" : "JSON",
				"implicit" : 1
			}
, 			{
				"name" : "moz.detect2lisp.antenna.maxpat",
				"bootpath" : "~/Documents/Max 8/Packages/MOZLib/patchers/utilities",
				"patcherrelativepath" : "../../../../../patchers/utilities",
				"type" : "JSON",
				"implicit" : 1
			}
, 			{
				"name" : "moz.ezmidi_instr.maxpat",
				"bootpath" : "~/Documents/Max 8/Packages/MOZLib/patchers/moz_modules",
				"patcherrelativepath" : "../../../../../patchers/moz_modules",
				"type" : "JSON",
				"implicit" : 1
			}
, 			{
				"name" : "moz.init-unless.maxpat",
				"bootpath" : "~/Documents/Max 8/Packages/MOZLib/patchers/utilities",
				"patcherrelativepath" : "../../../../../patchers/utilities",
				"type" : "JSON",
				"implicit" : 1
			}
, 			{
				"name" : "moz.maplength.maxpat",
				"bootpath" : "~/Documents/Max 8/Packages/MOZLib/patchers/utilities",
				"patcherrelativepath" : "../../../../../patchers/utilities",
				"type" : "JSON",
				"implicit" : 1
			}
, 			{
				"name" : "moz.maxverbang.maxpat",
				"bootpath" : "~/Documents/Max 8/Packages/MOZLib/patchers/utilities",
				"patcherrelativepath" : "../../../../../patchers/utilities",
				"type" : "JSON",
				"implicit" : 1
			}
, 			{
				"name" : "moz.midi_ez-anything.maxpat",
				"bootpath" : "~/Documents/Max 8/Packages/MOZLib/patchers/utilities",
				"patcherrelativepath" : "../../../../../patchers/utilities",
				"type" : "JSON",
				"implicit" : 1
			}
, 			{
				"name" : "moz.midi_meter.maxpat",
				"bootpath" : "~/Documents/Max 8/Packages/MOZLib/patchers/utilities",
				"patcherrelativepath" : "../../../../../patchers/utilities",
				"type" : "JSON",
				"implicit" : 1
			}
, 			{
				"name" : "moz.mouse-is-inside.maxpat",
				"bootpath" : "~/Documents/Max 8/Packages/MOZLib/patchers/utilities",
				"patcherrelativepath" : "../../../../../patchers/utilities",
				"type" : "JSON",
				"implicit" : 1
			}
, 			{
				"name" : "moz.play_hover_title.maxpat",
				"bootpath" : "~/Documents/Max 8/Packages/MOZLib/patchers/utilities",
				"patcherrelativepath" : "../../../../../patchers/utilities",
				"type" : "JSON",
				"implicit" : 1
			}
, 			{
				"name" : "moz.prepend-or-null.maxpat",
				"bootpath" : "~/Documents/Max 8/Packages/MOZLib/patchers/pw4m_pmc",
				"patcherrelativepath" : "../../../../../patchers/pw4m_pmc",
				"type" : "JSON",
				"implicit" : 1
			}
, 			{
				"name" : "moz.reconstruct-lllls-from-print.maxpat",
				"bootpath" : "~/Documents/Max 8/Packages/MOZLib/patchers/utilities",
				"patcherrelativepath" : "../../../../../patchers/utilities",
				"type" : "JSON",
				"implicit" : 1
			}
, 			{
				"name" : "moz.sendto_ezmidi_instr.maxpat",
				"bootpath" : "~/Documents/Max 8/Packages/MOZLib/patchers/utilities",
				"patcherrelativepath" : "../../../../../patchers/utilities",
				"type" : "JSON",
				"implicit" : 1
			}
, 			{
				"name" : "moz.update-ui.maxpat",
				"bootpath" : "~/Documents/Max 8/Packages/MOZLib/patchers/utilities",
				"patcherrelativepath" : "../../../../../patchers/utilities",
				"type" : "JSON",
				"implicit" : 1
			}
, 			{
				"name" : "open-doc-double.png",
				"bootpath" : "~/Documents/Max 8/Packages/MOZLib/media",
				"patcherrelativepath" : "../../../../../media",
				"type" : "PNG",
				"implicit" : 1
			}
, 			{
				"name" : "pmc.domain.maxpat",
				"bootpath" : "~/Documents/Max 8/Packages/MOZLib/patchers/pw4m_pmc",
				"patcherrelativepath" : "../../../../../patchers/pw4m_pmc",
				"type" : "JSON",
				"implicit" : 1
			}
, 			{
				"name" : "pmc.engine.maxpat",
				"bootpath" : "~/Documents/Max 8/Packages/MOZLib/patchers/pw4m_pmc",
				"patcherrelativepath" : "../../../../../patchers/pw4m_pmc",
				"type" : "JSON",
				"implicit" : 1
			}
, 			{
				"name" : "pmc.jbs_rules.maxpat",
				"bootpath" : "~/Documents/Max 8/Packages/MOZLib/patchers/pw4m_pmc",
				"patcherrelativepath" : "../../../../../patchers/pw4m_pmc",
				"type" : "JSON",
				"implicit" : 1
			}
, 			{
				"name" : "pmc.thinking-engine_UI.maxpat",
				"bootpath" : "~/Documents/Max 8/Packages/MOZLib/patchers/pw4m_pmc",
				"patcherrelativepath" : "../../../../../patchers/pw4m_pmc",
				"type" : "JSON",
				"implicit" : 1
			}
, 			{
				"name" : "pmcyes.png",
				"bootpath" : "~/Documents/Max 8/Packages/MOZLib/media",
				"patcherrelativepath" : "../../../../../media",
				"type" : "PNG",
				"implicit" : 1
			}
, 			{
				"name" : "pw.backquote.maxpat",
				"bootpath" : "~/Documents/Max 8/Packages/MOZLib/patchers/pw4m_lisp_code_generators_legacy",
				"patcherrelativepath" : "../../../../../patchers/pw4m_lisp_code_generators_legacy",
				"type" : "JSON",
				"implicit" : 1
			}
, 			{
				"name" : "pw.eval-box.maxpat",
				"bootpath" : "~/Documents/Max 8/Packages/MOZLib/patchers/pw4m_lisp",
				"patcherrelativepath" : "../../../../../patchers/pw4m_lisp",
				"type" : "JSON",
				"implicit" : 1
			}
, 			{
				"name" : "refresh_vst.png",
				"bootpath" : "~/Documents/Max 8/Packages/MOZLib/media",
				"patcherrelativepath" : "../../../../../media",
				"type" : "PNG",
				"implicit" : 1
			}
, 			{
				"name" : "rule_number_splitter.maxpat",
				"bootpath" : "~/Documents/Max 8/Packages/MOZLib/patchers/pw4m_pmc",
				"patcherrelativepath" : "../../../../../patchers/pw4m_pmc",
				"type" : "JSON",
				"implicit" : 1
			}
, 			{
				"name" : "save-double.png",
				"bootpath" : "~/Documents/Max 8/Packages/MOZLib/media",
				"patcherrelativepath" : "../../../../../media",
				"type" : "PNG",
				"implicit" : 1
			}
, 			{
				"name" : "sendback-selec.png",
				"bootpath" : "~/Documents/Max 8/Packages/MOZLib/media",
				"patcherrelativepath" : "../../../../../media",
				"type" : "PNG",
				"implicit" : 1
			}
, 			{
				"name" : "sendback.png",
				"bootpath" : "~/Documents/Max 8/Packages/MOZLib/media",
				"patcherrelativepath" : "../../../../../media",
				"type" : "PNG",
				"implicit" : 1
			}
, 			{
				"name" : "shell.mxo",
				"type" : "iLaX"
			}
, 			{
				"name" : "thru.maxpat",
				"bootpath" : "C74:/patchers/m4l/Pluggo for Live resources/patches",
				"type" : "JSON",
				"implicit" : 1
			}
 ],
		"autosave" : 0,
		"styles" : [ 			{
				"name" : "MOZ-numint",
				"default" : 				{
					"bgcolor" : [ 0.2, 0.2, 0.2, 0.0 ],
					"fontname" : [ "Menlo Regular" ],
					"fontsize" : [ 16.95834 ],
					"selectioncolor" : [ 0.0, 0.0, 0.0, 1.0 ],
					"textcolor_inverse" : [ 0.0, 0.0, 0.0, 1.0 ]
				}
,
				"parentstyle" : "",
				"multi" : 0
			}
, 			{
				"name" : "MOZ-param",
				"default" : 				{
					"fontname" : [ "Menlo Regular" ],
					"fontsize" : [ 16.0 ]
				}
,
				"parentstyle" : "",
				"multi" : 0
			}
, 			{
				"name" : "MOZ-title",
				"default" : 				{
					"fontname" : [ "Andale Mono" ],
					"fontsize" : [ 22.062093999999998 ]
				}
,
				"parentstyle" : "",
				"multi" : 0
			}
, 			{
				"name" : "MOZ-umenu",
				"default" : 				{
					"bgfillcolor" : 					{
						"angle" : 270.0,
						"autogradient" : 0.0,
						"color" : [ 0.996078, 0.996078, 0.996078, 1.0 ],
						"color1" : [ 0.996078, 0.996078, 0.996078, 1.0 ],
						"color2" : [ 0.2, 0.2, 0.2, 1.0 ],
						"proportion" : 0.5,
						"type" : "color"
					}
,
					"color" : [ 0.996078, 0.996078, 0.996078, 1.0 ],
					"elementcolor" : [ 0.996078, 0.996078, 0.996078, 1.0 ],
					"fontface" : [ 2 ],
					"fontname" : [ "Menlo Regular" ],
					"textcolor_inverse" : [ 0.0, 0.0, 0.0, 1.0 ]
				}
,
				"parentstyle" : "",
				"multi" : 0
			}
, 			{
				"name" : "SPLIM",
				"parentstyle" : "comment001",
				"multi" : 0
			}
, 			{
				"name" : "comment001",
				"default" : 				{
					"fontname" : [ "Herculanum" ],
					"fontsize" : [ 18.0 ]
				}
,
				"parentstyle" : "",
				"multi" : 0
			}
, 			{
				"name" : "ksliderWhite",
				"default" : 				{
					"color" : [ 1, 1, 1, 1 ]
				}
,
				"parentstyle" : "",
				"multi" : 0
			}
, 			{
				"name" : "message001",
				"default" : 				{
					"fontname" : [ "Arial" ],
					"fontsize" : [ 13.0 ],
					"textcolor_inverse" : [ 0.92549, 0.364706, 0.341176, 1.0 ]
				}
,
				"parentstyle" : "",
				"multi" : 0
			}
, 			{
				"name" : "newobjBlue-1",
				"default" : 				{
					"accentcolor" : [ 0.317647, 0.654902, 0.976471, 1 ]
				}
,
				"parentstyle" : "",
				"multi" : 0
			}
, 			{
				"name" : "newobjGreen-1",
				"default" : 				{
					"accentcolor" : [ 0, 0.533333, 0.168627, 1 ]
				}
,
				"parentstyle" : "",
				"multi" : 0
			}
, 			{
				"name" : "numberGold-1",
				"default" : 				{
					"accentcolor" : [ 0.764706, 0.592157, 0.101961, 1 ]
				}
,
				"parentstyle" : "",
				"multi" : 0
			}
, 			{
				"name" : "orjan style",
				"default" : 				{
					"accentcolor" : [ 0.65098, 0.666667, 0.662745, 1.0 ],
					"bgcolor" : [ 0.97911, 0.963068, 0.9712, 1.0 ],
					"bgfillcolor" : 					{
						"angle" : 270.0,
						"autogradient" : 0,
						"color" : [ 0.290196, 0.309804, 0.301961, 1.0 ],
						"color1" : [ 1.0, 1.0, 1.0, 1.0 ],
						"color2" : [ 0.862745, 0.870588, 0.878431, 1.0 ],
						"proportion" : 0.39,
						"type" : "gradient"
					}
,
					"color" : [ 0.037449, 0.035848, 0.03644, 1.0 ],
					"elementcolor" : [ 0.898251, 0.915112, 0.965693, 1.0 ],
					"textcolor_inverse" : [ 0.0, 0.0, 0.0, 1.0 ]
				}
,
				"parentstyle" : "",
				"multi" : 0
			}
 ]
	}

}
