{
	"patcher" : 	{
		"fileversion" : 1,
		"appversion" : 		{
			"major" : 8,
			"minor" : 6,
			"revision" : 5,
			"architecture" : "x64",
			"modernui" : 1
		}
,
		"classnamespace" : "box",
		"rect" : [ 34.0, 79.0, 942.0, 566.0 ],
		"bglocked" : 0,
		"openinpresentation" : 0,
		"default_fontsize" : 12.0,
		"default_fontface" : 0,
		"default_fontname" : "Arial",
		"gridonopen" : 1,
		"gridsize" : [ 15.0, 15.0 ],
		"gridsnaponopen" : 1,
		"objectsnaponopen" : 1,
		"statusbarvisible" : 2,
		"toolbarvisible" : 1,
		"lefttoolbarpinned" : 0,
		"toptoolbarpinned" : 0,
		"righttoolbarpinned" : 0,
		"bottomtoolbarpinned" : 0,
		"toolbars_unpinned_last_save" : 0,
		"tallnewobj" : 0,
		"boxanimatetime" : 200,
		"enablehscroll" : 1,
		"enablevscroll" : 1,
		"devicewidth" : 0.0,
		"description" : "",
		"digest" : "",
		"tags" : "",
		"style" : "",
		"subpatcher_template" : "",
		"showontab" : 0,
		"assistshowspatchername" : 0,
		"title" : "LISP inside !",
		"boxes" : [ 			{
				"box" : 				{
					"bgmode" : 0,
					"border" : 0,
					"clickthrough" : 0,
					"enablehscroll" : 0,
					"enablevscroll" : 0,
					"id" : "obj-21",
					"lockeddragscroll" : 0,
					"lockedsize" : 0,
					"maxclass" : "bpatcher",
					"name" : "moz.lambda_swap.maxpat",
					"numinlets" : 0,
					"numoutlets" : 0,
					"offset" : [ -52.0, -105.0 ],
					"patching_rect" : [ 504.0, 80.0, 23.0, 29.833070721870399 ],
					"viewvisibility" : 1
				}

			}
, 			{
				"box" : 				{
					"fontface" : 1,
					"fontname" : "Menlo Regular",
					"id" : "obj-19",
					"maxclass" : "comment",
					"numinlets" : 1,
					"numoutlets" : 0,
					"patching_rect" : [ 80.666606903076172, 517.008007049560547, 384.0, 20.0 ],
					"text" : "Want to learn a bit of Lisp? Check this document!"
				}

			}
, 			{
				"box" : 				{
					"bgcolor" : [ 0.301961, 0.301961, 0.301961, 0.0 ],
					"bgcolor2" : [ 0.301961, 0.301961, 0.301961, 0.0 ],
					"bgfillcolor_angle" : 270.0,
					"bgfillcolor_autogradient" : 0.0,
					"bgfillcolor_color" : [ 0.2, 0.2, 0.2, 0.0 ],
					"bgfillcolor_color1" : [ 0.301961, 0.301961, 0.301961, 0.0 ],
					"bgfillcolor_color2" : [ 0.2, 0.2, 0.2, 1.0 ],
					"bgfillcolor_proportion" : 0.5,
					"bgfillcolor_type" : "color",
					"fontface" : 3,
					"fontsize" : 12.607321246074346,
					"gradient" : 1,
					"id" : "obj-17",
					"maxclass" : "message",
					"numinlets" : 2,
					"numoutlets" : 1,
					"outlettype" : [ "" ],
					"patching_rect" : [ 185.666606903076172, 531.572856058689581, 135.333393096923828, 23.0 ],
					"text" : "Lisp Introduction.pdf",
					"textcolor" : [ 0.082, 0.553, 1.0, 1.0 ]
				}

			}
, 			{
				"box" : 				{
					"hidden" : 1,
					"id" : "obj-30",
					"maxclass" : "newobj",
					"numinlets" : 5,
					"numoutlets" : 0,
					"patcher" : 					{
						"fileversion" : 1,
						"appversion" : 						{
							"major" : 8,
							"minor" : 6,
							"revision" : 5,
							"architecture" : "x64",
							"modernui" : 1
						}
,
						"classnamespace" : "box",
						"rect" : [ 59.0, 104.0, 1108.0, 514.0 ],
						"bglocked" : 0,
						"openinpresentation" : 0,
						"default_fontsize" : 12.0,
						"default_fontface" : 0,
						"default_fontname" : "Arial",
						"gridonopen" : 1,
						"gridsize" : [ 15.0, 15.0 ],
						"gridsnaponopen" : 1,
						"objectsnaponopen" : 1,
						"statusbarvisible" : 2,
						"toolbarvisible" : 1,
						"lefttoolbarpinned" : 0,
						"toptoolbarpinned" : 0,
						"righttoolbarpinned" : 0,
						"bottomtoolbarpinned" : 0,
						"toolbars_unpinned_last_save" : 0,
						"tallnewobj" : 0,
						"boxanimatetime" : 200,
						"enablehscroll" : 1,
						"enablevscroll" : 1,
						"devicewidth" : 0.0,
						"description" : "",
						"digest" : "",
						"tags" : "",
						"style" : "",
						"subpatcher_template" : "",
						"assistshowspatchername" : 0,
						"boxes" : [ 							{
								"box" : 								{
									"comment" : "",
									"id" : "obj-6",
									"index" : 1,
									"maxclass" : "inlet",
									"numinlets" : 0,
									"numoutlets" : 1,
									"outlettype" : [ "" ],
									"patching_rect" : [ 121.999974943469965, 42.000000354100401, 30.0, 30.0 ]
								}

							}
, 							{
								"box" : 								{
									"bgcolor" : [ 0.301961, 0.301961, 0.301961, 0.0 ],
									"bgcolor2" : [ 0.301961, 0.301961, 0.301961, 0.0 ],
									"bgfillcolor_angle" : 270.0,
									"bgfillcolor_autogradient" : 0.0,
									"bgfillcolor_color" : [ 0.2, 0.2, 0.2, 0.0 ],
									"bgfillcolor_color1" : [ 0.301961, 0.301961, 0.301961, 0.0 ],
									"bgfillcolor_color2" : [ 0.2, 0.2, 0.2, 1.0 ],
									"bgfillcolor_proportion" : 0.5,
									"bgfillcolor_type" : "color",
									"fontface" : 3,
									"fontsize" : 11.0,
									"gradient" : 1,
									"id" : "obj-2",
									"maxclass" : "message",
									"numinlets" : 2,
									"numoutlets" : 1,
									"outlettype" : [ "" ],
									"patching_rect" : [ 240.0, 121.0, 320.0, 21.0 ],
									"text" : "https://en.wikipedia.org/wiki/Lisp_(programming_language)",
									"textcolor" : [ 0.270588248968124, 0.329411774873734, 0.996078431606293, 1.0 ]
								}

							}
, 							{
								"box" : 								{
									"bgcolor" : [ 0.301961, 0.301961, 0.301961, 0.0 ],
									"bgcolor2" : [ 0.301961, 0.301961, 0.301961, 0.0 ],
									"bgfillcolor_angle" : 270.0,
									"bgfillcolor_autogradient" : 0.0,
									"bgfillcolor_color" : [ 0.2, 0.2, 0.2, 0.0 ],
									"bgfillcolor_color1" : [ 0.301961, 0.301961, 0.301961, 0.0 ],
									"bgfillcolor_color2" : [ 0.2, 0.2, 0.2, 1.0 ],
									"bgfillcolor_proportion" : 0.5,
									"bgfillcolor_type" : "color",
									"fontface" : 3,
									"fontsize" : 11.0,
									"gradient" : 1,
									"id" : "obj-23",
									"maxclass" : "message",
									"numinlets" : 2,
									"numoutlets" : 1,
									"outlettype" : [ "" ],
									"patching_rect" : [ 669.304690004098347, 229.56385721005023, 320.0, 21.0 ],
									"text" : "http://www.lispworks.com/documentation/HyperSpec/Front/",
									"textcolor" : [ 0.270588248968124, 0.329411774873734, 0.996078431606293, 1.0 ]
								}

							}
, 							{
								"box" : 								{
									"bgcolor" : [ 0.301961, 0.301961, 0.301961, 0.0 ],
									"bgcolor2" : [ 0.301961, 0.301961, 0.301961, 0.0 ],
									"bgfillcolor_angle" : 270.0,
									"bgfillcolor_autogradient" : 0.0,
									"bgfillcolor_color" : [ 0.2, 0.2, 0.2, 0.0 ],
									"bgfillcolor_color1" : [ 0.301961, 0.301961, 0.301961, 0.0 ],
									"bgfillcolor_color2" : [ 0.2, 0.2, 0.2, 1.0 ],
									"bgfillcolor_proportion" : 0.5,
									"bgfillcolor_type" : "color",
									"fontface" : 3,
									"fontsize" : 11.0,
									"gradient" : 1,
									"id" : "obj-22",
									"maxclass" : "message",
									"numinlets" : 2,
									"numoutlets" : 1,
									"outlettype" : [ "" ],
									"patching_rect" : [ 619.0, 100.0, 263.0, 21.0 ],
									"text" : "https://www.cs.cmu.edu/~dst/LispBook/book.pdf",
									"textcolor" : [ 0.270588248968124, 0.329411774873734, 0.996078431606293, 1.0 ]
								}

							}
, 							{
								"box" : 								{
									"bgcolor" : [ 0.301961, 0.301961, 0.301961, 0.0 ],
									"bgcolor2" : [ 0.301961, 0.301961, 0.301961, 0.0 ],
									"bgfillcolor_angle" : 270.0,
									"bgfillcolor_autogradient" : 0.0,
									"bgfillcolor_color" : [ 0.2, 0.2, 0.2, 0.0 ],
									"bgfillcolor_color1" : [ 0.301961, 0.301961, 0.301961, 0.0 ],
									"bgfillcolor_color2" : [ 0.2, 0.2, 0.2, 1.0 ],
									"bgfillcolor_proportion" : 0.5,
									"bgfillcolor_type" : "color",
									"fontface" : 3,
									"fontsize" : 11.0,
									"gradient" : 1,
									"id" : "obj-20",
									"maxclass" : "message",
									"numinlets" : 2,
									"numoutlets" : 1,
									"outlettype" : [ "" ],
									"patching_rect" : [ 662.0, 156.5, 196.0, 21.0 ],
									"text" : "http://www.gigamonkeys.com/book/",
									"textcolor" : [ 0.270588248968124, 0.329411774873734, 0.996078431606293, 1.0 ]
								}

							}
, 							{
								"box" : 								{
									"fontsize" : 7.608435672091255,
									"id" : "obj-21",
									"linecount" : 2,
									"maxclass" : "message",
									"numinlets" : 2,
									"numoutlets" : 1,
									"outlettype" : [ "" ],
									"patching_rect" : [ 361.304690004098347, 230.56385721005023, 94.0, 25.0 ],
									"text" : ";\rmax launchbrowser $1"
								}

							}
, 							{
								"box" : 								{
									"comment" : "",
									"id" : "obj-17",
									"index" : 2,
									"maxclass" : "inlet",
									"numinlets" : 0,
									"numoutlets" : 1,
									"outlettype" : [ "" ],
									"patching_rect" : [ 239.999974943469965, 42.000000354100401, 30.0, 30.0 ]
								}

							}
, 							{
								"box" : 								{
									"comment" : "",
									"id" : "obj-26",
									"index" : 3,
									"maxclass" : "inlet",
									"numinlets" : 0,
									"numoutlets" : 1,
									"outlettype" : [ "" ],
									"patching_rect" : [ 619.000035943470039, 40.000000354100401, 30.0, 30.0 ]
								}

							}
, 							{
								"box" : 								{
									"comment" : "",
									"id" : "obj-28",
									"index" : 4,
									"maxclass" : "inlet",
									"numinlets" : 0,
									"numoutlets" : 1,
									"outlettype" : [ "" ],
									"patching_rect" : [ 662.000035943470039, 40.000000354100401, 30.0, 30.0 ]
								}

							}
, 							{
								"box" : 								{
									"comment" : "",
									"id" : "obj-29",
									"index" : 5,
									"maxclass" : "inlet",
									"numinlets" : 0,
									"numoutlets" : 1,
									"outlettype" : [ "" ],
									"patching_rect" : [ 697.000035943470039, 40.000000354100401, 30.0, 30.0 ]
								}

							}
, 							{
								"box" : 								{
									"bgcolor" : [ 0.301961, 0.301961, 0.301961, 0.0 ],
									"bgcolor2" : [ 0.301961, 0.301961, 0.301961, 0.0 ],
									"bgfillcolor_angle" : 270.0,
									"bgfillcolor_autogradient" : 0.0,
									"bgfillcolor_color" : [ 0.2, 0.2, 0.2, 0.0 ],
									"bgfillcolor_color1" : [ 0.301961, 0.301961, 0.301961, 0.0 ],
									"bgfillcolor_color2" : [ 0.2, 0.2, 0.2, 1.0 ],
									"bgfillcolor_proportion" : 0.5,
									"bgfillcolor_type" : "color",
									"fontface" : 3,
									"fontsize" : 11.0,
									"gradient" : 1,
									"id" : "obj-73",
									"maxclass" : "message",
									"numinlets" : 2,
									"numoutlets" : 1,
									"outlettype" : [ "" ],
									"patching_rect" : [ 122.000035943470152, 313.07577015151503, 176.0, 21.0 ],
									"presentation" : 1,
									"presentation_rect" : [ 813.5, 106.5, 233.0, 21.0 ],
									"text" : "/help/Lisp/Lisp_introduction.pdf",
									"textcolor" : [ 0.270588248968124, 0.329411774873734, 0.996078431606293, 1.0 ]
								}

							}
, 							{
								"box" : 								{
									"id" : "obj-66",
									"maxclass" : "newobj",
									"numinlets" : 1,
									"numoutlets" : 1,
									"outlettype" : [ "bang" ],
									"patching_rect" : [ 126.000035943470152, 356.07577015151503, 148.0, 22.0 ],
									"text" : "load_file_in_MOZpackage"
								}

							}
 ],
						"lines" : [ 							{
								"patchline" : 								{
									"destination" : [ "obj-2", 0 ],
									"source" : [ "obj-17", 0 ]
								}

							}
, 							{
								"patchline" : 								{
									"destination" : [ "obj-21", 0 ],
									"midpoints" : [ 249.5, 172.531928605025115, 370.804690004098347, 172.531928605025115 ],
									"source" : [ "obj-2", 0 ]
								}

							}
, 							{
								"patchline" : 								{
									"destination" : [ "obj-21", 0 ],
									"midpoints" : [ 671.5, 187.031928605025115, 370.804690004098347, 187.031928605025115 ],
									"source" : [ "obj-20", 0 ]
								}

							}
, 							{
								"patchline" : 								{
									"destination" : [ "obj-21", 0 ],
									"midpoints" : [ 628.5, 179.781928605025115, 370.804690004098347, 179.781928605025115 ],
									"source" : [ "obj-22", 0 ]
								}

							}
, 							{
								"patchline" : 								{
									"destination" : [ "obj-21", 0 ],
									"midpoints" : [ 678.804690004098347, 194.281928605025115, 370.804690004098347, 194.281928605025115 ],
									"source" : [ "obj-23", 0 ]
								}

							}
, 							{
								"patchline" : 								{
									"destination" : [ "obj-22", 0 ],
									"source" : [ "obj-26", 0 ]
								}

							}
, 							{
								"patchline" : 								{
									"destination" : [ "obj-20", 0 ],
									"source" : [ "obj-28", 0 ]
								}

							}
, 							{
								"patchline" : 								{
									"destination" : [ "obj-23", 0 ],
									"source" : [ "obj-29", 0 ]
								}

							}
, 							{
								"patchline" : 								{
									"destination" : [ "obj-73", 0 ],
									"source" : [ "obj-6", 0 ]
								}

							}
, 							{
								"patchline" : 								{
									"destination" : [ "obj-66", 0 ],
									"source" : [ "obj-73", 0 ]
								}

							}
 ]
					}
,
					"patching_rect" : [ 185.666606903076172, 560.254977645899544, 50.5, 22.0 ],
					"saved_object_attributes" : 					{
						"description" : "",
						"digest" : "",
						"globalpatchername" : "",
						"tags" : ""
					}
,
					"text" : "p links"
				}

			}
, 			{
				"box" : 				{
					"fontface" : 1,
					"fontname" : "Menlo Regular",
					"fontsize" : 16.0,
					"id" : "obj-15",
					"linecount" : 3,
					"maxclass" : "comment",
					"numinlets" : 1,
					"numoutlets" : 0,
					"patching_rect" : [ 74.666606903076172, 435.008007049560547, 288.0, 62.0 ],
					"text" : " ((1 (1 1 1 1)) (1 (1 1 2)) \n  (1 (2 1 1)) (1 (1 2 1)) \n  (1 (3 1)) (1 (1 3)))    "
				}

			}
, 			{
				"box" : 				{
					"fontname" : "Menlo Regular",
					"id" : "obj-13",
					"maxclass" : "comment",
					"numinlets" : 1,
					"numoutlets" : 0,
					"patching_rect" : [ 657.666606903076172, 517.008007049560547, 59.0, 20.0 ],
					"text" : "returns"
				}

			}
, 			{
				"box" : 				{
					"fontface" : 1,
					"fontname" : "Menlo Regular",
					"fontsize" : 16.0,
					"id" : "obj-12",
					"maxclass" : "comment",
					"numinlets" : 1,
					"numoutlets" : 0,
					"patching_rect" : [ 716.0, 514.508007049560547, 76.0, 25.0 ],
					"text" : "3628800"
				}

			}
, 			{
				"box" : 				{
					"fontface" : 1,
					"fontname" : "Menlo Regular",
					"fontsize" : 16.0,
					"id" : "obj-11",
					"maxclass" : "comment",
					"numinlets" : 1,
					"numoutlets" : 0,
					"patching_rect" : [ 699.166606903076172, 486.508007049560547, 28.0, 25.0 ],
					"text" : "24"
				}

			}
, 			{
				"box" : 				{
					"fontname" : "Menlo Regular",
					"id" : "obj-10",
					"maxclass" : "comment",
					"numinlets" : 1,
					"numoutlets" : 0,
					"patching_rect" : [ 640.666606903076172, 490.008007049560547, 59.0, 20.0 ],
					"text" : "returns"
				}

			}
, 			{
				"box" : 				{
					"fontface" : 1,
					"fontname" : "Menlo Regular",
					"fontsize" : 16.0,
					"id" : "obj-9",
					"maxclass" : "comment",
					"numinlets" : 1,
					"numoutlets" : 0,
					"patching_rect" : [ 520.666606903076172, 514.508007049560547, 143.0, 25.0 ],
					"text" : "(factorial 10)"
				}

			}
, 			{
				"box" : 				{
					"fontface" : 1,
					"fontname" : "Menlo Regular",
					"fontsize" : 16.0,
					"id" : "obj-8",
					"maxclass" : "comment",
					"numinlets" : 1,
					"numoutlets" : 0,
					"patching_rect" : [ 512.666606903076172, 486.508007049560547, 134.0, 25.0 ],
					"text" : "(factorial 4)"
				}

			}
, 			{
				"box" : 				{
					"fontface" : 1,
					"fontname" : "Menlo Regular",
					"fontsize" : 16.0,
					"id" : "obj-7",
					"maxclass" : "comment",
					"numinlets" : 1,
					"numoutlets" : 0,
					"patching_rect" : [ 521.666606903076172, 424.508007049560547, 383.0, 25.0 ],
					"text" : "(factorial n) "
				}

			}
, 			{
				"box" : 				{
					"fontface" : 1,
					"fontname" : "Menlo Regular",
					"fontsize" : 16.0,
					"id" : "obj-6",
					"linecount" : 3,
					"maxclass" : "comment",
					"numinlets" : 1,
					"numoutlets" : 0,
					"patching_rect" : [ 518.666606903076172, 341.508007049560547, 383.0, 62.0 ],
					"text" : "(defun factorial (n)\n    (if (= n 0) 1\n        (* n (factorial (- n 1))))) "
				}

			}
, 			{
				"box" : 				{
					"fontname" : "Menlo Regular",
					"id" : "obj-5",
					"linecount" : 5,
					"maxclass" : "comment",
					"numinlets" : 1,
					"numoutlets" : 0,
					"patching_rect" : [ 96.666606903076172, 146.508007049560547, 717.0, 76.0 ],
					"text" : "LISP is a programming language designed in 1958 by John McCarthy, \nwhich quickly became a favorite tool for research on artificial intelligence. \nIt was also used by a large number of music researchers and composers in the 1980s and 90s, \nin particular at Ircam with the family of softwares derived from Mikael Laurson's PatchWork (PW), \nwhich led eventually to OpenMusic (OM) and PWGL."
				}

			}
, 			{
				"box" : 				{
					"fontname" : "Menlo Regular",
					"id" : "obj-4",
					"linecount" : 3,
					"maxclass" : "comment",
					"numinlets" : 1,
					"numoutlets" : 0,
					"patching_rect" : [ 161.895348837209326, 244.508007049560547, 550.0, 48.0 ],
					"text" : "Andrea Agostini and Daniele Ghisi's bach library, while not written in Lisp, inherited from the philosophy behind those Lisp-based tools, in particular through the use of 'Lisp-like linked lists' or lllls."
				}

			}
, 			{
				"box" : 				{
					"fontname" : "Menlo Regular",
					"id" : "obj-20",
					"maxclass" : "comment",
					"numinlets" : 1,
					"numoutlets" : 0,
					"patching_rect" : [ 494.666606903076172, 319.508007049560547, 290.0, 20.0 ],
					"text" : "Here's an example of Lisp code :"
				}

			}
, 			{
				"box" : 				{
					"fontname" : "Menlo Regular",
					"id" : "obj-18",
					"linecount" : 9,
					"maxclass" : "comment",
					"numinlets" : 1,
					"numoutlets" : 0,
					"patching_rect" : [ 494.666606903076172, 405.508007049560547, 410.0, 132.0 ],
					"text" : "You apply it this way :\n\n\nwhere n is an argument to the 'factorial' \nfunction we just defined.  \n\nSo                    \n\nand"
				}

			}
, 			{
				"box" : 				{
					"hidden" : 1,
					"id" : "obj-14",
					"maxclass" : "newobj",
					"numinlets" : 1,
					"numoutlets" : 2,
					"outlettype" : [ "", "" ],
					"patching_rect" : [ 825.0, 89.508007049560547, 67.0, 22.0 ],
					"save" : [ "#N", "thispatcher", ";", "#Q", "end", ";" ],
					"text" : "thispatcher"
				}

			}
, 			{
				"box" : 				{
					"hidden" : 1,
					"id" : "obj-16",
					"maxclass" : "newobj",
					"numinlets" : 0,
					"numoutlets" : 1,
					"outlettype" : [ "" ],
					"patching_rect" : [ 825.0, 66.0, 68.0, 22.0 ],
					"text" : "r zoomhelp"
				}

			}
, 			{
				"box" : 				{
					"fontname" : "Menlo Regular",
					"id" : "obj-2",
					"linecount" : 7,
					"maxclass" : "comment",
					"numinlets" : 1,
					"numoutlets" : 0,
					"patching_rect" : [ 52.666606903076172, 326.508007049560547, 384.0, 104.0 ],
					"text" : "Depending on people telling you the story, \nLISP either stands for \"List-processor\" or \n\"Lots of idiotic and stupid parentheses\" :)\n\nAnd indeed... \nHere's an example of how Lisp represents data, \nhere a rhythmic tree in PatchWork :"
				}

			}
, 			{
				"box" : 				{
					"fontname" : "Menlo Regular",
					"id" : "obj-1",
					"linecount" : 2,
					"maxclass" : "comment",
					"numinlets" : 1,
					"numoutlets" : 0,
					"patching_rect" : [ 56.666606903076172, 90.508007049560547, 637.0, 34.0 ],
					"text" : "You may have noticed some MOZ modules have the lambda symbol     in their name.\nIt means they are based on some kind of Lisp code. But what is it exactly...?"
				}

			}
, 			{
				"box" : 				{
					"fontface" : 1,
					"fontname" : "Menlo",
					"fontsize" : 31.55611167716577,
					"id" : "obj-31",
					"maxclass" : "comment",
					"numinlets" : 1,
					"numoutlets" : 0,
					"patching_rect" : [ 1.666606903076172, 1.508007049560547, 901.0, 43.0 ],
					"text" : "LISP inside!... but what is Lisp to begin with?"
				}

			}
 ],
		"lines" : [ 			{
				"patchline" : 				{
					"destination" : [ "obj-14", 0 ],
					"hidden" : 1,
					"source" : [ "obj-16", 0 ]
				}

			}
, 			{
				"patchline" : 				{
					"destination" : [ "obj-30", 0 ],
					"hidden" : 1,
					"source" : [ "obj-17", 0 ]
				}

			}
 ],
		"dependency_cache" : [ 			{
				"name" : "load_file_in_MOZpackage.maxpat",
				"bootpath" : "~/Documents/Max 8/Packages/MOZLib/patchers/utilities",
				"patcherrelativepath" : "../../../patchers/utilities",
				"type" : "JSON",
				"implicit" : 1
			}
, 			{
				"name" : "moz.lambda_swap.maxpat",
				"bootpath" : "~/Documents/Max 8/Packages/MOZLib/media",
				"patcherrelativepath" : "../../../media",
				"type" : "JSON",
				"implicit" : 1
			}
, 			{
				"name" : "moz.maxverbang.maxpat",
				"bootpath" : "~/Documents/Max 8/Packages/MOZLib/patchers/utilities",
				"patcherrelativepath" : "../../../patchers/utilities",
				"type" : "JSON",
				"implicit" : 1
			}
, 			{
				"name" : "scheme-hex.png",
				"bootpath" : "~/Documents/Max 8/Packages/MOZLib/media",
				"patcherrelativepath" : "../../../media",
				"type" : "PNG",
				"implicit" : 1
			}
 ],
		"autosave" : 0,
		"boxgroups" : [ 			{
				"boxes" : [ "obj-21", "obj-1" ]
			}
 ],
		"styles" : [ 			{
				"name" : "MOZ-numint",
				"default" : 				{
					"bgcolor" : [ 0.2, 0.2, 0.2, 0.0 ],
					"fontsize" : [ 17.846569953152443 ],
					"selectioncolor" : [ 0.0, 0.0, 0.0, 1.0 ],
					"textcolor_inverse" : [ 0.0, 0.0, 0.0, 1.0 ]
				}
,
				"parentstyle" : "",
				"multi" : 0
			}
, 			{
				"name" : "MOZ-param",
				"default" : 				{
					"fontname" : [ "Menlo Regular" ],
					"fontsize" : [ 16.0 ]
				}
,
				"parentstyle" : "",
				"multi" : 0
			}
, 			{
				"name" : "MOZ-title",
				"default" : 				{
					"fontname" : [ "Andale Mono" ],
					"fontsize" : [ 22.062094355029235 ]
				}
,
				"parentstyle" : "",
				"multi" : 0
			}
, 			{
				"name" : "MOZ-umenu",
				"default" : 				{
					"bgfillcolor" : 					{
						"angle" : 270.0,
						"autogradient" : 0.0,
						"color" : [ 0.996078431372549, 0.996078431372549, 0.996078431372549, 1.0 ],
						"color1" : [ 0.996078431372549, 0.996078431372549, 0.996078431372549, 1.0 ],
						"color2" : [ 0.2, 0.2, 0.2, 1.0 ],
						"proportion" : 0.5,
						"type" : "color"
					}
,
					"color" : [ 0.996078431372549, 0.996078431372549, 0.996078431372549, 1.0 ],
					"elementcolor" : [ 0.996078431372549, 0.996078431372549, 0.996078431372549, 1.0 ],
					"fontface" : [ 2 ],
					"fontname" : [ "Menlo Regular" ],
					"textcolor_inverse" : [ 0.0, 0.0, 0.0, 1.0 ]
				}
,
				"parentstyle" : "",
				"multi" : 0
			}
, 			{
				"name" : "SPLIM",
				"parentstyle" : "comment001",
				"multi" : 0
			}
, 			{
				"name" : "comment001",
				"default" : 				{
					"fontname" : [ "Herculanum" ],
					"fontsize" : [ 18.0 ]
				}
,
				"parentstyle" : "",
				"multi" : 0
			}
, 			{
				"name" : "ksliderWhite",
				"default" : 				{
					"color" : [ 1, 1, 1, 1 ]
				}
,
				"parentstyle" : "",
				"multi" : 0
			}
, 			{
				"name" : "message001",
				"default" : 				{
					"fontname" : [ "Arial" ],
					"fontsize" : [ 13.0 ],
					"textcolor_inverse" : [ 0.92549, 0.364706, 0.341176, 1.0 ]
				}
,
				"parentstyle" : "",
				"multi" : 0
			}
, 			{
				"name" : "newobjBlue-1",
				"default" : 				{
					"accentcolor" : [ 0.317647, 0.654902, 0.976471, 1 ]
				}
,
				"parentstyle" : "",
				"multi" : 0
			}
, 			{
				"name" : "newobjGreen-1",
				"default" : 				{
					"accentcolor" : [ 0, 0.533333, 0.168627, 1 ]
				}
,
				"parentstyle" : "",
				"multi" : 0
			}
, 			{
				"name" : "numberGold-1",
				"default" : 				{
					"accentcolor" : [ 0.764706, 0.592157, 0.101961, 1 ]
				}
,
				"parentstyle" : "",
				"multi" : 0
			}
, 			{
				"name" : "orjan style",
				"default" : 				{
					"accentcolor" : [ 0.65098, 0.666667, 0.662745, 1.0 ],
					"bgcolor" : [ 0.97911, 0.963068, 0.9712, 1.0 ],
					"bgfillcolor" : 					{
						"angle" : 270.0,
						"autogradient" : 0,
						"color" : [ 0.290196, 0.309804, 0.301961, 1.0 ],
						"color1" : [ 1.0, 1.0, 1.0, 1.0 ],
						"color2" : [ 0.862745, 0.870588, 0.878431, 1.0 ],
						"proportion" : 0.39,
						"type" : "gradient"
					}
,
					"color" : [ 0.037449, 0.035848, 0.03644, 1.0 ],
					"elementcolor" : [ 0.898251, 0.915112, 0.965693, 1.0 ],
					"textcolor_inverse" : [ 0.0, 0.0, 0.0, 1.0 ]
				}
,
				"parentstyle" : "",
				"multi" : 0
			}
 ]
	}

}
