{
	"patcher" : 	{
		"fileversion" : 1,
		"appversion" : 		{
			"major" : 8,
			"minor" : 3,
			"revision" : 1,
			"architecture" : "x64",
			"modernui" : 1
		}
,
		"classnamespace" : "box",
		"rect" : [ 34.0, 79.0, 796.0, 556.0 ],
		"bglocked" : 0,
		"openinpresentation" : 0,
		"default_fontsize" : 12.0,
		"default_fontface" : 0,
		"default_fontname" : "Arial",
		"gridonopen" : 1,
		"gridsize" : [ 15.0, 15.0 ],
		"gridsnaponopen" : 1,
		"objectsnaponopen" : 1,
		"statusbarvisible" : 2,
		"toolbarvisible" : 1,
		"lefttoolbarpinned" : 0,
		"toptoolbarpinned" : 0,
		"righttoolbarpinned" : 0,
		"bottomtoolbarpinned" : 0,
		"toolbars_unpinned_last_save" : 0,
		"tallnewobj" : 0,
		"boxanimatetime" : 200,
		"enablehscroll" : 1,
		"enablevscroll" : 1,
		"devicewidth" : 0.0,
		"description" : "",
		"digest" : "",
		"tags" : "",
		"style" : "",
		"subpatcher_template" : "",
		"assistshowspatchername" : 0,
		"boxes" : [ 			{
				"box" : 				{
					"bgmode" : 1,
					"border" : 1,
					"clickthrough" : 0,
					"enablehscroll" : 0,
					"enablevscroll" : 0,
					"id" : "obj-4",
					"lockeddragscroll" : 0,
					"lockedsize" : 0,
					"maxclass" : "bpatcher",
					"name" : "chreode.make-chreode.maxpat",
					"numinlets" : 5,
					"numoutlets" : 1,
					"offset" : [ 0.0, 0.0 ],
					"outlettype" : [ "" ],
					"patching_rect" : [ 329.0, 76.0, 201.0, 32.0 ],
					"varname" : "chreode.make-chreode",
					"viewvisibility" : 1
				}

			}
, 			{
				"box" : 				{
					"bgmode" : 1,
					"border" : 1,
					"clickthrough" : 0,
					"enablehscroll" : 0,
					"enablevscroll" : 0,
					"id" : "obj-1",
					"lockeddragscroll" : 0,
					"lockedsize" : 0,
					"maxclass" : "bpatcher",
					"name" : "chreode.make-chreode.maxpat",
					"numinlets" : 5,
					"numoutlets" : 1,
					"offset" : [ 0.0, 0.0 ],
					"outlettype" : [ "" ],
					"patching_rect" : [ 100.0, 76.0, 201.0, 32.0 ],
					"varname" : "chreode.make-chreode[1]",
					"viewvisibility" : 1
				}

			}
, 			{
				"box" : 				{
					"hidden" : 1,
					"id" : "obj-2",
					"maxclass" : "newobj",
					"numinlets" : 1,
					"numoutlets" : 1,
					"outlettype" : [ "" ],
					"patching_rect" : [ 212.0, 291.0, 117.0, 22.0 ],
					"text" : "loadmess collapse 1"
				}

			}
, 			{
				"box" : 				{
					"hidden" : 1,
					"id" : "obj-24",
					"maxclass" : "newobj",
					"numinlets" : 1,
					"numoutlets" : 1,
					"outlettype" : [ "" ],
					"patching_rect" : [ 275.0, 16.0, 117.0, 22.0 ],
					"text" : "loadmess collapse 1"
				}

			}
, 			{
				"box" : 				{
					"id" : "obj-33",
					"maxclass" : "newobj",
					"numinlets" : 0,
					"numoutlets" : 1,
					"outlettype" : [ "" ],
					"patching_rect" : [ 50.0, 240.0, 53.0, 22.0 ],
					"text" : "r update"
				}

			}
, 			{
				"box" : 				{
					"id" : "obj-27",
					"maxclass" : "newobj",
					"numinlets" : 1,
					"numoutlets" : 1,
					"outlettype" : [ "bang" ],
					"patching_rect" : [ 607.0, 305.0, 22.0, 22.0 ],
					"text" : "t b"
				}

			}
, 			{
				"box" : 				{
					"id" : "obj-25",
					"maxclass" : "newobj",
					"numinlets" : 1,
					"numoutlets" : 0,
					"patching_rect" : [ 607.0, 342.0, 55.0, 22.0 ],
					"text" : "s update"
				}

			}
, 			{
				"box" : 				{
					"id" : "obj-22",
					"maxclass" : "newobj",
					"numinlets" : 1,
					"numoutlets" : 1,
					"outlettype" : [ "bang" ],
					"patching_rect" : [ 14.0, 216.0, 68.0, 22.0 ],
					"text" : "key_trigger"
				}

			}
, 			{
				"box" : 				{
					"format" : 6,
					"id" : "obj-23",
					"maxclass" : "flonum",
					"numinlets" : 1,
					"numoutlets" : 2,
					"outlettype" : [ "", "bang" ],
					"parameter_enable" : 0,
					"patching_rect" : [ 512.0, 307.0, 50.0, 22.0 ],
					"varname" : "number[1]"
				}

			}
, 			{
				"box" : 				{
					"id" : "obj-6",
					"maxclass" : "message",
					"numinlets" : 2,
					"numoutlets" : 1,
					"outlettype" : [ "" ],
					"patching_rect" : [ 532.0, 218.0, 49.0, 22.0 ],
					"text" : "clearall"
				}

			}
, 			{
				"box" : 				{
					"id" : "obj-3",
					"maxclass" : "newobj",
					"numinlets" : 0,
					"numoutlets" : 1,
					"outlettype" : [ "" ],
					"patcher" : 					{
						"fileversion" : 1,
						"appversion" : 						{
							"major" : 8,
							"minor" : 3,
							"revision" : 1,
							"architecture" : "x64",
							"modernui" : 1
						}
,
						"classnamespace" : "box",
						"rect" : [ 59.0, 104.0, 640.0, 480.0 ],
						"bglocked" : 0,
						"openinpresentation" : 0,
						"default_fontsize" : 12.0,
						"default_fontface" : 0,
						"default_fontname" : "Arial",
						"gridonopen" : 1,
						"gridsize" : [ 15.0, 15.0 ],
						"gridsnaponopen" : 1,
						"objectsnaponopen" : 1,
						"statusbarvisible" : 2,
						"toolbarvisible" : 1,
						"lefttoolbarpinned" : 0,
						"toptoolbarpinned" : 0,
						"righttoolbarpinned" : 0,
						"bottomtoolbarpinned" : 0,
						"toolbars_unpinned_last_save" : 0,
						"tallnewobj" : 0,
						"boxanimatetime" : 200,
						"enablehscroll" : 1,
						"enablevscroll" : 1,
						"devicewidth" : 0.0,
						"description" : "",
						"digest" : "",
						"tags" : "",
						"style" : "",
						"subpatcher_template" : "",
						"assistshowspatchername" : 0,
						"boxes" : [ 							{
								"box" : 								{
									"id" : "obj-6",
									"maxclass" : "newobj",
									"numinlets" : 1,
									"numoutlets" : 1,
									"outlettype" : [ "" ],
									"patching_rect" : [ 50.0, 192.0, 89.0, 22.0 ],
									"text" : "sprintf %s.json"
								}

							}
, 							{
								"box" : 								{
									"id" : "obj-9",
									"maxclass" : "newobj",
									"numinlets" : 1,
									"numoutlets" : 1,
									"outlettype" : [ "" ],
									"patching_rect" : [ 50.0, 224.0, 82.0, 22.0 ],
									"text" : "prepend read"
								}

							}
, 							{
								"box" : 								{
									"id" : "obj-2",
									"maxclass" : "newobj",
									"numinlets" : 1,
									"numoutlets" : 1,
									"outlettype" : [ "bang" ],
									"patching_rect" : [ 50.0, 100.0, 60.0, 22.0 ],
									"text" : "loadbang"
								}

							}
, 							{
								"box" : 								{
									"id" : "obj-18",
									"maxclass" : "message",
									"numinlets" : 2,
									"numoutlets" : 1,
									"outlettype" : [ "" ],
									"patching_rect" : [ 50.0, 131.0, 122.0, 22.0 ],
									"text" : "toplevelpatchername"
								}

							}
, 							{
								"box" : 								{
									"id" : "obj-3",
									"maxclass" : "newobj",
									"numinlets" : 1,
									"numoutlets" : 1,
									"outlettype" : [ "" ],
									"patching_rect" : [ 50.0, 158.0, 99.0, 22.0 ],
									"saved_object_attributes" : 									{
										"filename" : "parentname.js",
										"parameter_enable" : 0
									}
,
									"text" : "js parentname.js"
								}

							}
, 							{
								"box" : 								{
									"comment" : "",
									"id" : "obj-31",
									"index" : 1,
									"maxclass" : "outlet",
									"numinlets" : 1,
									"numoutlets" : 0,
									"patching_rect" : [ 50.0, 306.0, 30.0, 30.0 ]
								}

							}
 ],
						"lines" : [ 							{
								"patchline" : 								{
									"destination" : [ "obj-3", 0 ],
									"source" : [ "obj-18", 0 ]
								}

							}
, 							{
								"patchline" : 								{
									"destination" : [ "obj-18", 0 ],
									"source" : [ "obj-2", 0 ]
								}

							}
, 							{
								"patchline" : 								{
									"destination" : [ "obj-6", 0 ],
									"source" : [ "obj-3", 0 ]
								}

							}
, 							{
								"patchline" : 								{
									"destination" : [ "obj-9", 0 ],
									"source" : [ "obj-6", 0 ]
								}

							}
, 							{
								"patchline" : 								{
									"destination" : [ "obj-31", 0 ],
									"source" : [ "obj-9", 0 ]
								}

							}
 ]
					}
,
					"patching_rect" : [ 385.5, 237.0, 91.0, 22.0 ],
					"saved_object_attributes" : 					{
						"description" : "",
						"digest" : "",
						"globalpatchername" : "",
						"tags" : ""
					}
,
					"text" : "p patchername"
				}

			}
, 			{
				"box" : 				{
					"id" : "obj-13",
					"maxclass" : "number",
					"numinlets" : 1,
					"numoutlets" : 2,
					"outlettype" : [ "", "bang" ],
					"parameter_enable" : 0,
					"patching_rect" : [ 724.0, 218.0, 50.0, 22.0 ],
					"varname" : "number"
				}

			}
, 			{
				"box" : 				{
					"id" : "obj-7",
					"maxclass" : "message",
					"numinlets" : 2,
					"numoutlets" : 1,
					"outlettype" : [ "" ],
					"patching_rect" : [ 294.0, 282.5, 35.0, 22.0 ],
					"text" : "read"
				}

			}
, 			{
				"box" : 				{
					"fontname" : "Arial",
					"fontsize" : 13.0,
					"id" : "obj-8",
					"maxclass" : "message",
					"numinlets" : 2,
					"numoutlets" : 1,
					"outlettype" : [ "" ],
					"patching_rect" : [ 490.5, 282.5, 84.0, 23.0 ],
					"text" : "clientwindow"
				}

			}
, 			{
				"box" : 				{
					"id" : "obj-14",
					"maxclass" : "newobj",
					"numinlets" : 1,
					"numoutlets" : 1,
					"outlettype" : [ "bang" ],
					"patching_rect" : [ 589.0, 187.0, 60.0, 22.0 ],
					"text" : "loadbang"
				}

			}
, 			{
				"box" : 				{
					"fontname" : "Arial",
					"fontsize" : 13.0,
					"id" : "obj-18",
					"maxclass" : "message",
					"numinlets" : 2,
					"numoutlets" : 1,
					"outlettype" : [ "" ],
					"patching_rect" : [ 589.0, 218.0, 130.0, 23.0 ],
					"text" : "pattrstorage chreode"
				}

			}
, 			{
				"box" : 				{
					"fontname" : "Arial",
					"fontsize" : 13.0,
					"id" : "obj-19",
					"maxclass" : "message",
					"numinlets" : 2,
					"numoutlets" : 1,
					"outlettype" : [ "" ],
					"patching_rect" : [ 391.5, 282.5, 97.0, 23.0 ],
					"text" : "storagewindow"
				}

			}
, 			{
				"box" : 				{
					"fontname" : "Arial",
					"fontsize" : 13.0,
					"id" : "obj-26",
					"maxclass" : "message",
					"numinlets" : 2,
					"numoutlets" : 1,
					"outlettype" : [ "" ],
					"patching_rect" : [ 335.0, 237.0, 39.0, 23.0 ],
					"text" : "write"
				}

			}
, 			{
				"box" : 				{
					"autorestore" : "Chreode-6-Chreode-presets.json",
					"fontname" : "Arial",
					"fontsize" : 13.0,
					"id" : "obj-20",
					"interp" : 					{
						"chreode.plot_view::umenu" : [ 2, 0.5 ],
						"chreode.plot_view::umenu[1]" : [ 2, 0.5 ],
						"chreode.make-chreode[1]::umenu" : [ 2, 0.5 ],
						"chreode.make-chreode[1]::umenu[1]" : [ 2, 0.5 ],
						"chreode.make-chreode::umenu" : [ 2, 0.5 ],
						"chreode.make-chreode::umenu[1]" : [ 2, 0.5 ]
					}
,
					"maxclass" : "newobj",
					"numinlets" : 1,
					"numoutlets" : 1,
					"outlettype" : [ "" ],
					"patching_rect" : [ 335.0, 346.5, 218.0, 23.0 ],
					"saved_object_attributes" : 					{
						"client_rect" : [ 4, 79, 402, 536 ],
						"parameter_enable" : 0,
						"parameter_mappable" : 0,
						"storage_rect" : [ 583, 69, 1034, 197 ]
					}
,
					"text" : "pattrstorage chreode @savemode 1",
					"varname" : "chreode"
				}

			}
, 			{
				"box" : 				{
					"id" : "obj-21",
					"maxclass" : "preset",
					"numinlets" : 1,
					"numoutlets" : 5,
					"outlettype" : [ "preset", "int", "preset", "int", "" ],
					"patching_rect" : [ 589.0, 250.0, 100.0, 40.0 ],
					"pattrstorage" : "chreode"
				}

			}
, 			{
				"box" : 				{
					"id" : "obj-10",
					"maxclass" : "newobj",
					"numinlets" : 1,
					"numoutlets" : 6,
					"outlettype" : [ "", "", "", "", "", "" ],
					"patching_rect" : [ 329.0, 44.0, 201.0, 22.0 ],
					"text" : "unjoin 5"
				}

			}
, 			{
				"box" : 				{
					"id" : "obj-11",
					"maxclass" : "newobj",
					"numinlets" : 1,
					"numoutlets" : 1,
					"outlettype" : [ "" ],
					"patching_rect" : [ 329.0, 16.0, 158.0, 22.0 ],
					"text" : "loadmess 74 :incr :up 36 20"
				}

			}
, 			{
				"box" : 				{
					"id" : "obj-9",
					"maxclass" : "newobj",
					"numinlets" : 1,
					"numoutlets" : 6,
					"outlettype" : [ "", "", "", "", "", "" ],
					"patching_rect" : [ 100.0, 44.0, 201.0, 22.0 ],
					"text" : "unjoin 5"
				}

			}
, 			{
				"box" : 				{
					"id" : "obj-5",
					"maxclass" : "newobj",
					"numinlets" : 1,
					"numoutlets" : 1,
					"outlettype" : [ "" ],
					"patching_rect" : [ 100.0, 16.0, 169.0, 22.0 ],
					"text" : "loadmess 100 :decr :up 36 20"
				}

			}
, 			{
				"box" : 				{
					"bgmode" : 1,
					"border" : 1,
					"clickthrough" : 0,
					"enablehscroll" : 0,
					"enablevscroll" : 0,
					"id" : "obj-30",
					"lockeddragscroll" : 0,
					"lockedsize" : 0,
					"maxclass" : "bpatcher",
					"name" : "chreode.eval-chreodes.maxpat",
					"numinlets" : 3,
					"numoutlets" : 1,
					"offset" : [ 0.0, 0.0 ],
					"outlettype" : [ "" ],
					"patching_rect" : [ 50.0, 283.0, 119.0, 57.0 ],
					"varname" : "bp662048130054",
					"viewvisibility" : 1
				}

			}
, 			{
				"box" : 				{
					"bgmode" : 1,
					"border" : 1,
					"clickthrough" : 0,
					"enablehscroll" : 0,
					"enablevscroll" : 0,
					"id" : "obj-29",
					"lockeddragscroll" : 0,
					"lockedsize" : 0,
					"maxclass" : "bpatcher",
					"name" : "chreode.plot_view.maxpat",
					"numinlets" : 1,
					"numoutlets" : 1,
					"offset" : [ 0.0, 0.0 ],
					"outlettype" : [ "" ],
					"patching_rect" : [ 50.0, 354.0, 214.0, 32.0 ],
					"varname" : "chreode.plot_view",
					"viewvisibility" : 1
				}

			}
, 			{
				"box" : 				{
					"id" : "obj-28",
					"maxclass" : "plot~",
					"numinlets" : 1,
					"numoutlets" : 1,
					"numpoints" : 1001,
					"outlettype" : [ "" ],
					"patching_rect" : [ 50.0, 394.0, 345.0, 145.0 ],
					"subplots" : [ 						{
							"color" : [ 0.400000005960464, 0.400000005960464, 0.75, 1.0 ],
							"thickness" : 0.850000023841858,
							"point_style" : "none",
							"line_style" : "lines",
							"number_style" : "none",
							"filter" : "none",
							"domain_start" : 0.0,
							"domain_end" : 1.0,
							"domain_style" : "linear",
							"domain_markers" : [  ],
							"domain_labels" : [  ],
							"range_start" : 16.276882000000001,
							"range_end" : 56.0,
							"range_style" : "linear",
							"range_markers" : [  ],
							"range_labels" : [  ],
							"origin_x" : 0.0,
							"origin_y" : 0.0
						}
 ]
				}

			}
, 			{
				"box" : 				{
					"bgmode" : 1,
					"border" : 1,
					"clickthrough" : 0,
					"enablehscroll" : 0,
					"enablevscroll" : 0,
					"id" : "obj-16",
					"lockeddragscroll" : 0,
					"lockedsize" : 0,
					"maxclass" : "bpatcher",
					"name" : "chreode.get-values.maxpat",
					"numinlets" : 2,
					"numoutlets" : 1,
					"offset" : [ 0.0, 0.0 ],
					"outlettype" : [ "" ],
					"patching_rect" : [ 100.0, 184.0, 93.0, 32.0 ],
					"varname" : "bp943409641020",
					"viewvisibility" : 1
				}

			}
, 			{
				"box" : 				{
					"bgmode" : 1,
					"border" : 1,
					"clickthrough" : 0,
					"enablehscroll" : 0,
					"enablevscroll" : 0,
					"id" : "obj-17",
					"lockeddragscroll" : 0,
					"lockedsize" : 0,
					"maxclass" : "bpatcher",
					"name" : "chreode.arithm-ser.maxpat",
					"numinlets" : 3,
					"numoutlets" : 1,
					"offset" : [ 0.0, 0.0 ],
					"outlettype" : [ "" ],
					"patching_rect" : [ 329.0, 125.0, 201.0, 70.0 ],
					"varname" : "arithm-ser",
					"viewvisibility" : 1
				}

			}
, 			{
				"box" : 				{
					"bgmode" : 1,
					"border" : 1,
					"clickthrough" : 0,
					"enablehscroll" : 0,
					"enablevscroll" : 0,
					"id" : "obj-15",
					"lockeddragscroll" : 0,
					"lockedsize" : 0,
					"maxclass" : "bpatcher",
					"name" : "chreode.make-flip.maxpat",
					"numinlets" : 20,
					"numoutlets" : 1,
					"offset" : [ 0.0, 0.0 ],
					"outlettype" : [ "" ],
					"patching_rect" : [ 100.0, 125.0, 201.0, 32.0 ],
					"varname" : "bp194936732352",
					"viewvisibility" : 1
				}

			}
 ],
		"lines" : [ 			{
				"patchline" : 				{
					"destination" : [ "obj-15", 3 ],
					"midpoints" : [ 109.5, 116.0, 138.23684210526315, 116.0 ],
					"source" : [ "obj-1", 0 ]
				}

			}
, 			{
				"patchline" : 				{
					"destination" : [ "obj-4", 4 ],
					"source" : [ "obj-10", 4 ]
				}

			}
, 			{
				"patchline" : 				{
					"destination" : [ "obj-4", 3 ],
					"source" : [ "obj-10", 3 ]
				}

			}
, 			{
				"patchline" : 				{
					"destination" : [ "obj-4", 2 ],
					"source" : [ "obj-10", 2 ]
				}

			}
, 			{
				"patchline" : 				{
					"destination" : [ "obj-4", 1 ],
					"source" : [ "obj-10", 1 ]
				}

			}
, 			{
				"patchline" : 				{
					"destination" : [ "obj-4", 0 ],
					"source" : [ "obj-10", 0 ]
				}

			}
, 			{
				"patchline" : 				{
					"destination" : [ "obj-10", 0 ],
					"source" : [ "obj-11", 0 ]
				}

			}
, 			{
				"patchline" : 				{
					"destination" : [ "obj-21", 0 ],
					"source" : [ "obj-13", 0 ]
				}

			}
, 			{
				"patchline" : 				{
					"destination" : [ "obj-18", 0 ],
					"source" : [ "obj-14", 0 ]
				}

			}
, 			{
				"patchline" : 				{
					"destination" : [ "obj-16", 0 ],
					"source" : [ "obj-15", 0 ]
				}

			}
, 			{
				"patchline" : 				{
					"destination" : [ "obj-30", 1 ],
					"source" : [ "obj-16", 0 ]
				}

			}
, 			{
				"patchline" : 				{
					"destination" : [ "obj-16", 1 ],
					"midpoints" : [ 338.5, 205.0, 261.0, 205.0, 261.0, 173.0, 183.5, 173.0 ],
					"source" : [ "obj-17", 0 ]
				}

			}
, 			{
				"patchline" : 				{
					"destination" : [ "obj-21", 0 ],
					"source" : [ "obj-18", 0 ]
				}

			}
, 			{
				"patchline" : 				{
					"destination" : [ "obj-20", 0 ],
					"source" : [ "obj-19", 0 ]
				}

			}
, 			{
				"patchline" : 				{
					"destination" : [ "obj-29", 0 ],
					"hidden" : 1,
					"source" : [ "obj-2", 0 ]
				}

			}
, 			{
				"patchline" : 				{
					"destination" : [ "obj-27", 0 ],
					"source" : [ "obj-21", 1 ]
				}

			}
, 			{
				"patchline" : 				{
					"destination" : [ "obj-30", 0 ],
					"midpoints" : [ 23.5, 271.0, 59.5, 271.0 ],
					"source" : [ "obj-22", 0 ]
				}

			}
, 			{
				"patchline" : 				{
					"destination" : [ "obj-20", 0 ],
					"source" : [ "obj-23", 0 ]
				}

			}
, 			{
				"patchline" : 				{
					"destination" : [ "obj-1", 0 ],
					"hidden" : 1,
					"order" : 1,
					"source" : [ "obj-24", 0 ]
				}

			}
, 			{
				"patchline" : 				{
					"destination" : [ "obj-4", 0 ],
					"hidden" : 1,
					"order" : 0,
					"source" : [ "obj-24", 0 ]
				}

			}
, 			{
				"patchline" : 				{
					"destination" : [ "obj-20", 0 ],
					"source" : [ "obj-26", 0 ]
				}

			}
, 			{
				"patchline" : 				{
					"destination" : [ "obj-25", 0 ],
					"source" : [ "obj-27", 0 ]
				}

			}
, 			{
				"patchline" : 				{
					"destination" : [ "obj-28", 0 ],
					"source" : [ "obj-29", 0 ]
				}

			}
, 			{
				"patchline" : 				{
					"destination" : [ "obj-20", 0 ],
					"source" : [ "obj-3", 0 ]
				}

			}
, 			{
				"patchline" : 				{
					"destination" : [ "obj-29", 0 ],
					"source" : [ "obj-30", 0 ]
				}

			}
, 			{
				"patchline" : 				{
					"destination" : [ "obj-30", 0 ],
					"source" : [ "obj-33", 0 ]
				}

			}
, 			{
				"patchline" : 				{
					"destination" : [ "obj-15", 14 ],
					"midpoints" : [ 338.5, 116.0, 243.60526315789474, 116.0 ],
					"source" : [ "obj-4", 0 ]
				}

			}
, 			{
				"patchline" : 				{
					"destination" : [ "obj-9", 0 ],
					"source" : [ "obj-5", 0 ]
				}

			}
, 			{
				"patchline" : 				{
					"destination" : [ "obj-21", 0 ],
					"source" : [ "obj-6", 0 ]
				}

			}
, 			{
				"patchline" : 				{
					"destination" : [ "obj-20", 0 ],
					"source" : [ "obj-7", 0 ]
				}

			}
, 			{
				"patchline" : 				{
					"destination" : [ "obj-20", 0 ],
					"source" : [ "obj-8", 0 ]
				}

			}
, 			{
				"patchline" : 				{
					"destination" : [ "obj-1", 4 ],
					"source" : [ "obj-9", 4 ]
				}

			}
, 			{
				"patchline" : 				{
					"destination" : [ "obj-1", 3 ],
					"source" : [ "obj-9", 3 ]
				}

			}
, 			{
				"patchline" : 				{
					"destination" : [ "obj-1", 2 ],
					"source" : [ "obj-9", 2 ]
				}

			}
, 			{
				"patchline" : 				{
					"destination" : [ "obj-1", 1 ],
					"source" : [ "obj-9", 1 ]
				}

			}
, 			{
				"patchline" : 				{
					"destination" : [ "obj-1", 0 ],
					"source" : [ "obj-9", 0 ]
				}

			}
 ],
		"dependency_cache" : [ 			{
				"name" : "Chreode-6-Chreode-presets.json",
				"bootpath" : "~/Documents/Max 8/Packages/MOZLib/help/Tutorials/PWforMax Libraries/Chreode&Transkaija/zOriginal-tutorials",
				"patcherrelativepath" : ".",
				"type" : "JSON",
				"implicit" : 1
			}
, 			{
				"name" : "bach.args.mxo",
				"type" : "iLaX"
			}
, 			{
				"name" : "bach.arithmser.mxo",
				"type" : "iLaX"
			}
, 			{
				"name" : "bach.belong.maxpat",
				"bootpath" : "~/Documents/Max 8/Packages/bach/patchers",
				"patcherrelativepath" : "../../../../../../bach/patchers",
				"type" : "JSON",
				"implicit" : 1
			}
, 			{
				"name" : "bach.eq.mxo",
				"type" : "iLaX"
			}
, 			{
				"name" : "bach.expr.mxo",
				"type" : "iLaX"
			}
, 			{
				"name" : "bach.filternull.maxpat",
				"bootpath" : "~/Documents/Max 8/Packages/bach/patchers",
				"patcherrelativepath" : "../../../../../../bach/patchers",
				"type" : "JSON",
				"implicit" : 1
			}
, 			{
				"name" : "bach.find.mxo",
				"type" : "iLaX"
			}
, 			{
				"name" : "bach.flat.mxo",
				"type" : "iLaX"
			}
, 			{
				"name" : "bach.group.mxo",
				"type" : "iLaX"
			}
, 			{
				"name" : "bach.intersection.mxo",
				"type" : "iLaX"
			}
, 			{
				"name" : "bach.iter.mxo",
				"type" : "iLaX"
			}
, 			{
				"name" : "bach.join.mxo",
				"type" : "iLaX"
			}
, 			{
				"name" : "bach.keys.mxo",
				"type" : "iLaX"
			}
, 			{
				"name" : "bach.length.mxo",
				"type" : "iLaX"
			}
, 			{
				"name" : "bach.lookup.maxpat",
				"bootpath" : "~/Documents/Max 8/Packages/bach/patchers",
				"patcherrelativepath" : "../../../../../../bach/patchers",
				"type" : "JSON",
				"implicit" : 1
			}
, 			{
				"name" : "bach.mapelem.mxo",
				"type" : "iLaX"
			}
, 			{
				"name" : "bach.nth.mxo",
				"type" : "iLaX"
			}
, 			{
				"name" : "bach.portal.mxo",
				"type" : "iLaX"
			}
, 			{
				"name" : "bach.read.mxo",
				"type" : "iLaX"
			}
, 			{
				"name" : "bach.reg.mxo",
				"type" : "iLaX"
			}
, 			{
				"name" : "bach.rminus.maxpat",
				"bootpath" : "~/Documents/Max 8/Packages/bach/patchers",
				"patcherrelativepath" : "../../../../../../bach/patchers",
				"type" : "JSON",
				"implicit" : 1
			}
, 			{
				"name" : "bach.slice.mxo",
				"type" : "iLaX"
			}
, 			{
				"name" : "bach.thin.mxo",
				"type" : "iLaX"
			}
, 			{
				"name" : "bach.write.mxo",
				"type" : "iLaX"
			}
, 			{
				"name" : "bpatcher-resize-gizmo.maxpat",
				"bootpath" : "~/Documents/Max 8/Packages/MOZLib/patchers/utilities",
				"patcherrelativepath" : "../../../../../patchers/utilities",
				"type" : "JSON",
				"implicit" : 1
			}
, 			{
				"name" : "bpatcher-resize.js",
				"bootpath" : "~/Documents/Max 8/Packages/MOZLib/patchers/utilities",
				"patcherrelativepath" : "../../../../../patchers/utilities",
				"type" : "TEXT",
				"implicit" : 1
			}
, 			{
				"name" : "chreode.arithm-ser.maxpat",
				"bootpath" : "~/Documents/Max 8/Packages/MOZLib/patchers/pw4m_chreode&transkaija",
				"patcherrelativepath" : "../../../../../patchers/pw4m_chreode&transkaija",
				"type" : "JSON",
				"implicit" : 1
			}
, 			{
				"name" : "chreode.eval-chreodes.maxpat",
				"bootpath" : "~/Documents/Max 8/Packages/MOZLib/patchers/pw4m_chreode&transkaija",
				"patcherrelativepath" : "../../../../../patchers/pw4m_chreode&transkaija",
				"type" : "JSON",
				"implicit" : 1
			}
, 			{
				"name" : "chreode.get-values.maxpat",
				"bootpath" : "~/Documents/Max 8/Packages/MOZLib/patchers/pw4m_chreode&transkaija",
				"patcherrelativepath" : "../../../../../patchers/pw4m_chreode&transkaija",
				"type" : "JSON",
				"implicit" : 1
			}
, 			{
				"name" : "chreode.make-chreode.maxpat",
				"bootpath" : "~/Documents/Max 8/Packages/MOZLib/patchers/pw4m_chreode&transkaija",
				"patcherrelativepath" : "../../../../../patchers/pw4m_chreode&transkaija",
				"type" : "JSON",
				"implicit" : 1
			}
, 			{
				"name" : "chreode.make-flip.maxpat",
				"bootpath" : "~/Documents/Max 8/Packages/MOZLib/patchers/pw4m_chreode&transkaija",
				"patcherrelativepath" : "../../../../../patchers/pw4m_chreode&transkaija",
				"type" : "JSON",
				"implicit" : 1
			}
, 			{
				"name" : "chreode.plot_view.maxpat",
				"bootpath" : "~/Documents/Max 8/Packages/MOZLib/patchers/pw4m_chreode&transkaija",
				"patcherrelativepath" : "../../../../../patchers/pw4m_chreode&transkaija",
				"type" : "JSON",
				"implicit" : 1
			}
, 			{
				"name" : "erase.png",
				"bootpath" : "~/Documents/Max 8/Packages/MOZLib/media",
				"patcherrelativepath" : "../../../../../media",
				"type" : "PNG",
				"implicit" : 1
			}
, 			{
				"name" : "help.png",
				"bootpath" : "~/Documents/Max 8/Packages/MOZLib/media",
				"patcherrelativepath" : "../../../../../media",
				"type" : "PNG",
				"implicit" : 1
			}
, 			{
				"name" : "key_trigger.maxpat",
				"bootpath" : "~/Documents/Max 8/Packages/MOZLib/patchers/utilities",
				"patcherrelativepath" : "../../../../../patchers/utilities",
				"type" : "JSON",
				"implicit" : 1
			}
, 			{
				"name" : "lisp.expr.maxpat",
				"bootpath" : "~/Documents/Max 8/Packages/MOZLib/patchers/pw4m_lisp_scripting_boxes",
				"patcherrelativepath" : "../../../../../patchers/pw4m_lisp_scripting_boxes",
				"type" : "JSON",
				"implicit" : 1
			}
, 			{
				"name" : "lisp.quickeval.maxpat",
				"bootpath" : "~/Documents/Max 8/Packages/MOZLib/patchers/pw4m_lisp_scripting_boxes",
				"patcherrelativepath" : "../../../../../patchers/pw4m_lisp_scripting_boxes",
				"type" : "JSON",
				"implicit" : 1
			}
, 			{
				"name" : "lisp.quote.maxpat",
				"bootpath" : "~/Documents/Max 8/Packages/MOZLib/patchers/pw4m_lisp_scripting_boxes",
				"patcherrelativepath" : "../../../../../patchers/pw4m_lisp_scripting_boxes",
				"type" : "JSON",
				"implicit" : 1
			}
, 			{
				"name" : "mac_or_win.maxpat",
				"bootpath" : "~/Documents/Max 8/Packages/MOZLib/patchers/pw4m_lisp",
				"patcherrelativepath" : "../../../../../patchers/pw4m_lisp",
				"type" : "JSON",
				"implicit" : 1
			}
, 			{
				"name" : "make_path_once.maxpat",
				"bootpath" : "~/Documents/Max 8/Packages/MOZLib/patchers/pw4m_lisp",
				"patcherrelativepath" : "../../../../../patchers/pw4m_lisp",
				"type" : "JSON",
				"implicit" : 1
			}
, 			{
				"name" : "moz.init-unless.maxpat",
				"bootpath" : "~/Documents/Max 8/Packages/MOZLib/patchers/utilities",
				"patcherrelativepath" : "../../../../../patchers/utilities",
				"type" : "JSON",
				"implicit" : 1
			}
, 			{
				"name" : "parentname.js",
				"bootpath" : "~/Documents/Max 8/Packages/MOZLib/patchers/pw4m_chreode&transkaija",
				"patcherrelativepath" : "../../../../../patchers/pw4m_chreode&transkaija",
				"type" : "TEXT",
				"implicit" : 1
			}
, 			{
				"name" : "pw.eval-box.maxpat",
				"bootpath" : "~/Documents/Max 8/Packages/MOZLib/patchers/pw4m_lisp",
				"patcherrelativepath" : "../../../../../patchers/pw4m_lisp",
				"type" : "JSON",
				"implicit" : 1
			}
, 			{
				"name" : "shell.mxo",
				"type" : "iLaX"
			}
, 			{
				"name" : "thru.maxpat",
				"bootpath" : "C74:/patchers/m4l/Pluggo for Live resources/patches",
				"type" : "JSON",
				"implicit" : 1
			}
 ],
		"autosave" : 0,
		"styles" : [ 			{
				"name" : "orjan style",
				"default" : 				{
					"accentcolor" : [ 0.65098, 0.666667, 0.662745, 1.0 ],
					"bgcolor" : [ 0.97911, 0.963068, 0.9712, 1.0 ],
					"bgfillcolor" : 					{
						"angle" : 270.0,
						"autogradient" : 0,
						"color" : [ 0.290196, 0.309804, 0.301961, 1.0 ],
						"color1" : [ 1.0, 1.0, 1.0, 1.0 ],
						"color2" : [ 0.862745, 0.870588, 0.878431, 1.0 ],
						"proportion" : 0.39,
						"type" : "gradient"
					}
,
					"color" : [ 0.037449, 0.035848, 0.03644, 1.0 ],
					"elementcolor" : [ 0.898251, 0.915112, 0.965693, 1.0 ],
					"textcolor_inverse" : [ 0.0, 0.0, 0.0, 1.0 ]
				}
,
				"parentstyle" : "",
				"multi" : 0
			}
 ]
	}

}
