{
	"patcher" : 	{
		"fileversion" : 1,
		"appversion" : 		{
			"major" : 8,
			"minor" : 3,
			"revision" : 1,
			"architecture" : "x64",
			"modernui" : 1
		}
,
		"classnamespace" : "box",
		"rect" : [ 34.0, 79.0, 892.0, 787.0 ],
		"bglocked" : 0,
		"openinpresentation" : 0,
		"default_fontsize" : 12.0,
		"default_fontface" : 0,
		"default_fontname" : "Arial",
		"gridonopen" : 1,
		"gridsize" : [ 15.0, 15.0 ],
		"gridsnaponopen" : 1,
		"objectsnaponopen" : 1,
		"statusbarvisible" : 2,
		"toolbarvisible" : 1,
		"lefttoolbarpinned" : 0,
		"toptoolbarpinned" : 0,
		"righttoolbarpinned" : 0,
		"bottomtoolbarpinned" : 0,
		"toolbars_unpinned_last_save" : 0,
		"tallnewobj" : 0,
		"boxanimatetime" : 200,
		"enablehscroll" : 1,
		"enablevscroll" : 1,
		"devicewidth" : 0.0,
		"description" : "",
		"digest" : "",
		"tags" : "",
		"style" : "",
		"subpatcher_template" : "",
		"assistshowspatchername" : 0,
		"boxes" : [ 			{
				"box" : 				{
					"id" : "obj-7",
					"maxclass" : "newobj",
					"numinlets" : 1,
					"numoutlets" : 1,
					"outlettype" : [ "bang" ],
					"patching_rect" : [ 257.0, 53.0, 68.0, 22.0 ],
					"text" : "key_trigger"
				}

			}
, 			{
				"box" : 				{
					"id" : "obj-3",
					"maxclass" : "button",
					"numinlets" : 1,
					"numoutlets" : 1,
					"outlettype" : [ "bang" ],
					"parameter_enable" : 0,
					"patching_rect" : [ 28.0, 228.0, 24.0, 24.0 ]
				}

			}
, 			{
				"box" : 				{
					"id" : "obj-98",
					"maxclass" : "newobj",
					"numinlets" : 1,
					"numoutlets" : 2,
					"outlettype" : [ "bang", "bang" ],
					"patching_rect" : [ 256.0, 396.0, 345.5, 22.0 ],
					"text" : "t b b"
				}

			}
, 			{
				"box" : 				{
					"fontface" : 2,
					"fontsize" : 24.773711648791299,
					"id" : "obj-97",
					"maxclass" : "comment",
					"numinlets" : 1,
					"numoutlets" : 0,
					"patching_rect" : [ 299.5, 21.0, 579.0, 34.0 ],
					"text" : "with engine_v0.1_June15-2022 in core",
					"textcolor" : [ 1.0, 0.0, 0.0, 1.0 ]
				}

			}
, 			{
				"box" : 				{
					"id" : "obj-95",
					"maxclass" : "comment",
					"numinlets" : 1,
					"numoutlets" : 0,
					"patching_rect" : [ 580.0, 147.0, 57.0, 20.0 ],
					"text" : "with print"
				}

			}
, 			{
				"box" : 				{
					"id" : "obj-93",
					"maxclass" : "newobj",
					"numinlets" : 2,
					"numoutlets" : 1,
					"outlettype" : [ "" ],
					"patching_rect" : [ 450.0, 147.0, 117.0, 22.0 ],
					"reg_data_0000000000" : [ "[", "list", "[", "cl-user::format-indexrule", "#'", "[", "lambda", "[", "x", "y", "]", "[", "=", "[", "-", "x", "y", "]", 1, "]", "]", "'", "[", 1, 2, "]", "]", "[", "cl-user::format-wildcardrule", "#'", "[", "lambda", "[", "y", "]", "[", "progn", "[", "incf", "*rulecounter*", "]", "[", "print", "*rulecounter*", "]", "t", "]", "]", "'", "[", 0, "]", "]", "[", "cl-user::format-wildcardrule", "#'", "[", "lambda", "[", "x", "y", "]", "[", ">", "[", "-", "x", "y", "]", 0, "]", "]", "'", "[", 0, 2, "]", "]", "]" ],
					"reg_data_count" : [ 1 ],
					"saved_object_attributes" : 					{
						"embed" : 1,
						"versionnumber" : 80105
					}
,
					"text" : "bach.reg @embed 1"
				}

			}
, 			{
				"box" : 				{
					"id" : "obj-92",
					"maxclass" : "newobj",
					"numinlets" : 1,
					"numoutlets" : 3,
					"outlettype" : [ "bang", "bang", "bang" ],
					"patching_rect" : [ 202.0, 81.0, 240.0, 22.0 ],
					"text" : "t b b b"
				}

			}
, 			{
				"box" : 				{
					"id" : "obj-91",
					"maxclass" : "button",
					"numinlets" : 1,
					"numoutlets" : 1,
					"outlettype" : [ "bang" ],
					"parameter_enable" : 0,
					"patching_rect" : [ 202.0, 40.0, 24.0, 24.0 ]
				}

			}
, 			{
				"box" : 				{
					"id" : "obj-89",
					"maxclass" : "comment",
					"numinlets" : 1,
					"numoutlets" : 0,
					"patching_rect" : [ 264.0, 200.0, 115.0, 20.0 ],
					"text" : "add *rule-counter* 0"
				}

			}
, 			{
				"box" : 				{
					"id" : "obj-86",
					"maxclass" : "newobj",
					"numinlets" : 1,
					"numoutlets" : 1,
					"outlettype" : [ "bang" ],
					"patching_rect" : [ 202.333333333333314, 200.0, 58.0, 22.0 ],
					"text" : "loadbang"
				}

			}
, 			{
				"box" : 				{
					"id" : "obj-87",
					"maxclass" : "newobj",
					"numinlets" : 2,
					"numoutlets" : 1,
					"outlettype" : [ "" ],
					"patching_rect" : [ 202.333333333333314, 226.0, 117.0, 22.0 ],
					"reg_data_0000000000" : [ "[", "defvar", "*rulecounter*", 0, "]" ],
					"reg_data_count" : [ 1 ],
					"saved_object_attributes" : 					{
						"embed" : 1,
						"versionnumber" : 80102
					}
,
					"text" : "bach.reg @embed 1"
				}

			}
, 			{
				"box" : 				{
					"id" : "obj-88",
					"maxclass" : "newobj",
					"numinlets" : 1,
					"numoutlets" : 1,
					"outlettype" : [ "" ],
					"patching_rect" : [ 202.333333333333314, 253.099514563106709, 127.0, 22.0 ],
					"text" : "prepend code_snippet"
				}

			}
, 			{
				"box" : 				{
					"id" : "obj-85",
					"maxclass" : "comment",
					"numinlets" : 1,
					"numoutlets" : 0,
					"patching_rect" : [ 473.0, 605.0, 115.0, 20.0 ],
					"text" : "add *rule-counter* 0"
				}

			}
, 			{
				"box" : 				{
					"id" : "obj-83",
					"maxclass" : "newobj",
					"numinlets" : 1,
					"numoutlets" : 1,
					"outlettype" : [ "" ],
					"patching_rect" : [ 94.0, 276.0, 93.0, 22.0 ],
					"saved_object_attributes" : 					{
						"versionnumber" : 80105
					}
,
					"text" : "bach.flat @out t"
				}

			}
, 			{
				"box" : 				{
					"id" : "obj-80",
					"maxclass" : "message",
					"numinlets" : 2,
					"numoutlets" : 1,
					"outlettype" : [ "" ],
					"patching_rect" : [ 582.5, 684.099514563106709, 29.5, 22.0 ],
					"text" : "set"
				}

			}
, 			{
				"box" : 				{
					"id" : "obj-79",
					"maxclass" : "message",
					"numinlets" : 2,
					"numoutlets" : 1,
					"outlettype" : [ "" ],
					"patching_rect" : [ 343.0, 261.0, 29.5, 22.0 ],
					"text" : "set"
				}

			}
, 			{
				"box" : 				{
					"id" : "obj-76",
					"maxclass" : "newobj",
					"numinlets" : 1,
					"numoutlets" : 1,
					"outlettype" : [ "bang" ],
					"patching_rect" : [ 368.875, 553.0, 58.0, 22.0 ],
					"text" : "loadbang"
				}

			}
, 			{
				"box" : 				{
					"id" : "obj-75",
					"maxclass" : "message",
					"numinlets" : 2,
					"numoutlets" : 1,
					"outlettype" : [ "" ],
					"patching_rect" : [ 368.875, 577.0, 49.0, 22.0 ],
					"text" : "rand? 0"
				}

			}
, 			{
				"box" : 				{
					"id" : "obj-73",
					"maxclass" : "button",
					"numinlets" : 1,
					"numoutlets" : 1,
					"outlettype" : [ "bang" ],
					"parameter_enable" : 0,
					"patching_rect" : [ 429.5, 642.0, 24.0, 24.0 ]
				}

			}
, 			{
				"box" : 				{
					"id" : "obj-71",
					"maxclass" : "newobj",
					"numinlets" : 1,
					"numoutlets" : 1,
					"outlettype" : [ "bang" ],
					"patching_rect" : [ 450.0, 501.900485436893291, 58.0, 22.0 ],
					"text" : "loadbang"
				}

			}
, 			{
				"box" : 				{
					"id" : "obj-68",
					"maxclass" : "newobj",
					"numinlets" : 2,
					"numoutlets" : 1,
					"outlettype" : [ "" ],
					"patching_rect" : [ 450.0, 540.900485436893291, 117.0, 22.0 ],
					"reg_data_0000000000" : [ "[", "defvar", "*rulecounter*", 0, "]" ],
					"reg_data_count" : [ 1 ],
					"saved_object_attributes" : 					{
						"embed" : 1,
						"versionnumber" : 80102
					}
,
					"text" : "bach.reg @embed 1"
				}

			}
, 			{
				"box" : 				{
					"id" : "obj-1",
					"maxclass" : "newobj",
					"numinlets" : 1,
					"numoutlets" : 1,
					"outlettype" : [ "" ],
					"patching_rect" : [ 450.0, 577.0, 127.0, 22.0 ],
					"text" : "prepend code_snippet"
				}

			}
, 			{
				"box" : 				{
					"fontsize" : 27.816948802908193,
					"id" : "obj-66",
					"maxclass" : "newobj",
					"numinlets" : 1,
					"numoutlets" : 1,
					"outlettype" : [ "" ],
					"patcher" : 					{
						"fileversion" : 1,
						"appversion" : 						{
							"major" : 8,
							"minor" : 3,
							"revision" : 1,
							"architecture" : "x64",
							"modernui" : 1
						}
,
						"classnamespace" : "box",
						"rect" : [ 754.0, 79.0, 652.0, 787.0 ],
						"bglocked" : 0,
						"openinpresentation" : 0,
						"default_fontsize" : 12.0,
						"default_fontface" : 0,
						"default_fontname" : "Arial",
						"gridonopen" : 1,
						"gridsize" : [ 15.0, 15.0 ],
						"gridsnaponopen" : 1,
						"objectsnaponopen" : 1,
						"statusbarvisible" : 2,
						"toolbarvisible" : 1,
						"lefttoolbarpinned" : 0,
						"toptoolbarpinned" : 0,
						"righttoolbarpinned" : 0,
						"bottomtoolbarpinned" : 0,
						"toolbars_unpinned_last_save" : 0,
						"tallnewobj" : 0,
						"boxanimatetime" : 200,
						"enablehscroll" : 1,
						"enablevscroll" : 1,
						"devicewidth" : 0.0,
						"description" : "",
						"digest" : "",
						"tags" : "",
						"style" : "",
						"subpatcher_template" : "",
						"assistshowspatchername" : 0,
						"boxes" : [ 							{
								"box" : 								{
									"id" : "obj-2",
									"maxclass" : "newobj",
									"numinlets" : 1,
									"numoutlets" : 1,
									"outlettype" : [ "" ],
									"patching_rect" : [ 114.0, 251.0, 111.0, 22.0 ],
									"text" : "loadmess bypass 1"
								}

							}
, 							{
								"box" : 								{
									"id" : "obj-8",
									"maxclass" : "message",
									"numinlets" : 2,
									"numoutlets" : 1,
									"outlettype" : [ "" ],
									"patching_rect" : [ 270.0, 483.0, 243.0, 22.0 ],
									"text" : "(omcs::* ?1 ?2 ?3 (omcs::?if (> (- ?1 ?3) 0)))"
								}

							}
, 							{
								"box" : 								{
									"id" : "obj-9",
									"maxclass" : "newobj",
									"numinlets" : 1,
									"numoutlets" : 1,
									"outlettype" : [ "bang" ],
									"patching_rect" : [ 270.0, 450.0, 58.0, 22.0 ],
									"text" : "loadbang"
								}

							}
, 							{
								"box" : 								{
									"bgmode" : 1,
									"border" : 1,
									"clickthrough" : 0,
									"enablehscroll" : 0,
									"enablevscroll" : 0,
									"id" : "obj-7",
									"lockeddragscroll" : 0,
									"lockedsize" : 0,
									"maxclass" : "bpatcher",
									"name" : "pmc.rule.maxpat",
									"numinlets" : 2,
									"numoutlets" : 2,
									"offset" : [ 0.0, 0.0 ],
									"outlettype" : [ "", "" ],
									"patching_rect" : [ 50.0, 526.0, 305.0, 79.0 ],
									"varname" : "pmc.rule[3]",
									"viewvisibility" : 1
								}

							}
, 							{
								"box" : 								{
									"id" : "obj-5",
									"maxclass" : "message",
									"numinlets" : 2,
									"numoutlets" : 1,
									"outlettype" : [ "" ],
									"patching_rect" : [ 246.0, 271.0, 371.0, 22.0 ],
									"text" : "(omcs::* (omcs::?if (progn (incf *rulecounter*)(print *rulecounter*) t)))"
								}

							}
, 							{
								"box" : 								{
									"id" : "obj-6",
									"maxclass" : "newobj",
									"numinlets" : 1,
									"numoutlets" : 1,
									"outlettype" : [ "bang" ],
									"patching_rect" : [ 246.0, 238.0, 58.0, 22.0 ],
									"text" : "loadbang"
								}

							}
, 							{
								"box" : 								{
									"bgmode" : 1,
									"border" : 1,
									"clickthrough" : 0,
									"enablehscroll" : 0,
									"enablevscroll" : 0,
									"id" : "obj-4",
									"lockeddragscroll" : 0,
									"lockedsize" : 0,
									"maxclass" : "bpatcher",
									"name" : "pmc.rule.maxpat",
									"numinlets" : 2,
									"numoutlets" : 2,
									"offset" : [ 0.0, 0.0 ],
									"outlettype" : [ "", "" ],
									"patching_rect" : [ 50.0, 306.0, 305.0, 79.0 ],
									"varname" : "pmc.rule[2]",
									"viewvisibility" : 1
								}

							}
, 							{
								"box" : 								{
									"id" : "obj-3",
									"maxclass" : "message",
									"numinlets" : 2,
									"numoutlets" : 1,
									"outlettype" : [ "" ],
									"patching_rect" : [ 246.0, 79.0, 167.0, 22.0 ],
									"text" : "(i2 i3 (omcs::?if (= (- i2 i3) 1)))"
								}

							}
, 							{
								"box" : 								{
									"id" : "obj-1",
									"maxclass" : "newobj",
									"numinlets" : 1,
									"numoutlets" : 1,
									"outlettype" : [ "bang" ],
									"patching_rect" : [ 246.0, 46.0, 58.0, 22.0 ],
									"text" : "loadbang"
								}

							}
, 							{
								"box" : 								{
									"bgmode" : 1,
									"border" : 1,
									"clickthrough" : 0,
									"enablehscroll" : 0,
									"enablevscroll" : 0,
									"id" : "obj-21",
									"lockeddragscroll" : 0,
									"lockedsize" : 0,
									"maxclass" : "bpatcher",
									"name" : "pmc.rule.maxpat",
									"numinlets" : 2,
									"numoutlets" : 2,
									"offset" : [ 0.0, 0.0 ],
									"outlettype" : [ "", "" ],
									"patching_rect" : [ 50.0, 113.0, 305.0, 79.0 ],
									"varname" : "pmc.rule[1]",
									"viewvisibility" : 1
								}

							}
, 							{
								"box" : 								{
									"comment" : "",
									"id" : "obj-64",
									"index" : 1,
									"maxclass" : "inlet",
									"numinlets" : 0,
									"numoutlets" : 1,
									"outlettype" : [ "" ],
									"patching_rect" : [ 50.0, 40.0, 30.0, 30.0 ]
								}

							}
, 							{
								"box" : 								{
									"comment" : "",
									"id" : "obj-65",
									"index" : 1,
									"maxclass" : "outlet",
									"numinlets" : 1,
									"numoutlets" : 0,
									"patching_rect" : [ 50.0, 746.0, 30.0, 30.0 ]
								}

							}
 ],
						"lines" : [ 							{
								"patchline" : 								{
									"destination" : [ "obj-3", 0 ],
									"source" : [ "obj-1", 0 ]
								}

							}
, 							{
								"patchline" : 								{
									"destination" : [ "obj-4", 0 ],
									"source" : [ "obj-2", 0 ]
								}

							}
, 							{
								"patchline" : 								{
									"destination" : [ "obj-4", 0 ],
									"source" : [ "obj-21", 0 ]
								}

							}
, 							{
								"patchline" : 								{
									"destination" : [ "obj-21", 1 ],
									"source" : [ "obj-3", 0 ]
								}

							}
, 							{
								"patchline" : 								{
									"destination" : [ "obj-7", 0 ],
									"source" : [ "obj-4", 0 ]
								}

							}
, 							{
								"patchline" : 								{
									"destination" : [ "obj-4", 1 ],
									"source" : [ "obj-5", 0 ]
								}

							}
, 							{
								"patchline" : 								{
									"destination" : [ "obj-5", 0 ],
									"source" : [ "obj-6", 0 ]
								}

							}
, 							{
								"patchline" : 								{
									"destination" : [ "obj-21", 0 ],
									"source" : [ "obj-64", 0 ]
								}

							}
, 							{
								"patchline" : 								{
									"destination" : [ "obj-65", 0 ],
									"source" : [ "obj-7", 0 ]
								}

							}
, 							{
								"patchline" : 								{
									"destination" : [ "obj-7", 1 ],
									"source" : [ "obj-8", 0 ]
								}

							}
, 							{
								"patchline" : 								{
									"destination" : [ "obj-8", 0 ],
									"source" : [ "obj-9", 0 ]
								}

							}
 ]
					}
,
					"patching_rect" : [ 256.0, 543.45555555555552, 92.0, 40.0 ],
					"saved_object_attributes" : 					{
						"description" : "",
						"digest" : "",
						"globalpatchername" : "",
						"tags" : ""
					}
,
					"text" : "p rules"
				}

			}
, 			{
				"box" : 				{
					"id" : "obj-63",
					"maxclass" : "message",
					"numinlets" : 2,
					"numoutlets" : 1,
					"outlettype" : [ "" ],
					"patching_rect" : [ 256.0, 729.0, 371.0, 22.0 ],
					"text" : "12 12 11 11 10 10 9 9 8 8 7 7 6 6 5 5 4 4 3 3 2 2 1 1"
				}

			}
, 			{
				"box" : 				{
					"id" : "obj-61",
					"maxclass" : "newobj",
					"numinlets" : 1,
					"numoutlets" : 1,
					"outlettype" : [ "" ],
					"patching_rect" : [ 256.0, 694.0, 93.0, 22.0 ],
					"saved_object_attributes" : 					{
						"versionnumber" : 80105
					}
,
					"text" : "bach.flat @out t"
				}

			}
, 			{
				"box" : 				{
					"id" : "obj-60",
					"maxclass" : "button",
					"numinlets" : 1,
					"numoutlets" : 1,
					"outlettype" : [ "bang" ],
					"parameter_enable" : 0,
					"patching_rect" : [ 256.0, 368.0, 24.0, 24.0 ]
				}

			}
, 			{
				"box" : 				{
					"id" : "obj-58",
					"linecount" : 2,
					"maxclass" : "newobj",
					"numinlets" : 4,
					"numoutlets" : 1,
					"outlettype" : [ "" ],
					"patching_rect" : [ 256.0, 420.0, 85.0, 35.0 ],
					"saved_object_attributes" : 					{
						"versionnumber" : 80105
					}
,
					"text" : "bach.arithmser 1 24 1"
				}

			}
, 			{
				"box" : 				{
					"hidden" : 1,
					"id" : "obj-56",
					"maxclass" : "newobj",
					"numinlets" : 1,
					"numoutlets" : 1,
					"outlettype" : [ "bang" ],
					"patching_rect" : [ 351.0, 403.5, 58.0, 22.0 ],
					"text" : "loadbang"
				}

			}
, 			{
				"box" : 				{
					"hidden" : 1,
					"id" : "obj-55",
					"maxclass" : "message",
					"numinlets" : 2,
					"numoutlets" : 1,
					"outlettype" : [ "" ],
					"patching_rect" : [ 351.0, 433.0, 41.0, 22.0 ],
					"text" : "set 24"
				}

			}
, 			{
				"box" : 				{
					"bgmode" : 1,
					"border" : 1,
					"clickthrough" : 0,
					"enablehscroll" : 0,
					"enablevscroll" : 0,
					"id" : "obj-53",
					"lockeddragscroll" : 0,
					"lockedsize" : 0,
					"maxclass" : "bpatcher",
					"name" : "pmc.engine.maxpat",
					"numinlets" : 2,
					"numoutlets" : 2,
					"offset" : [ -2.0, -4.0 ],
					"outlettype" : [ "", "" ],
					"patching_rect" : [ 256.0, 624.0, 161.875, 60.0 ],
					"viewvisibility" : 1
				}

			}
, 			{
				"box" : 				{
					"bgmode" : 1,
					"border" : 1,
					"clickthrough" : 0,
					"enablehscroll" : 0,
					"enablevscroll" : 0,
					"id" : "obj-13",
					"lockeddragscroll" : 0,
					"lockedsize" : 0,
					"maxclass" : "bpatcher",
					"name" : "pmc.domain.maxpat",
					"numinlets" : 2,
					"numoutlets" : 1,
					"offset" : [ -65.0, -114.0 ],
					"outlettype" : [ "" ],
					"patching_rect" : [ 256.0, 465.0, 107.0, 47.0 ],
					"viewvisibility" : 1
				}

			}
, 			{
				"box" : 				{
					"fontsize" : 19.940204072910539,
					"id" : "obj-51",
					"maxclass" : "comment",
					"numinlets" : 1,
					"numoutlets" : 0,
					"patching_rect" : [ 299.5, 362.0, 161.0, 29.0 ],
					"text" : "equivalent PMC :"
				}

			}
, 			{
				"box" : 				{
					"id" : "obj-50",
					"maxclass" : "comment",
					"numinlets" : 1,
					"numoutlets" : 0,
					"patching_rect" : [ 31.0, 362.0, 109.0, 20.0 ],
					"text" : "performance test : "
				}

			}
, 			{
				"box" : 				{
					"fontface" : 1,
					"id" : "obj-49",
					"linecount" : 4,
					"maxclass" : "comment",
					"numinlets" : 1,
					"numoutlets" : 0,
					"patching_rect" : [ 31.0, 391.0, 181.0, 60.0 ],
					"text" : "if backump disabled (mode1) :\n\n~ 0.7 seconds \n(slightly slower than v2?)"
				}

			}
, 			{
				"box" : 				{
					"fontface" : 1,
					"id" : "obj-48",
					"linecount" : 4,
					"maxclass" : "comment",
					"numinlets" : 1,
					"numoutlets" : 0,
					"patching_rect" : [ 31.0, 471.0, 223.0, 60.0 ],
					"text" : "if backump disabled (mode2) :\nalso ~ 0.7 seconds\n(unlike v2, this one works for me ! maybe because min / max replace?...)",
					"textcolor" : [ 1.0, 0.0, 0.0, 1.0 ]
				}

			}
, 			{
				"box" : 				{
					"id" : "obj-47",
					"maxclass" : "newobj",
					"numinlets" : 1,
					"numoutlets" : 0,
					"patcher" : 					{
						"fileversion" : 1,
						"appversion" : 						{
							"major" : 8,
							"minor" : 3,
							"revision" : 1,
							"architecture" : "x64",
							"modernui" : 1
						}
,
						"classnamespace" : "box",
						"rect" : [ 59.0, 104.0, 861.0, 480.0 ],
						"bglocked" : 0,
						"openinpresentation" : 0,
						"default_fontsize" : 12.0,
						"default_fontface" : 0,
						"default_fontname" : "Arial",
						"gridonopen" : 1,
						"gridsize" : [ 15.0, 15.0 ],
						"gridsnaponopen" : 1,
						"objectsnaponopen" : 1,
						"statusbarvisible" : 2,
						"toolbarvisible" : 1,
						"lefttoolbarpinned" : 0,
						"toptoolbarpinned" : 0,
						"righttoolbarpinned" : 0,
						"bottomtoolbarpinned" : 0,
						"toolbars_unpinned_last_save" : 0,
						"tallnewobj" : 0,
						"boxanimatetime" : 200,
						"enablehscroll" : 1,
						"enablevscroll" : 1,
						"devicewidth" : 0.0,
						"description" : "",
						"digest" : "",
						"tags" : "",
						"style" : "",
						"subpatcher_template" : "",
						"assistshowspatchername" : 0,
						"boxes" : [ 							{
								"box" : 								{
									"id" : "obj-3",
									"maxclass" : "message",
									"numinlets" : 2,
									"numoutlets" : 1,
									"outlettype" : [ "" ],
									"patching_rect" : [ 93.0, 127.0, 712.0, 22.0 ],
									"text" : "open \"/Users/julienvincenot/Documents/Max 8/Packages/MOZLib/sources/___double_click_to_make_new_core.app\""
								}

							}
, 							{
								"box" : 								{
									"id" : "obj-2",
									"maxclass" : "newobj",
									"numinlets" : 1,
									"numoutlets" : 0,
									"patching_rect" : [ 50.0, 191.0, 32.0, 22.0 ],
									"text" : "print"
								}

							}
, 							{
								"box" : 								{
									"id" : "obj-1",
									"maxclass" : "newobj",
									"numinlets" : 1,
									"numoutlets" : 2,
									"outlettype" : [ "", "bang" ],
									"patching_rect" : [ 50.0, 149.0, 33.0, 22.0 ],
									"saved_object_attributes" : 									{
										"shell" : "(default)"
									}
,
									"text" : "shell"
								}

							}
, 							{
								"box" : 								{
									"id" : "obj-45",
									"maxclass" : "message",
									"numinlets" : 2,
									"numoutlets" : 1,
									"outlettype" : [ "" ],
									"patching_rect" : [ 50.0, 90.0, 712.0, 22.0 ],
									"text" : "open \"/Users/julienvincenot/Documents/Max 8/Packages/MOZLib/sources/___double_click_to_make_new_core.app\""
								}

							}
, 							{
								"box" : 								{
									"comment" : "",
									"id" : "obj-46",
									"index" : 1,
									"maxclass" : "inlet",
									"numinlets" : 0,
									"numoutlets" : 1,
									"outlettype" : [ "bang" ],
									"patching_rect" : [ 50.0, 40.0, 30.0, 30.0 ]
								}

							}
 ],
						"lines" : [ 							{
								"patchline" : 								{
									"destination" : [ "obj-2", 0 ],
									"source" : [ "obj-1", 0 ]
								}

							}
, 							{
								"patchline" : 								{
									"destination" : [ "obj-1", 0 ],
									"source" : [ "obj-45", 0 ]
								}

							}
, 							{
								"patchline" : 								{
									"destination" : [ "obj-45", 0 ],
									"source" : [ "obj-46", 0 ]
								}

							}
 ]
					}
,
					"patching_rect" : [ 24.0, 76.5, 107.0, 22.0 ],
					"saved_object_attributes" : 					{
						"description" : "",
						"digest" : "",
						"globalpatchername" : "",
						"tags" : ""
					}
,
					"text" : "p make_new_core"
				}

			}
, 			{
				"box" : 				{
					"id" : "obj-43",
					"maxclass" : "button",
					"numinlets" : 1,
					"numoutlets" : 1,
					"outlettype" : [ "bang" ],
					"parameter_enable" : 0,
					"patching_rect" : [ 24.0, 40.0, 24.0, 24.0 ]
				}

			}
, 			{
				"box" : 				{
					"fontface" : 1,
					"id" : "obj-39",
					"linecount" : 3,
					"maxclass" : "comment",
					"numinlets" : 1,
					"numoutlets" : 0,
					"patching_rect" : [ 31.0, 550.099514563106823, 181.0, 47.0 ],
					"text" : "if backump disabled (mode3) :\n\n~ 5.5-5.9 seconds"
				}

			}
, 			{
				"box" : 				{
					"fontsize" : 20.481091094687866,
					"id" : "obj-37",
					"maxclass" : "comment",
					"numinlets" : 1,
					"numoutlets" : 0,
					"patching_rect" : [ 444.0, 84.428571428571431, 53.0, 29.0 ],
					"text" : "rules"
				}

			}
, 			{
				"box" : 				{
					"id" : "obj-33",
					"maxclass" : "newobj",
					"numinlets" : 1,
					"numoutlets" : 1,
					"outlettype" : [ "" ],
					"patching_rect" : [ 202.333333333333314, 147.0, 70.0, 22.0 ],
					"text" : "lisp.quote 1"
				}

			}
, 			{
				"box" : 				{
					"id" : "obj-32",
					"maxclass" : "newobj",
					"numinlets" : 4,
					"numoutlets" : 1,
					"outlettype" : [ "" ],
					"patching_rect" : [ 202.333333333333314, 117.0, 125.0, 22.0 ],
					"saved_object_attributes" : 					{
						"versionnumber" : 80105
					}
,
					"text" : "bach.arithmser 1 24 1"
				}

			}
, 			{
				"box" : 				{
					"id" : "obj-29",
					"maxclass" : "newobj",
					"numinlets" : 4,
					"numoutlets" : 1,
					"outlettype" : [ "" ],
					"patching_rect" : [ 92.0, 176.0, 428.5, 22.0 ],
					"text" : "lisp.expr cl-user::engine_v0.1 24 candidates 'integer rules @triggers 2"
				}

			}
, 			{
				"box" : 				{
					"id" : "obj-26",
					"maxclass" : "newobj",
					"numinlets" : 1,
					"numoutlets" : 1,
					"outlettype" : [ "" ],
					"patching_rect" : [ 92.0, 205.0, 85.0, 22.0 ],
					"text" : "lisp.expr time l"
				}

			}
, 			{
				"box" : 				{
					"fontface" : 1,
					"id" : "obj-25",
					"maxclass" : "comment",
					"numinlets" : 1,
					"numoutlets" : 0,
					"patching_rect" : [ 31.0, 628.099514563106823, 181.0, 20.0 ],
					"text" : "(mode 4 didn't exist yet)"
				}

			}
, 			{
				"box" : 				{
					"id" : "obj-18",
					"maxclass" : "newobj",
					"numinlets" : 2,
					"numoutlets" : 1,
					"outlettype" : [ "" ],
					"patching_rect" : [ 92.0, 247.0, 80.0, 22.0 ],
					"text" : "lisp.quickeval"
				}

			}
, 			{
				"box" : 				{
					"id" : "obj-15",
					"maxclass" : "message",
					"numinlets" : 2,
					"numoutlets" : 1,
					"outlettype" : [ "" ],
					"patching_rect" : [ 92.0, 322.0, 297.0, 22.0 ],
					"text" : "12 12 11 11 10 10 9 9 8 8 7 7 6 6 5 5 4 4 3 3 2 2 1 1"
				}

			}
, 			{
				"box" : 				{
					"id" : "obj-4",
					"maxclass" : "newobj",
					"numinlets" : 2,
					"numoutlets" : 1,
					"outlettype" : [ "" ],
					"patching_rect" : [ 423.0, 111.0, 117.0, 22.0 ],
					"reg_data_0000000000" : [ "[", "list", "[", "cl-user::format-indexrule", "#'", "[", "lambda", "[", "x", "y", "]", "[", "=", "[", "-", "x", "y", "]", 1, "]", "]", "'", "[", 1, 2, "]", "]", "[", "cl-user::format-wildcardrule", "#'", "[", "lambda", "[", "x", "y", "]", "[", ">", "[", "-", "x", "y", "]", 0, "]", "]", "'", "[", 0, 2, "]", "]", "]" ],
					"reg_data_count" : [ 1 ],
					"saved_object_attributes" : 					{
						"embed" : 1,
						"versionnumber" : 80105
					}
,
					"text" : "bach.reg @embed 1"
				}

			}
 ],
		"lines" : [ 			{
				"patchline" : 				{
					"destination" : [ "obj-53", 0 ],
					"source" : [ "obj-1", 0 ]
				}

			}
, 			{
				"patchline" : 				{
					"destination" : [ "obj-66", 0 ],
					"source" : [ "obj-13", 0 ]
				}

			}
, 			{
				"patchline" : 				{
					"destination" : [ "obj-83", 0 ],
					"source" : [ "obj-18", 0 ]
				}

			}
, 			{
				"patchline" : 				{
					"destination" : [ "obj-18", 0 ],
					"source" : [ "obj-26", 0 ]
				}

			}
, 			{
				"patchline" : 				{
					"destination" : [ "obj-26", 0 ],
					"source" : [ "obj-29", 0 ]
				}

			}
, 			{
				"patchline" : 				{
					"destination" : [ "obj-18", 1 ],
					"source" : [ "obj-3", 0 ]
				}

			}
, 			{
				"patchline" : 				{
					"destination" : [ "obj-33", 0 ],
					"source" : [ "obj-32", 0 ]
				}

			}
, 			{
				"patchline" : 				{
					"destination" : [ "obj-29", 1 ],
					"source" : [ "obj-33", 0 ]
				}

			}
, 			{
				"patchline" : 				{
					"destination" : [ "obj-29", 3 ],
					"source" : [ "obj-4", 0 ]
				}

			}
, 			{
				"patchline" : 				{
					"destination" : [ "obj-47", 0 ],
					"source" : [ "obj-43", 0 ]
				}

			}
, 			{
				"patchline" : 				{
					"destination" : [ "obj-61", 0 ],
					"source" : [ "obj-53", 0 ]
				}

			}
, 			{
				"patchline" : 				{
					"destination" : [ "obj-13", 1 ],
					"hidden" : 1,
					"source" : [ "obj-55", 0 ]
				}

			}
, 			{
				"patchline" : 				{
					"destination" : [ "obj-55", 0 ],
					"hidden" : 1,
					"source" : [ "obj-56", 0 ]
				}

			}
, 			{
				"patchline" : 				{
					"destination" : [ "obj-13", 0 ],
					"source" : [ "obj-58", 0 ]
				}

			}
, 			{
				"patchline" : 				{
					"destination" : [ "obj-98", 0 ],
					"source" : [ "obj-60", 0 ]
				}

			}
, 			{
				"patchline" : 				{
					"destination" : [ "obj-63", 1 ],
					"source" : [ "obj-61", 0 ]
				}

			}
, 			{
				"patchline" : 				{
					"destination" : [ "obj-53", 0 ],
					"source" : [ "obj-66", 0 ]
				}

			}
, 			{
				"patchline" : 				{
					"destination" : [ "obj-1", 0 ],
					"source" : [ "obj-68", 0 ]
				}

			}
, 			{
				"patchline" : 				{
					"destination" : [ "obj-92", 0 ],
					"source" : [ "obj-7", 0 ]
				}

			}
, 			{
				"patchline" : 				{
					"destination" : [ "obj-68", 0 ],
					"source" : [ "obj-71", 0 ]
				}

			}
, 			{
				"patchline" : 				{
					"destination" : [ "obj-53", 1 ],
					"source" : [ "obj-73", 0 ]
				}

			}
, 			{
				"patchline" : 				{
					"destination" : [ "obj-53", 0 ],
					"source" : [ "obj-75", 0 ]
				}

			}
, 			{
				"patchline" : 				{
					"destination" : [ "obj-75", 0 ],
					"source" : [ "obj-76", 0 ]
				}

			}
, 			{
				"patchline" : 				{
					"destination" : [ "obj-15", 0 ],
					"source" : [ "obj-79", 0 ]
				}

			}
, 			{
				"patchline" : 				{
					"destination" : [ "obj-63", 0 ],
					"source" : [ "obj-80", 0 ]
				}

			}
, 			{
				"patchline" : 				{
					"destination" : [ "obj-15", 1 ],
					"source" : [ "obj-83", 0 ]
				}

			}
, 			{
				"patchline" : 				{
					"destination" : [ "obj-87", 0 ],
					"source" : [ "obj-86", 0 ]
				}

			}
, 			{
				"patchline" : 				{
					"destination" : [ "obj-88", 0 ],
					"source" : [ "obj-87", 0 ]
				}

			}
, 			{
				"patchline" : 				{
					"destination" : [ "obj-18", 0 ],
					"source" : [ "obj-88", 0 ]
				}

			}
, 			{
				"patchline" : 				{
					"destination" : [ "obj-92", 0 ],
					"source" : [ "obj-91", 0 ]
				}

			}
, 			{
				"patchline" : 				{
					"destination" : [ "obj-32", 0 ],
					"source" : [ "obj-92", 0 ]
				}

			}
, 			{
				"patchline" : 				{
					"destination" : [ "obj-4", 0 ],
					"source" : [ "obj-92", 2 ]
				}

			}
, 			{
				"patchline" : 				{
					"destination" : [ "obj-79", 0 ],
					"midpoints" : [ 322.0, 110.5, 352.5, 110.5 ],
					"source" : [ "obj-92", 1 ]
				}

			}
, 			{
				"patchline" : 				{
					"destination" : [ "obj-58", 0 ],
					"source" : [ "obj-98", 0 ]
				}

			}
, 			{
				"patchline" : 				{
					"destination" : [ "obj-80", 0 ],
					"source" : [ "obj-98", 1 ]
				}

			}
 ],
		"dependency_cache" : [ 			{
				"name" : "bach.append.mxo",
				"type" : "iLaX"
			}
, 			{
				"name" : "bach.args.mxo",
				"type" : "iLaX"
			}
, 			{
				"name" : "bach.arithmser.mxo",
				"type" : "iLaX"
			}
, 			{
				"name" : "bach.belong.maxpat",
				"bootpath" : "~/Documents/Max 8/Packages/bach/patchers",
				"patcherrelativepath" : "../../../bach/patchers",
				"type" : "JSON",
				"implicit" : 1
			}
, 			{
				"name" : "bach.collect.mxo",
				"type" : "iLaX"
			}
, 			{
				"name" : "bach.eq.mxo",
				"type" : "iLaX"
			}
, 			{
				"name" : "bach.expr.mxo",
				"type" : "iLaX"
			}
, 			{
				"name" : "bach.filternull.maxpat",
				"bootpath" : "~/Documents/Max 8/Packages/bach/patchers",
				"patcherrelativepath" : "../../../bach/patchers",
				"type" : "JSON",
				"implicit" : 1
			}
, 			{
				"name" : "bach.find.mxo",
				"type" : "iLaX"
			}
, 			{
				"name" : "bach.flat.mxo",
				"type" : "iLaX"
			}
, 			{
				"name" : "bach.group.mxo",
				"type" : "iLaX"
			}
, 			{
				"name" : "bach.insert.mxo",
				"type" : "iLaX"
			}
, 			{
				"name" : "bach.interp.maxpat",
				"bootpath" : "~/Documents/Max 8/Packages/bach/patchers",
				"patcherrelativepath" : "../../../bach/patchers",
				"type" : "JSON",
				"implicit" : 1
			}
, 			{
				"name" : "bach.intersection.mxo",
				"type" : "iLaX"
			}
, 			{
				"name" : "bach.iter.mxo",
				"type" : "iLaX"
			}
, 			{
				"name" : "bach.join.mxo",
				"type" : "iLaX"
			}
, 			{
				"name" : "bach.keys.mxo",
				"type" : "iLaX"
			}
, 			{
				"name" : "bach.length.mxo",
				"type" : "iLaX"
			}
, 			{
				"name" : "bach.lookup.maxpat",
				"bootpath" : "~/Documents/Max 8/Packages/bach/patchers",
				"patcherrelativepath" : "../../../bach/patchers",
				"type" : "JSON",
				"implicit" : 1
			}
, 			{
				"name" : "bach.mapelem.mxo",
				"type" : "iLaX"
			}
, 			{
				"name" : "bach.nth.mxo",
				"type" : "iLaX"
			}
, 			{
				"name" : "bach.portal.mxo",
				"type" : "iLaX"
			}
, 			{
				"name" : "bach.prepend.maxpat",
				"bootpath" : "~/Documents/Max 8/Packages/bach/patchers",
				"patcherrelativepath" : "../../../bach/patchers",
				"type" : "JSON",
				"implicit" : 1
			}
, 			{
				"name" : "bach.print.mxo",
				"type" : "iLaX"
			}
, 			{
				"name" : "bach.read.mxo",
				"type" : "iLaX"
			}
, 			{
				"name" : "bach.reg.mxo",
				"type" : "iLaX"
			}
, 			{
				"name" : "bach.repeat.maxpat",
				"bootpath" : "~/Documents/Max 8/Packages/bach/patchers",
				"patcherrelativepath" : "../../../bach/patchers",
				"type" : "JSON",
				"implicit" : 1
			}
, 			{
				"name" : "bach.rminus.maxpat",
				"bootpath" : "~/Documents/Max 8/Packages/bach/patchers",
				"patcherrelativepath" : "../../../bach/patchers",
				"type" : "JSON",
				"implicit" : 1
			}
, 			{
				"name" : "bach.slice.mxo",
				"type" : "iLaX"
			}
, 			{
				"name" : "bach.thin.mxo",
				"type" : "iLaX"
			}
, 			{
				"name" : "bach.wrap.mxo",
				"type" : "iLaX"
			}
, 			{
				"name" : "bach.write.mxo",
				"type" : "iLaX"
			}
, 			{
				"name" : "bpatcher-resize-gizmo.maxpat",
				"bootpath" : "~/Documents/Max 8/Packages/MOZLib/patchers/utilities",
				"patcherrelativepath" : "../../patchers/utilities",
				"type" : "JSON",
				"implicit" : 1
			}
, 			{
				"name" : "bpatcher-resize.js",
				"bootpath" : "~/Documents/Max 8/Packages/MOZLib/patchers/utilities",
				"patcherrelativepath" : "../../patchers/utilities",
				"type" : "TEXT",
				"implicit" : 1
			}
, 			{
				"name" : "key_trigger.maxpat",
				"bootpath" : "~/Documents/Max 8/Packages/MOZLib/patchers/utilities",
				"patcherrelativepath" : "../../patchers/utilities",
				"type" : "JSON",
				"implicit" : 1
			}
, 			{
				"name" : "lisp.expr.maxpat",
				"bootpath" : "~/Documents/Max 8/Packages/MOZLib/patchers/pw4m_lisp_scripting_boxes",
				"patcherrelativepath" : "../../patchers/pw4m_lisp_scripting_boxes",
				"type" : "JSON",
				"implicit" : 1
			}
, 			{
				"name" : "lisp.quickeval.maxpat",
				"bootpath" : "~/Documents/Max 8/Packages/MOZLib/patchers/pw4m_lisp_scripting_boxes",
				"patcherrelativepath" : "../../patchers/pw4m_lisp_scripting_boxes",
				"type" : "JSON",
				"implicit" : 1
			}
, 			{
				"name" : "lisp.quote.maxpat",
				"bootpath" : "~/Documents/Max 8/Packages/MOZLib/patchers/pw4m_lisp_scripting_boxes",
				"patcherrelativepath" : "../../patchers/pw4m_lisp_scripting_boxes",
				"type" : "JSON",
				"implicit" : 1
			}
, 			{
				"name" : "mac_or_win.maxpat",
				"bootpath" : "~/Documents/Max 8/Packages/MOZLib/patchers/pw4m_lisp",
				"patcherrelativepath" : "../../patchers/pw4m_lisp",
				"type" : "JSON",
				"implicit" : 1
			}
, 			{
				"name" : "make_path_once.maxpat",
				"bootpath" : "~/Documents/Max 8/Packages/MOZLib/patchers/pw4m_lisp",
				"patcherrelativepath" : "../../patchers/pw4m_lisp",
				"type" : "JSON",
				"implicit" : 1
			}
, 			{
				"name" : "moz.init-unless.maxpat",
				"bootpath" : "~/Documents/Max 8/Packages/MOZLib/patchers/utilities",
				"patcherrelativepath" : "../../patchers/utilities",
				"type" : "JSON",
				"implicit" : 1
			}
, 			{
				"name" : "moz.reconstruct-lllls-from-print.maxpat",
				"bootpath" : "~/Documents/Max 8/Packages/MOZLib/patchers/utilities",
				"patcherrelativepath" : "../../patchers/utilities",
				"type" : "JSON",
				"implicit" : 1
			}
, 			{
				"name" : "moz.textfield.maxpat",
				"bootpath" : "~/Documents/Max 8/Packages/MOZLib/patchers/utilities",
				"patcherrelativepath" : "../../patchers/utilities",
				"type" : "JSON",
				"implicit" : 1
			}
, 			{
				"name" : "pmc.domain.maxpat",
				"bootpath" : "~/Documents/Max 8/Packages/MOZLib/patchers/pw4m_pmc",
				"patcherrelativepath" : "../../patchers/pw4m_pmc",
				"type" : "JSON",
				"implicit" : 1
			}
, 			{
				"name" : "pmc.engine.maxpat",
				"bootpath" : "~/Documents/Max 8/Packages/MOZLib/patchers/pw4m_pmc",
				"patcherrelativepath" : "../../patchers/pw4m_pmc",
				"type" : "JSON",
				"implicit" : 1
			}
, 			{
				"name" : "pmc.rule.maxpat",
				"bootpath" : "~/Documents/Max 8/Packages/MOZLib/patchers/pw4m_pmc",
				"patcherrelativepath" : "../../patchers/pw4m_pmc",
				"type" : "JSON",
				"implicit" : 1
			}
, 			{
				"name" : "pmcyes.png",
				"bootpath" : "~/Documents/Max 8/Packages/MOZLib/media",
				"patcherrelativepath" : "../../media",
				"type" : "PNG",
				"implicit" : 1
			}
, 			{
				"name" : "pw.backquote.maxpat",
				"bootpath" : "~/Documents/Max 8/Packages/MOZLib/patchers/pw4m_lisp_code_generators_legacy",
				"patcherrelativepath" : "../../patchers/pw4m_lisp_code_generators_legacy",
				"type" : "JSON",
				"implicit" : 1
			}
, 			{
				"name" : "pw.eval-box.maxpat",
				"bootpath" : "~/Documents/Max 8/Packages/MOZLib/patchers/pw4m_lisp",
				"patcherrelativepath" : "../../patchers/pw4m_lisp",
				"type" : "JSON",
				"implicit" : 1
			}
, 			{
				"name" : "shell.mxo",
				"type" : "iLaX"
			}
, 			{
				"name" : "thru.maxpat",
				"bootpath" : "C74:/patchers/m4l/Pluggo for Live resources/patches",
				"type" : "JSON",
				"implicit" : 1
			}
 ],
		"autosave" : 0
	}

}
