{
	"patcher" : 	{
		"fileversion" : 1,
		"appversion" : 		{
			"major" : 8,
			"minor" : 5,
			"revision" : 4,
			"architecture" : "x64",
			"modernui" : 1
		}
,
		"classnamespace" : "box",
		"rect" : [ 34.0, 79.0, 954.0, 590.0 ],
		"bglocked" : 0,
		"openinpresentation" : 0,
		"default_fontsize" : 12.0,
		"default_fontface" : 0,
		"default_fontname" : "Arial",
		"gridonopen" : 1,
		"gridsize" : [ 15.0, 15.0 ],
		"gridsnaponopen" : 1,
		"objectsnaponopen" : 1,
		"statusbarvisible" : 2,
		"toolbarvisible" : 1,
		"lefttoolbarpinned" : 0,
		"toptoolbarpinned" : 0,
		"righttoolbarpinned" : 0,
		"bottomtoolbarpinned" : 0,
		"toolbars_unpinned_last_save" : 0,
		"tallnewobj" : 0,
		"boxanimatetime" : 200,
		"enablehscroll" : 1,
		"enablevscroll" : 1,
		"devicewidth" : 0.0,
		"description" : "",
		"digest" : "",
		"tags" : "",
		"style" : "",
		"subpatcher_template" : "",
		"assistshowspatchername" : 0,
		"boxes" : [ 			{
				"box" : 				{
					"fontsize" : 10.355326375502422,
					"hidden" : 1,
					"id" : "obj-27",
					"maxclass" : "newobj",
					"numinlets" : 1,
					"numoutlets" : 1,
					"outlettype" : [ "" ],
					"patching_rect" : [ 51.0, 64.500000000000014, 103.0, 20.0 ],
					"text" : "loadmess collapse 1"
				}

			}
, 			{
				"box" : 				{
					"fontsize" : 8.699999999999999,
					"hidden" : 1,
					"id" : "obj-24",
					"maxclass" : "newobj",
					"numinlets" : 0,
					"numoutlets" : 0,
					"patching_rect" : [ 1102.358156028368739, 35.0, 114.0, 18.0 ],
					"text" : "cluster-eval-window-tutorial"
				}

			}
, 			{
				"box" : 				{
					"fontsize" : 8.725190243023524,
					"hidden" : 1,
					"id" : "obj-25",
					"linecount" : 2,
					"maxclass" : "newobj",
					"numinlets" : 2,
					"numoutlets" : 2,
					"outlettype" : [ "", "" ],
					"patching_rect" : [ 1045.0, 4.0, 125.0, 28.0 ],
					"text" : "moz.resolution-helpfiles-moz 954.262195 589.966543"
				}

			}
, 			{
				"box" : 				{
					"fontsize" : 8.699999999999999,
					"hidden" : 1,
					"id" : "obj-26",
					"maxclass" : "newobj",
					"numinlets" : 1,
					"numoutlets" : 2,
					"outlettype" : [ "", "" ],
					"patching_rect" : [ 1045.0, 35.0, 56.0, 18.0 ],
					"save" : [ "#N", "thispatcher", ";", "#Q", "end", ";" ],
					"text" : "thispatcher"
				}

			}
, 			{
				"box" : 				{
					"fontname" : "Arial",
					"fontsize" : 12.0,
					"id" : "obj-20",
					"maxclass" : "newobj",
					"numinlets" : 1,
					"numoutlets" : 1,
					"outlettype" : [ "bang" ],
					"patching_rect" : [ 9.0, 10.0, 68.0, 22.0 ],
					"text" : "key_trigger"
				}

			}
, 			{
				"box" : 				{
					"fontname" : "Andale Mono",
					"id" : "obj-14",
					"linecount" : 7,
					"maxclass" : "comment",
					"numinlets" : 1,
					"numoutlets" : 0,
					"patching_rect" : [ 377.5, 10.0, 556.0, 101.0 ],
					"text" : "The lambda inside the subpatcher defines two arguments which will receive \nconsecutive events.\n\nSee that the rule input of the accessor is now set to :rhythm/pitch-segment.\n\nThis means that when the two consecutive events are separated by a rest, \nthey will not be checked."
				}

			}
, 			{
				"box" : 				{
					"id" : "obj-8",
					"maxclass" : "newobj",
					"numinlets" : 2,
					"numoutlets" : 1,
					"outlettype" : [ "" ],
					"patching_rect" : [ 345.0, 303.0, 55.0, 22.0 ],
					"saved_object_attributes" : 					{
						"embed" : 0,
						"versionnumber" : 80102
					}
,
					"text" : "bach.reg"
				}

			}
, 			{
				"box" : 				{
					"fontname" : "Andale Mono",
					"id" : "obj-9",
					"linecount" : 13,
					"maxclass" : "comment",
					"numinlets" : 1,
					"numoutlets" : 0,
					"patching_rect" : [ 430.0, 184.0, 505.0, 182.0 ],
					"text" : "The subpatcher contains a very simple constraint: consecutive events have to have the same pitch. Since a rest will make the rule \nto be ignored, an event after a rest can have any pitch.\n\nTry to change the setting in the module to :rhythm/pitch and see \nthe different behaviour. \n\nNote that if the lambda has only one input, the two settings will behave the same.\n\nThe :include-rests setting will not work with the lambda rule \nin this patch. It will give error messages since the test '= in Lisp cannot handle NIL."
				}

			}
, 			{
				"box" : 				{
					"id" : "obj-46",
					"maxclass" : "newobj",
					"numinlets" : 1,
					"numoutlets" : 1,
					"outlettype" : [ "" ],
					"patcher" : 					{
						"fileversion" : 1,
						"appversion" : 						{
							"major" : 8,
							"minor" : 5,
							"revision" : 4,
							"architecture" : "x64",
							"modernui" : 1
						}
,
						"classnamespace" : "box",
						"rect" : [ 627.0, 79.0, 396.0, 272.0 ],
						"bglocked" : 0,
						"openinpresentation" : 0,
						"default_fontsize" : 12.0,
						"default_fontface" : 0,
						"default_fontname" : "Arial",
						"gridonopen" : 1,
						"gridsize" : [ 15.0, 15.0 ],
						"gridsnaponopen" : 1,
						"objectsnaponopen" : 1,
						"statusbarvisible" : 2,
						"toolbarvisible" : 1,
						"lefttoolbarpinned" : 0,
						"toptoolbarpinned" : 0,
						"righttoolbarpinned" : 0,
						"bottomtoolbarpinned" : 0,
						"toolbars_unpinned_last_save" : 0,
						"tallnewobj" : 0,
						"boxanimatetime" : 200,
						"enablehscroll" : 1,
						"enablevscroll" : 1,
						"devicewidth" : 0.0,
						"description" : "",
						"digest" : "",
						"tags" : "",
						"style" : "",
						"subpatcher_template" : "",
						"assistshowspatchername" : 0,
						"boxes" : [ 							{
								"box" : 								{
									"id" : "obj-11",
									"maxclass" : "newobj",
									"numinlets" : 2,
									"numoutlets" : 1,
									"outlettype" : [ "" ],
									"patching_rect" : [ 14.0, 137.99999243021, 230.0, 22.0 ],
									"text" : "lisp.expr = x y"
								}

							}
, 							{
								"box" : 								{
									"id" : "obj-7",
									"maxclass" : "newobj",
									"numinlets" : 1,
									"numoutlets" : 1,
									"outlettype" : [ "" ],
									"patching_rect" : [ 14.0, 102.99999243021, 148.0, 22.0 ],
									"text" : "lisp.expr second durpitch1"
								}

							}
, 							{
								"box" : 								{
									"id" : "obj-1",
									"maxclass" : "newobj",
									"numinlets" : 1,
									"numoutlets" : 1,
									"outlettype" : [ "" ],
									"patching_rect" : [ 225.0, 102.99999243021, 148.0, 22.0 ],
									"text" : "lisp.expr second durpitch2"
								}

							}
, 							{
								"box" : 								{
									"id" : "obj-36",
									"maxclass" : "newobj",
									"numinlets" : 1,
									"numoutlets" : 2,
									"outlettype" : [ "bang", "bang" ],
									"patching_rect" : [ 14.0, 67.0, 230.0, 22.0 ],
									"text" : "t b b"
								}

							}
, 							{
								"box" : 								{
									"id" : "obj-31",
									"maxclass" : "newobj",
									"numinlets" : 1,
									"numoutlets" : 1,
									"outlettype" : [ "" ],
									"patching_rect" : [ 14.0, 176.99999243021, 175.0, 22.0 ],
									"text" : "lisp.lambda durpitch1 durpitch2"
								}

							}
, 							{
								"box" : 								{
									"comment" : "",
									"id" : "obj-44",
									"index" : 1,
									"maxclass" : "inlet",
									"numinlets" : 0,
									"numoutlets" : 1,
									"outlettype" : [ "bang" ],
									"patching_rect" : [ 14.0, 7.000000430209994, 30.0, 30.0 ]
								}

							}
, 							{
								"box" : 								{
									"comment" : "",
									"id" : "obj-45",
									"index" : 1,
									"maxclass" : "outlet",
									"numinlets" : 1,
									"numoutlets" : 0,
									"patching_rect" : [ 14.0, 231.99999243021, 30.0, 30.0 ]
								}

							}
 ],
						"lines" : [ 							{
								"patchline" : 								{
									"destination" : [ "obj-11", 1 ],
									"source" : [ "obj-1", 0 ]
								}

							}
, 							{
								"patchline" : 								{
									"destination" : [ "obj-31", 0 ],
									"source" : [ "obj-11", 0 ]
								}

							}
, 							{
								"patchline" : 								{
									"destination" : [ "obj-45", 0 ],
									"source" : [ "obj-31", 0 ]
								}

							}
, 							{
								"patchline" : 								{
									"destination" : [ "obj-1", 0 ],
									"source" : [ "obj-36", 1 ]
								}

							}
, 							{
								"patchline" : 								{
									"destination" : [ "obj-7", 0 ],
									"source" : [ "obj-36", 0 ]
								}

							}
, 							{
								"patchline" : 								{
									"destination" : [ "obj-36", 0 ],
									"source" : [ "obj-44", 0 ]
								}

							}
, 							{
								"patchline" : 								{
									"destination" : [ "obj-11", 0 ],
									"source" : [ "obj-7", 0 ]
								}

							}
 ]
					}
,
					"patching_rect" : [ 345.0, 264.0, 76.0, 22.0 ],
					"saved_object_attributes" : 					{
						"description" : "",
						"digest" : "",
						"globalpatchername" : "",
						"tags" : ""
					}
,
					"text" : "p look-inside"
				}

			}
, 			{
				"box" : 				{
					"id" : "obj-15",
					"maxclass" : "message",
					"numinlets" : 2,
					"numoutlets" : 1,
					"outlettype" : [ "" ],
					"patching_rect" : [ 32.583331942558289, 187.0, 367.0, 22.0 ],
					"text" : "rule_input :rhythm/pitch-segment, gracenotes? :exclude-gracenotes"
				}

			}
, 			{
				"box" : 				{
					"id" : "obj-11",
					"maxclass" : "newobj",
					"numinlets" : 1,
					"numoutlets" : 1,
					"outlettype" : [ "bang" ],
					"patching_rect" : [ 32.583331942558289, 163.0, 58.0, 22.0 ],
					"text" : "loadbang"
				}

			}
, 			{
				"box" : 				{
					"bgmode" : 1,
					"border" : 1,
					"clickthrough" : 0,
					"enablehscroll" : 0,
					"enablevscroll" : 0,
					"id" : "obj-13",
					"lockeddragscroll" : 0,
					"lockedsize" : 0,
					"maxclass" : "bpatcher",
					"name" : "cluster.r-rhythm-pitch-one-voice.maxpat",
					"numinlets" : 5,
					"numoutlets" : 2,
					"offset" : [ 0.0, 0.0 ],
					"outlettype" : [ "", "bang" ],
					"patching_rect" : [ 9.0, 218.0, 313.0, 105.0 ],
					"varname" : "bp391424640341",
					"viewvisibility" : 1
				}

			}
, 			{
				"box" : 				{
					"fontsize" : 11.0,
					"id" : "obj-5",
					"maxclass" : "newobj",
					"numinlets" : 1,
					"numoutlets" : 1,
					"outlettype" : [ "" ],
					"patching_rect" : [ 223.200002253055573, 64.0, 64.0, 21.0 ],
					"saved_object_attributes" : 					{
						"versionnumber" : 80102
					}
,
					"text" : "bach.group"
				}

			}
, 			{
				"box" : 				{
					"fontsize" : 11.0,
					"id" : "obj-12",
					"maxclass" : "newobj",
					"numinlets" : 4,
					"numoutlets" : 1,
					"outlettype" : [ "" ],
					"patching_rect" : [ 223.200002253055573, 41.0, 121.0, 21.0 ],
					"saved_object_attributes" : 					{
						"versionnumber" : 80102
					}
,
					"text" : "bach.arithmser 60 79 1"
				}

			}
, 			{
				"box" : 				{
					"fontsize" : 11.0,
					"id" : "obj-6",
					"maxclass" : "newobj",
					"numinlets" : 1,
					"numoutlets" : 1,
					"outlettype" : [ "" ],
					"patching_rect" : [ 32.583331942558289, 64.0, 50.0, 21.0 ],
					"text" : "deferlow"
				}

			}
, 			{
				"box" : 				{
					"fontsize" : 11.0,
					"id" : "obj-21",
					"maxclass" : "newobj",
					"numinlets" : 1,
					"numoutlets" : 1,
					"outlettype" : [ "" ],
					"patching_rect" : [ 116.400000751018524, 64.0, 64.0, 21.0 ],
					"saved_object_attributes" : 					{
						"versionnumber" : 80102
					}
,
					"text" : "bach.group"
				}

			}
, 			{
				"box" : 				{
					"hidden" : 1,
					"id" : "obj-1",
					"maxclass" : "newobj",
					"numinlets" : 1,
					"numoutlets" : 1,
					"outlettype" : [ "" ],
					"patching_rect" : [ 50.875, 230.0, 77.0, 22.0 ],
					"text" : "loadmess 90"
				}

			}
, 			{
				"box" : 				{
					"hidden" : 1,
					"id" : "obj-3",
					"maxclass" : "newobj",
					"numinlets" : 1,
					"numoutlets" : 2,
					"outlettype" : [ "", "" ],
					"patcher" : 					{
						"fileversion" : 1,
						"appversion" : 						{
							"major" : 8,
							"minor" : 5,
							"revision" : 4,
							"architecture" : "x64",
							"modernui" : 1
						}
,
						"classnamespace" : "box",
						"rect" : [ 207.0, 253.0, 640.0, 480.0 ],
						"bglocked" : 0,
						"openinpresentation" : 0,
						"default_fontsize" : 12.0,
						"default_fontface" : 0,
						"default_fontname" : "Arial",
						"gridonopen" : 1,
						"gridsize" : [ 15.0, 15.0 ],
						"gridsnaponopen" : 1,
						"objectsnaponopen" : 1,
						"statusbarvisible" : 2,
						"toolbarvisible" : 1,
						"lefttoolbarpinned" : 0,
						"toptoolbarpinned" : 0,
						"righttoolbarpinned" : 0,
						"bottomtoolbarpinned" : 0,
						"toolbars_unpinned_last_save" : 0,
						"tallnewobj" : 0,
						"boxanimatetime" : 200,
						"enablehscroll" : 1,
						"enablevscroll" : 1,
						"devicewidth" : 0.0,
						"description" : "",
						"digest" : "",
						"tags" : "",
						"style" : "",
						"subpatcher_template" : "",
						"assistshowspatchername" : 0,
						"boxes" : [ 							{
								"box" : 								{
									"comment" : "",
									"id" : "obj-6",
									"index" : 1,
									"maxclass" : "inlet",
									"numinlets" : 0,
									"numoutlets" : 1,
									"outlettype" : [ "" ],
									"patching_rect" : [ 103.125, 63.0, 30.0, 30.0 ]
								}

							}
, 							{
								"box" : 								{
									"id" : "obj-3",
									"maxclass" : "newobj",
									"numinlets" : 1,
									"numoutlets" : 1,
									"outlettype" : [ "" ],
									"patching_rect" : [ 103.125, 161.0, 72.0, 22.0 ],
									"text" : "prepend set"
								}

							}
, 							{
								"box" : 								{
									"comment" : "",
									"id" : "obj-2",
									"index" : 1,
									"maxclass" : "outlet",
									"numinlets" : 1,
									"numoutlets" : 0,
									"patching_rect" : [ 103.125, 232.0, 30.0, 30.0 ]
								}

							}
, 							{
								"box" : 								{
									"id" : "obj-1",
									"maxclass" : "newobj",
									"numinlets" : 1,
									"numoutlets" : 1,
									"outlettype" : [ "" ],
									"patching_rect" : [ 192.125, 161.0, 109.0, 22.0 ],
									"text" : "prepend tempo set"
								}

							}
, 							{
								"box" : 								{
									"comment" : "",
									"id" : "obj-4",
									"index" : 2,
									"maxclass" : "outlet",
									"numinlets" : 1,
									"numoutlets" : 0,
									"patching_rect" : [ 192.125, 232.0, 30.0, 30.0 ]
								}

							}
 ],
						"lines" : [ 							{
								"patchline" : 								{
									"destination" : [ "obj-4", 0 ],
									"source" : [ "obj-1", 0 ]
								}

							}
, 							{
								"patchline" : 								{
									"destination" : [ "obj-2", 0 ],
									"midpoints" : [ 112.625, 207.0, 112.625, 207.0 ],
									"source" : [ "obj-3", 0 ]
								}

							}
, 							{
								"patchline" : 								{
									"destination" : [ "obj-1", 0 ],
									"order" : 0,
									"source" : [ "obj-6", 0 ]
								}

							}
, 							{
								"patchline" : 								{
									"destination" : [ "obj-3", 0 ],
									"order" : 1,
									"source" : [ "obj-6", 0 ]
								}

							}
 ]
					}
,
					"patching_rect" : [ 50.875, 258.0, 34.0, 22.0 ],
					"saved_object_attributes" : 					{
						"description" : "",
						"digest" : "",
						"globalpatchername" : "",
						"tags" : ""
					}
,
					"text" : "p init"
				}

			}
, 			{
				"box" : 				{
					"hidden" : 1,
					"id" : "obj-7",
					"maxclass" : "number",
					"numinlets" : 1,
					"numoutlets" : 2,
					"outlettype" : [ "", "bang" ],
					"parameter_enable" : 0,
					"patching_rect" : [ 51.0, 295.099514563106709, 50.0, 22.0 ]
				}

			}
, 			{
				"box" : 				{
					"hidden" : 1,
					"id" : "obj-10",
					"maxclass" : "message",
					"numinlets" : 2,
					"numoutlets" : 1,
					"outlettype" : [ "" ],
					"patching_rect" : [ 51.0, 321.099514563106709, 59.0, 22.0 ],
					"text" : "tempo $1"
				}

			}
, 			{
				"box" : 				{
					"fontsize" : 11.0,
					"id" : "obj-4",
					"maxclass" : "message",
					"numinlets" : 2,
					"numoutlets" : 1,
					"outlettype" : [ "" ],
					"patching_rect" : [ 116.400000751018524, 41.0, 89.0, 21.0 ],
					"text" : "1/4 1/8 1/16 -1/8"
				}

			}
, 			{
				"box" : 				{
					"id" : "obj-2",
					"maxclass" : "newobj",
					"numinlets" : 1,
					"numoutlets" : 1,
					"outlettype" : [ "bang" ],
					"patching_rect" : [ 116.400000751018524, 10.0, 58.0, 22.0 ],
					"text" : "loadbang"
				}

			}
, 			{
				"box" : 				{
					"id" : "obj-16",
					"maxclass" : "newobj",
					"numinlets" : 1,
					"numoutlets" : 0,
					"patching_rect" : [ 9.0, 470.0, 106.0, 22.0 ],
					"text" : "s to_cluster_score"
				}

			}
, 			{
				"box" : 				{
					"bgmode" : 1,
					"border" : 1,
					"clickthrough" : 0,
					"enablehscroll" : 0,
					"enablevscroll" : 0,
					"id" : "obj-18",
					"lockeddragscroll" : 0,
					"lockedsize" : 0,
					"maxclass" : "bpatcher",
					"name" : "cluster.engine.maxpat",
					"numinlets" : 2,
					"numoutlets" : 3,
					"offset" : [ 0.0, 0.0 ],
					"outlettype" : [ "", "", "" ],
					"patching_rect" : [ 9.0, 356.0, 205.0, 78.0 ],
					"varname" : "bp865493981703",
					"viewvisibility" : 1
				}

			}
, 			{
				"box" : 				{
					"bgmode" : 1,
					"border" : 1,
					"clickthrough" : 0,
					"enablehscroll" : 0,
					"enablevscroll" : 0,
					"id" : "obj-96",
					"lockeddragscroll" : 0,
					"lockedsize" : 0,
					"maxclass" : "bpatcher",
					"name" : "cluster.voice-domain.maxpat",
					"numinlets" : 3,
					"numoutlets" : 1,
					"offset" : [ 0.0, 0.0 ],
					"outlettype" : [ "" ],
					"patching_rect" : [ 9.0, 90.0, 233.0, 30.0 ],
					"varname" : "bp49733254562",
					"viewvisibility" : 1
				}

			}
 ],
		"lines" : [ 			{
				"patchline" : 				{
					"destination" : [ "obj-3", 0 ],
					"hidden" : 1,
					"source" : [ "obj-1", 0 ]
				}

			}
, 			{
				"patchline" : 				{
					"destination" : [ "obj-18", 0 ],
					"hidden" : 1,
					"midpoints" : [ 60.5, 349.099514563106709, 18.5, 349.099514563106709 ],
					"source" : [ "obj-10", 0 ]
				}

			}
, 			{
				"patchline" : 				{
					"destination" : [ "obj-15", 0 ],
					"source" : [ "obj-11", 0 ]
				}

			}
, 			{
				"patchline" : 				{
					"destination" : [ "obj-5", 0 ],
					"source" : [ "obj-12", 0 ]
				}

			}
, 			{
				"patchline" : 				{
					"destination" : [ "obj-18", 0 ],
					"source" : [ "obj-13", 0 ]
				}

			}
, 			{
				"patchline" : 				{
					"destination" : [ "obj-46", 0 ],
					"source" : [ "obj-13", 1 ]
				}

			}
, 			{
				"patchline" : 				{
					"destination" : [ "obj-13", 0 ],
					"source" : [ "obj-15", 0 ]
				}

			}
, 			{
				"patchline" : 				{
					"destination" : [ "obj-16", 0 ],
					"source" : [ "obj-18", 0 ]
				}

			}
, 			{
				"patchline" : 				{
					"destination" : [ "obj-12", 0 ],
					"midpoints" : [ 125.900000751018524, 37.0, 232.700002253055573, 37.0 ],
					"order" : 0,
					"source" : [ "obj-2", 0 ]
				}

			}
, 			{
				"patchline" : 				{
					"destination" : [ "obj-4", 0 ],
					"order" : 1,
					"source" : [ "obj-2", 0 ]
				}

			}
, 			{
				"patchline" : 				{
					"destination" : [ "obj-6", 0 ],
					"midpoints" : [ 125.900000751018524, 37.0, 42.083331942558289, 37.0 ],
					"order" : 2,
					"source" : [ "obj-2", 0 ]
				}

			}
, 			{
				"patchline" : 				{
					"destination" : [ "obj-96", 0 ],
					"source" : [ "obj-20", 0 ]
				}

			}
, 			{
				"patchline" : 				{
					"destination" : [ "obj-96", 1 ],
					"source" : [ "obj-21", 0 ]
				}

			}
, 			{
				"patchline" : 				{
					"destination" : [ "obj-26", 0 ],
					"hidden" : 1,
					"source" : [ "obj-25", 0 ]
				}

			}
, 			{
				"patchline" : 				{
					"destination" : [ "obj-96", 0 ],
					"hidden" : 1,
					"source" : [ "obj-27", 0 ]
				}

			}
, 			{
				"patchline" : 				{
					"destination" : [ "obj-18", 0 ],
					"hidden" : 1,
					"source" : [ "obj-3", 1 ]
				}

			}
, 			{
				"patchline" : 				{
					"destination" : [ "obj-7", 0 ],
					"hidden" : 1,
					"source" : [ "obj-3", 0 ]
				}

			}
, 			{
				"patchline" : 				{
					"destination" : [ "obj-21", 0 ],
					"source" : [ "obj-4", 0 ]
				}

			}
, 			{
				"patchline" : 				{
					"destination" : [ "obj-13", 4 ],
					"order" : 1,
					"source" : [ "obj-46", 0 ]
				}

			}
, 			{
				"patchline" : 				{
					"destination" : [ "obj-8", 0 ],
					"order" : 0,
					"source" : [ "obj-46", 0 ]
				}

			}
, 			{
				"patchline" : 				{
					"destination" : [ "obj-96", 2 ],
					"source" : [ "obj-5", 0 ]
				}

			}
, 			{
				"patchline" : 				{
					"destination" : [ "obj-96", 0 ],
					"source" : [ "obj-6", 0 ]
				}

			}
, 			{
				"patchline" : 				{
					"destination" : [ "obj-10", 0 ],
					"hidden" : 1,
					"source" : [ "obj-7", 0 ]
				}

			}
, 			{
				"patchline" : 				{
					"destination" : [ "obj-13", 0 ],
					"source" : [ "obj-96", 0 ]
				}

			}
 ],
		"dependency_cache" : [ 			{
				"name" : "bach.+.maxpat",
				"bootpath" : "~/Documents/Max 8/Packages/bach/patchers",
				"patcherrelativepath" : "../../../../../../../bach/patchers",
				"type" : "JSON",
				"implicit" : 1
			}
, 			{
				"name" : "bach.-.maxpat",
				"bootpath" : "~/Documents/Max 8/Packages/bach/patchers",
				"patcherrelativepath" : "../../../../../../../bach/patchers",
				"type" : "JSON",
				"implicit" : 1
			}
, 			{
				"name" : "bach.<=.mxo",
				"type" : "iLaX"
			}
, 			{
				"name" : "bach.approx.maxpat",
				"bootpath" : "~/Documents/Max 8/Packages/bach/patchers",
				"patcherrelativepath" : "../../../../../../../bach/patchers",
				"type" : "JSON",
				"implicit" : 1
			}
, 			{
				"name" : "bach.args.mxo",
				"type" : "iLaX"
			}
, 			{
				"name" : "bach.arithmser.mxo",
				"type" : "iLaX"
			}
, 			{
				"name" : "bach.beatbox.mxo",
				"type" : "iLaX"
			}
, 			{
				"name" : "bach.belong.maxpat",
				"bootpath" : "~/Documents/Max 8/Packages/bach/patchers",
				"patcherrelativepath" : "../../../../../../../bach/patchers",
				"type" : "JSON",
				"implicit" : 1
			}
, 			{
				"name" : "bach.change.maxpat",
				"bootpath" : "~/Documents/Max 8/Packages/bach/patchers",
				"patcherrelativepath" : "../../../../../../../bach/patchers",
				"type" : "JSON",
				"implicit" : 1
			}
, 			{
				"name" : "bach.collect.mxo",
				"type" : "iLaX"
			}
, 			{
				"name" : "bach.delace.mxo",
				"type" : "iLaX"
			}
, 			{
				"name" : "bach.eq.mxo",
				"type" : "iLaX"
			}
, 			{
				"name" : "bach.expr.mxo",
				"type" : "iLaX"
			}
, 			{
				"name" : "bach.ezmidiplay.maxpat",
				"bootpath" : "~/Documents/Max 8/Packages/bach/patchers",
				"patcherrelativepath" : "../../../../../../../bach/patchers",
				"type" : "JSON",
				"implicit" : 1
			}
, 			{
				"name" : "bach.filter.maxpat",
				"bootpath" : "~/Documents/Max 8/Packages/bach/patchers",
				"patcherrelativepath" : "../../../../../../../bach/patchers",
				"type" : "JSON",
				"implicit" : 1
			}
, 			{
				"name" : "bach.filternull.maxpat",
				"bootpath" : "~/Documents/Max 8/Packages/bach/patchers",
				"patcherrelativepath" : "../../../../../../../bach/patchers",
				"type" : "JSON",
				"implicit" : 1
			}
, 			{
				"name" : "bach.find.mxo",
				"type" : "iLaX"
			}
, 			{
				"name" : "bach.flat.mxo",
				"type" : "iLaX"
			}
, 			{
				"name" : "bach.gcd.maxpat",
				"bootpath" : "~/Documents/Max 8/Packages/bach/patchers",
				"patcherrelativepath" : "../../../../../../../bach/patchers",
				"type" : "JSON",
				"implicit" : 1
			}
, 			{
				"name" : "bach.group.mxo",
				"type" : "iLaX"
			}
, 			{
				"name" : "bach.gt.mxo",
				"type" : "iLaX"
			}
, 			{
				"name" : "bach.interp.maxpat",
				"bootpath" : "~/Documents/Max 8/Packages/bach/patchers",
				"patcherrelativepath" : "../../../../../../../bach/patchers",
				"type" : "JSON",
				"implicit" : 1
			}
, 			{
				"name" : "bach.intersection.mxo",
				"type" : "iLaX"
			}
, 			{
				"name" : "bach.is.mxo",
				"type" : "iLaX"
			}
, 			{
				"name" : "bach.iter.mxo",
				"type" : "iLaX"
			}
, 			{
				"name" : "bach.join.mxo",
				"type" : "iLaX"
			}
, 			{
				"name" : "bach.keys.mxo",
				"type" : "iLaX"
			}
, 			{
				"name" : "bach.lace.mxo",
				"type" : "iLaX"
			}
, 			{
				"name" : "bach.length.mxo",
				"type" : "iLaX"
			}
, 			{
				"name" : "bach.lookup.maxpat",
				"bootpath" : "~/Documents/Max 8/Packages/bach/patchers",
				"patcherrelativepath" : "../../../../../../../bach/patchers",
				"type" : "JSON",
				"implicit" : 1
			}
, 			{
				"name" : "bach.mapelem.mxo",
				"type" : "iLaX"
			}
, 			{
				"name" : "bach.maximum.maxpat",
				"bootpath" : "~/Documents/Max 8/Packages/bach/patchers",
				"patcherrelativepath" : "../../../../../../../bach/patchers",
				"type" : "JSON",
				"implicit" : 1
			}
, 			{
				"name" : "bach.neq.mxo",
				"type" : "iLaX"
			}
, 			{
				"name" : "bach.nth.mxo",
				"type" : "iLaX"
			}
, 			{
				"name" : "bach.pick.mxo",
				"type" : "iLaX"
			}
, 			{
				"name" : "bach.playkeys.mxo",
				"type" : "iLaX"
			}
, 			{
				"name" : "bach.portal.mxo",
				"type" : "iLaX"
			}
, 			{
				"name" : "bach.postpend.maxpat",
				"bootpath" : "~/Documents/Max 8/Packages/bach/patchers",
				"patcherrelativepath" : "../../../../../../../bach/patchers",
				"type" : "JSON",
				"implicit" : 1
			}
, 			{
				"name" : "bach.prepend.maxpat",
				"bootpath" : "~/Documents/Max 8/Packages/bach/patchers",
				"patcherrelativepath" : "../../../../../../../bach/patchers",
				"type" : "JSON",
				"implicit" : 1
			}
, 			{
				"name" : "bach.print.mxo",
				"type" : "iLaX"
			}
, 			{
				"name" : "bach.read.mxo",
				"type" : "iLaX"
			}
, 			{
				"name" : "bach.reg.mxo",
				"type" : "iLaX"
			}
, 			{
				"name" : "bach.repeat.maxpat",
				"bootpath" : "~/Documents/Max 8/Packages/bach/patchers",
				"patcherrelativepath" : "../../../../../../../bach/patchers",
				"type" : "JSON",
				"implicit" : 1
			}
, 			{
				"name" : "bach.replace.maxpat",
				"bootpath" : "~/Documents/Max 8/Packages/bach/patchers",
				"patcherrelativepath" : "../../../../../../../bach/patchers",
				"type" : "JSON",
				"implicit" : 1
			}
, 			{
				"name" : "bach.rev.mxo",
				"type" : "iLaX"
			}
, 			{
				"name" : "bach.rminus.maxpat",
				"bootpath" : "~/Documents/Max 8/Packages/bach/patchers",
				"patcherrelativepath" : "../../../../../../../bach/patchers",
				"type" : "JSON",
				"implicit" : 1
			}
, 			{
				"name" : "bach.round.maxpat",
				"bootpath" : "~/Documents/Max 8/Packages/bach/patchers",
				"patcherrelativepath" : "../../../../../../../bach/patchers",
				"type" : "JSON",
				"implicit" : 1
			}
, 			{
				"name" : "bach.score.mxo",
				"type" : "iLaX"
			}
, 			{
				"name" : "bach.slice.mxo",
				"type" : "iLaX"
			}
, 			{
				"name" : "bach.subs.mxo",
				"type" : "iLaX"
			}
, 			{
				"name" : "bach.thin.mxo",
				"type" : "iLaX"
			}
, 			{
				"name" : "bach.times.maxpat",
				"bootpath" : "~/Documents/Max 8/Packages/bach/patchers",
				"patcherrelativepath" : "../../../../../../../bach/patchers",
				"type" : "JSON",
				"implicit" : 1
			}
, 			{
				"name" : "bach.trans.mxo",
				"type" : "iLaX"
			}
, 			{
				"name" : "bach.tree.mxo",
				"type" : "iLaX"
			}
, 			{
				"name" : "bach.wrap.mxo",
				"type" : "iLaX"
			}
, 			{
				"name" : "bach.write.mxo",
				"type" : "iLaX"
			}
, 			{
				"name" : "bpatcher-resize-gizmo.maxpat",
				"bootpath" : "~/Documents/Max 8/Packages/MOZLib/patchers/utilities",
				"patcherrelativepath" : "../../../../../../patchers/utilities",
				"type" : "JSON",
				"implicit" : 1
			}
, 			{
				"name" : "bpatcher-resize.js",
				"bootpath" : "~/Documents/Max 8/Packages/MOZLib/patchers/utilities",
				"patcherrelativepath" : "../../../../../../patchers/utilities",
				"type" : "TEXT",
				"implicit" : 1
			}
, 			{
				"name" : "cluster-eval-window-tutorial.maxpat",
				"bootpath" : "~/Documents/Max 8/Packages/MOZLib/help/Tutorials/PWforMax Libraries/ClusterEngine",
				"patcherrelativepath" : "../..",
				"type" : "JSON",
				"implicit" : 1
			}
, 			{
				"name" : "cluster.cluster2score.maxpat",
				"bootpath" : "~/Documents/Max 8/Packages/MOZLib/patchers/pw4m_cluster-engine/utilities",
				"patcherrelativepath" : "../../../../../../patchers/pw4m_cluster-engine/utilities",
				"type" : "JSON",
				"implicit" : 1
			}
, 			{
				"name" : "cluster.engine.maxpat",
				"bootpath" : "~/Documents/Max 8/Packages/MOZLib/patchers/pw4m_cluster-engine",
				"patcherrelativepath" : "../../../../../../patchers/pw4m_cluster-engine",
				"type" : "JSON",
				"implicit" : 1
			}
, 			{
				"name" : "cluster.get_doc.maxpat",
				"bootpath" : "~/Documents/Max 8/Packages/MOZLib/patchers/pw4m_cluster-engine/utilities",
				"patcherrelativepath" : "../../../../../../patchers/pw4m_cluster-engine/utilities",
				"type" : "JSON",
				"implicit" : 1
			}
, 			{
				"name" : "cluster.iter-append-umenu.maxpat",
				"bootpath" : "~/Documents/Max 8/Packages/MOZLib/patchers/pw4m_cluster-engine/utilities",
				"patcherrelativepath" : "../../../../../../patchers/pw4m_cluster-engine/utilities",
				"type" : "JSON",
				"implicit" : 1
			}
, 			{
				"name" : "cluster.multidomains2score.maxpat",
				"bootpath" : "~/Documents/Max 8/Packages/MOZLib/patchers/pw4m_cluster-engine/utilities",
				"patcherrelativepath" : "../../../../../../patchers/pw4m_cluster-engine/utilities",
				"type" : "JSON",
				"implicit" : 1
			}
, 			{
				"name" : "cluster.r-rhythm-pitch-one-voice.maxpat",
				"bootpath" : "~/Documents/Max 8/Packages/MOZLib/patchers/pw4m_cluster-engine",
				"patcherrelativepath" : "../../../../../../patchers/pw4m_cluster-engine",
				"type" : "JSON",
				"implicit" : 1
			}
, 			{
				"name" : "cluster.rule_definition2param_umenu.maxpat",
				"bootpath" : "~/Documents/Max 8/Packages/MOZLib/patchers/pw4m_cluster-engine/utilities",
				"patcherrelativepath" : "../../../../../../patchers/pw4m_cluster-engine/utilities",
				"type" : "JSON",
				"implicit" : 1
			}
, 			{
				"name" : "cluster.typeroute-sym_or_nums.maxpat",
				"bootpath" : "~/Documents/Max 8/Packages/MOZLib/patchers/pw4m_cluster-engine/utilities",
				"patcherrelativepath" : "../../../../../../patchers/pw4m_cluster-engine/utilities",
				"type" : "JSON",
				"implicit" : 1
			}
, 			{
				"name" : "cluster.voice-domain.maxpat",
				"bootpath" : "~/Documents/Max 8/Packages/MOZLib/patchers/pw4m_cluster-engine",
				"patcherrelativepath" : "../../../../../../patchers/pw4m_cluster-engine",
				"type" : "JSON",
				"implicit" : 1
			}
, 			{
				"name" : "help.png",
				"bootpath" : "~/Documents/Max 8/Packages/MOZLib/media",
				"patcherrelativepath" : "../../../../../../media",
				"type" : "PNG",
				"implicit" : 1
			}
, 			{
				"name" : "key_trigger.maxpat",
				"bootpath" : "~/Documents/Max 8/Packages/MOZLib/patchers/utilities",
				"patcherrelativepath" : "../../../../../../patchers/utilities",
				"type" : "JSON",
				"implicit" : 1
			}
, 			{
				"name" : "lisp.expr.maxpat",
				"bootpath" : "~/Documents/Max 8/Packages/MOZLib/patchers/pw4m_lisp_scripting_boxes",
				"patcherrelativepath" : "../../../../../../patchers/pw4m_lisp_scripting_boxes",
				"type" : "JSON",
				"implicit" : 1
			}
, 			{
				"name" : "lisp.lambda.maxpat",
				"bootpath" : "~/Documents/Max 8/Packages/MOZLib/patchers/pw4m_lisp_scripting_boxes",
				"patcherrelativepath" : "../../../../../../patchers/pw4m_lisp_scripting_boxes",
				"type" : "JSON",
				"implicit" : 1
			}
, 			{
				"name" : "lisp.quote.maxpat",
				"bootpath" : "~/Documents/Max 8/Packages/MOZLib/patchers/pw4m_lisp_scripting_boxes",
				"patcherrelativepath" : "../../../../../../patchers/pw4m_lisp_scripting_boxes",
				"type" : "JSON",
				"implicit" : 1
			}
, 			{
				"name" : "mac_or_win.maxpat",
				"bootpath" : "~/Documents/Max 8/Packages/MOZLib/patchers/pw4m_lisp",
				"patcherrelativepath" : "../../../../../../patchers/pw4m_lisp",
				"type" : "JSON",
				"implicit" : 1
			}
, 			{
				"name" : "make_path_once.maxpat",
				"bootpath" : "~/Documents/Max 8/Packages/MOZLib/patchers/pw4m_lisp",
				"patcherrelativepath" : "../../../../../../patchers/pw4m_lisp",
				"type" : "JSON",
				"implicit" : 1
			}
, 			{
				"name" : "moz.init-unless.maxpat",
				"bootpath" : "~/Documents/Max 8/Packages/MOZLib/patchers/utilities",
				"patcherrelativepath" : "../../../../../../patchers/utilities",
				"type" : "JSON",
				"implicit" : 1
			}
, 			{
				"name" : "moz.resolution-helpfiles-moz.maxpat",
				"bootpath" : "~/Documents/Max 8/Packages/MOZLib/patchers/utilities",
				"patcherrelativepath" : "../../../../../../patchers/utilities",
				"type" : "JSON",
				"implicit" : 1
			}
, 			{
				"name" : "moz.textfield.maxpat",
				"bootpath" : "~/Documents/Max 8/Packages/MOZLib/patchers/utilities",
				"patcherrelativepath" : "../../../../../../patchers/utilities",
				"type" : "JSON",
				"implicit" : 1
			}
, 			{
				"name" : "pmcyes.png",
				"bootpath" : "~/Documents/Max 8/Packages/MOZLib/media",
				"patcherrelativepath" : "../../../../../../media",
				"type" : "PNG",
				"implicit" : 1
			}
, 			{
				"name" : "pw.eval-box.maxpat",
				"bootpath" : "~/Documents/Max 8/Packages/MOZLib/patchers/pw4m_lisp",
				"patcherrelativepath" : "../../../../../../patchers/pw4m_lisp",
				"type" : "JSON",
				"implicit" : 1
			}
, 			{
				"name" : "pw.quote.maxpat",
				"bootpath" : "~/Documents/Max 8/Packages/MOZLib/patchers/pw4m_lisp_code_generators_legacy",
				"patcherrelativepath" : "../../../../../../patchers/pw4m_lisp_code_generators_legacy",
				"type" : "JSON",
				"implicit" : 1
			}
, 			{
				"name" : "shell.mxo",
				"type" : "iLaX"
			}
, 			{
				"name" : "thru.maxpat",
				"bootpath" : "C74:/patchers/m4l/Pluggo for Live resources/patches",
				"type" : "JSON",
				"implicit" : 1
			}
 ],
		"autosave" : 0
	}

}
