{
	"patcher" : 	{
		"fileversion" : 1,
		"appversion" : 		{
			"major" : 8,
			"minor" : 5,
			"revision" : 4,
			"architecture" : "x64",
			"modernui" : 1
		}
,
		"classnamespace" : "box",
		"rect" : [ 34.0, 79.0, 917.0, 435.0 ],
		"bglocked" : 0,
		"openinpresentation" : 0,
		"default_fontsize" : 12.0,
		"default_fontface" : 0,
		"default_fontname" : "Arial",
		"gridonopen" : 1,
		"gridsize" : [ 15.0, 15.0 ],
		"gridsnaponopen" : 1,
		"objectsnaponopen" : 1,
		"statusbarvisible" : 2,
		"toolbarvisible" : 1,
		"lefttoolbarpinned" : 0,
		"toptoolbarpinned" : 0,
		"righttoolbarpinned" : 0,
		"bottomtoolbarpinned" : 0,
		"toolbars_unpinned_last_save" : 0,
		"tallnewobj" : 0,
		"boxanimatetime" : 200,
		"enablehscroll" : 1,
		"enablevscroll" : 1,
		"devicewidth" : 0.0,
		"description" : "",
		"digest" : "",
		"tags" : "",
		"style" : "",
		"subpatcher_template" : "",
		"assistshowspatchername" : 0,
		"boxes" : [ 			{
				"box" : 				{
					"id" : "obj-10",
					"maxclass" : "newobj",
					"numinlets" : 1,
					"numoutlets" : 1,
					"outlettype" : [ "" ],
					"patching_rect" : [ 227.666666666666515, 23.0, 100.0, 22.0 ],
					"text" : "loadmess 0"
				}

			}
, 			{
				"box" : 				{
					"id" : "obj-8",
					"items" : [ "*basic-domain*", ",", "*duration-domain*", ",", "*absolute-rhythm-domain*", ",", "*absolute-domain*", ",", "*interval-domain*" ],
					"maxclass" : "umenu",
					"numinlets" : 1,
					"numoutlets" : 3,
					"outlettype" : [ "int", "", "" ],
					"parameter_enable" : 0,
					"patching_rect" : [ 227.666666666666515, 52.0, 136.0, 22.0 ]
				}

			}
, 			{
				"box" : 				{
					"id" : "obj-1",
					"maxclass" : "newobj",
					"numinlets" : 1,
					"numoutlets" : 2,
					"outlettype" : [ "", "bang" ],
					"patching_rect" : [ 48.958333333333258, 315.0, 112.0, 22.0 ],
					"saved_object_attributes" : 					{
						"versionnumber" : 80300
					}
,
					"text" : "bach.portal @out t"
				}

			}
, 			{
				"box" : 				{
					"id" : "obj-26",
					"maxclass" : "comment",
					"numinlets" : 1,
					"numoutlets" : 0,
					"patching_rect" : [ 321.666666666666515, 144.636363636363626, 48.0, 20.0 ],
					"text" : "t/f rules"
				}

			}
, 			{
				"box" : 				{
					"id" : "obj-23",
					"maxclass" : "number",
					"numinlets" : 1,
					"numoutlets" : 2,
					"outlettype" : [ "", "bang" ],
					"parameter_enable" : 0,
					"patching_rect" : [ 630.805555555555429, 124.14285714285711, 50.0, 22.0 ]
				}

			}
, 			{
				"box" : 				{
					"id" : "obj-24",
					"maxclass" : "newobj",
					"numinlets" : 1,
					"numoutlets" : 1,
					"outlettype" : [ "" ],
					"patching_rect" : [ 630.805555555555429, 94.532467532467535, 70.0, 22.0 ],
					"text" : "loadmess 2"
				}

			}
, 			{
				"box" : 				{
					"id" : "obj-25",
					"maxclass" : "comment",
					"numinlets" : 1,
					"numoutlets" : 0,
					"patching_rect" : [ 630.805555555555429, 70.396103896103909, 75.0, 20.0 ],
					"text" : "mode 1 2?"
				}

			}
, 			{
				"box" : 				{
					"id" : "obj-18",
					"maxclass" : "newobj",
					"numinlets" : 1,
					"numoutlets" : 1,
					"outlettype" : [ "" ],
					"patching_rect" : [ 19.0, 32.0, 77.0, 22.0 ],
					"text" : "loadmess 12"
				}

			}
, 			{
				"box" : 				{
					"id" : "obj-16",
					"maxclass" : "newobj",
					"numinlets" : 1,
					"numoutlets" : 1,
					"outlettype" : [ "bang" ],
					"patching_rect" : [ 130.0, 17.0, 68.0, 22.0 ],
					"text" : "key_trigger"
				}

			}
, 			{
				"box" : 				{
					"id" : "obj-15",
					"maxclass" : "comment",
					"numinlets" : 1,
					"numoutlets" : 0,
					"patching_rect" : [ 59.0, 192.5, 556.0, 20.0 ],
					"text" : "no-variables domain var-type abs-interval? start rulelist heurrulelist mode rnd? read-write-engine-state?"
				}

			}
, 			{
				"box" : 				{
					"id" : "obj-14",
					"maxclass" : "comment",
					"numinlets" : 1,
					"numoutlets" : 0,
					"patching_rect" : [ 414.0, 315.0, 433.0, 20.0 ],
					"text" : "attention otherwise keywords like b would also need to be cl-user::b for instance"
				}

			}
, 			{
				"box" : 				{
					"id" : "obj-11",
					"maxclass" : "number",
					"numinlets" : 1,
					"numoutlets" : 2,
					"outlettype" : [ "", "bang" ],
					"parameter_enable" : 0,
					"patching_rect" : [ 44.0, 118.0, 50.0, 22.0 ]
				}

			}
, 			{
				"box" : 				{
					"id" : "obj-6",
					"maxclass" : "message",
					"numinlets" : 2,
					"numoutlets" : 1,
					"outlettype" : [ "" ],
					"patching_rect" : [ 121.0, 109.0, 70.0, 22.0 ],
					"text" : "'blue 'green"
				}

			}
, 			{
				"box" : 				{
					"id" : "obj-82",
					"maxclass" : "button",
					"numinlets" : 1,
					"numoutlets" : 1,
					"outlettype" : [ "bang" ],
					"parameter_enable" : 0,
					"patching_rect" : [ 126.0, 52.0, 24.0, 24.0 ]
				}

			}
, 			{
				"box" : 				{
					"id" : "obj-5",
					"maxclass" : "comment",
					"numinlets" : 1,
					"numoutlets" : 0,
					"patching_rect" : [ 329.666666666666515, 23.0, 74.0, 20.0 ],
					"text" : "domain type"
				}

			}
, 			{
				"box" : 				{
					"id" : "obj-3",
					"maxclass" : "comment",
					"numinlets" : 1,
					"numoutlets" : 0,
					"patching_rect" : [ 385.666666666666515, 136.636363636363626, 53.0, 20.0 ],
					"text" : "heuristic"
				}

			}
, 			{
				"box" : 				{
					"id" : "obj-52",
					"linecount" : 2,
					"maxclass" : "message",
					"numinlets" : 2,
					"numoutlets" : 1,
					"outlettype" : [ "" ],
					"patching_rect" : [ 59.0, 357.599514563106709, 485.0, 35.0 ],
					"text" : "[ 'GREEN 'BLUE 'BLUE 'GREEN 'GREEN 'GREEN 'GREEN 'BLUE 'GREEN 'GREEN 'BLUE 'GREEN ]"
				}

			}
, 			{
				"box" : 				{
					"id" : "obj-48",
					"maxclass" : "newobj",
					"numinlets" : 2,
					"numoutlets" : 1,
					"outlettype" : [ "" ],
					"patcher" : 					{
						"fileversion" : 1,
						"appversion" : 						{
							"major" : 8,
							"minor" : 5,
							"revision" : 4,
							"architecture" : "x64",
							"modernui" : 1
						}
,
						"classnamespace" : "box",
						"rect" : [ 34.0, 79.0, 784.0, 466.0 ],
						"bglocked" : 0,
						"openinpresentation" : 0,
						"default_fontsize" : 12.0,
						"default_fontface" : 0,
						"default_fontname" : "Arial",
						"gridonopen" : 1,
						"gridsize" : [ 15.0, 15.0 ],
						"gridsnaponopen" : 1,
						"objectsnaponopen" : 1,
						"statusbarvisible" : 2,
						"toolbarvisible" : 1,
						"lefttoolbarpinned" : 0,
						"toptoolbarpinned" : 0,
						"righttoolbarpinned" : 0,
						"bottomtoolbarpinned" : 0,
						"toolbars_unpinned_last_save" : 0,
						"tallnewobj" : 0,
						"boxanimatetime" : 200,
						"enablehscroll" : 1,
						"enablevscroll" : 1,
						"devicewidth" : 0.0,
						"description" : "",
						"digest" : "",
						"tags" : "",
						"style" : "",
						"subpatcher_template" : "",
						"assistshowspatchername" : 0,
						"boxes" : [ 							{
								"box" : 								{
									"id" : "obj-12",
									"maxclass" : "button",
									"numinlets" : 1,
									"numoutlets" : 1,
									"outlettype" : [ "bang" ],
									"parameter_enable" : 0,
									"patching_rect" : [ 501.0, 92.0, 24.0, 24.0 ]
								}

							}
, 							{
								"box" : 								{
									"id" : "obj-9",
									"maxclass" : "newobj",
									"numinlets" : 3,
									"numoutlets" : 3,
									"outlettype" : [ "", "", "" ],
									"patching_rect" : [ 41.0, 84.0, 203.0, 22.0 ],
									"text" : "routepass randompath code_snippet"
								}

							}
, 							{
								"box" : 								{
									"comment" : "bang to kill Lisp process",
									"id" : "obj-7",
									"index" : 2,
									"maxclass" : "inlet",
									"numinlets" : 0,
									"numoutlets" : 1,
									"outlettype" : [ "" ],
									"patching_rect" : [ 547.0, 215.0, 30.0, 30.0 ]
								}

							}
, 							{
								"box" : 								{
									"id" : "obj-8",
									"maxclass" : "message",
									"numinlets" : 2,
									"numoutlets" : 1,
									"outlettype" : [ "" ],
									"patching_rect" : [ 626.0, 232.0, 89.0, 22.0 ],
									"text" : "randompath $1"
								}

							}
, 							{
								"box" : 								{
									"id" : "obj-10",
									"maxclass" : "newobj",
									"numinlets" : 2,
									"numoutlets" : 2,
									"outlettype" : [ "", "" ],
									"patching_rect" : [ 626.0, 197.5, 103.0, 22.0 ],
									"text" : "route randompath"
								}

							}
, 							{
								"box" : 								{
									"id" : "obj-6",
									"maxclass" : "newobj",
									"numinlets" : 1,
									"numoutlets" : 2,
									"outlettype" : [ "", "" ],
									"patching_rect" : [ 484.0, 164.0, 161.0, 22.0 ],
									"text" : "patcherargs @randompath 1"
								}

							}
, 							{
								"box" : 								{
									"id" : "obj-4",
									"maxclass" : "newobj",
									"numinlets" : 1,
									"numoutlets" : 0,
									"patching_rect" : [ 386.0, 330.0, 107.0, 22.0 ],
									"text" : "print lisp.quickeval"
								}

							}
, 							{
								"box" : 								{
									"comment" : "result of Lisp evaluation",
									"id" : "obj-5",
									"index" : 1,
									"maxclass" : "outlet",
									"numinlets" : 1,
									"numoutlets" : 0,
									"patching_rect" : [ 225.0, 397.0, 30.0, 30.0 ]
								}

							}
, 							{
								"box" : 								{
									"id" : "obj-3",
									"maxclass" : "newobj",
									"numinlets" : 1,
									"numoutlets" : 2,
									"outlettype" : [ "bang", "" ],
									"patching_rect" : [ 225.0, 232.0, 180.0, 22.0 ],
									"text" : "t b l"
								}

							}
, 							{
								"box" : 								{
									"id" : "obj-2",
									"linecount" : 2,
									"maxclass" : "comment",
									"numinlets" : 1,
									"numoutlets" : 0,
									"patching_rect" : [ 247.5, 186.5, 184.0, 33.0 ],
									"text" : "get the result of a properly formate s-expression / lisp code"
								}

							}
, 							{
								"box" : 								{
									"id" : "obj-20",
									"maxclass" : "newobj",
									"numinlets" : 3,
									"numoutlets" : 4,
									"outlettype" : [ "", "", "bang", "" ],
									"patching_rect" : [ 225.0, 297.0, 361.0, 22.0 ],
									"text" : "pw.eval-box cl-user /temp/quickeval-in.lisp /temp/quickeval-out.lisp"
								}

							}
, 							{
								"box" : 								{
									"comment" : "Lisp code or s-expression (as llll) for quick evaluation",
									"id" : "obj-31",
									"index" : 1,
									"maxclass" : "inlet",
									"numinlets" : 0,
									"numoutlets" : 1,
									"outlettype" : [ "" ],
									"patching_rect" : [ 41.0, 31.0, 30.0, 30.0 ]
								}

							}
 ],
						"lines" : [ 							{
								"patchline" : 								{
									"destination" : [ "obj-8", 0 ],
									"source" : [ "obj-10", 0 ]
								}

							}
, 							{
								"patchline" : 								{
									"destination" : [ "obj-6", 0 ],
									"source" : [ "obj-12", 0 ]
								}

							}
, 							{
								"patchline" : 								{
									"destination" : [ "obj-4", 0 ],
									"source" : [ "obj-20", 1 ]
								}

							}
, 							{
								"patchline" : 								{
									"destination" : [ "obj-5", 0 ],
									"source" : [ "obj-20", 0 ]
								}

							}
, 							{
								"patchline" : 								{
									"destination" : [ "obj-20", 1 ],
									"source" : [ "obj-3", 1 ]
								}

							}
, 							{
								"patchline" : 								{
									"destination" : [ "obj-20", 0 ],
									"source" : [ "obj-3", 0 ]
								}

							}
, 							{
								"patchline" : 								{
									"destination" : [ "obj-9", 0 ],
									"source" : [ "obj-31", 0 ]
								}

							}
, 							{
								"patchline" : 								{
									"destination" : [ "obj-10", 0 ],
									"source" : [ "obj-6", 1 ]
								}

							}
, 							{
								"patchline" : 								{
									"destination" : [ "obj-20", 2 ],
									"source" : [ "obj-7", 0 ]
								}

							}
, 							{
								"patchline" : 								{
									"destination" : [ "obj-20", 0 ],
									"source" : [ "obj-8", 0 ]
								}

							}
, 							{
								"patchline" : 								{
									"destination" : [ "obj-20", 0 ],
									"midpoints" : [ 142.5, 282.0, 234.5, 282.0 ],
									"source" : [ "obj-9", 1 ]
								}

							}
, 							{
								"patchline" : 								{
									"destination" : [ "obj-20", 0 ],
									"midpoints" : [ 50.5, 282.0, 234.5, 282.0 ],
									"source" : [ "obj-9", 0 ]
								}

							}
, 							{
								"patchline" : 								{
									"destination" : [ "obj-3", 0 ],
									"source" : [ "obj-9", 2 ]
								}

							}
 ],
						"styles" : [ 							{
								"name" : "MOZ-numint",
								"default" : 								{
									"bgcolor" : [ 0.2, 0.2, 0.2, 0.0 ],
									"fontname" : [ "Menlo Regular" ],
									"fontsize" : [ 16.95834 ],
									"selectioncolor" : [ 0.0, 0.0, 0.0, 1.0 ],
									"textcolor_inverse" : [ 0.0, 0.0, 0.0, 1.0 ]
								}
,
								"parentstyle" : "",
								"multi" : 0
							}
, 							{
								"name" : "MOZ-param",
								"default" : 								{
									"fontname" : [ "Menlo Regular" ],
									"fontsize" : [ 16.0 ]
								}
,
								"parentstyle" : "",
								"multi" : 0
							}
, 							{
								"name" : "MOZ-title",
								"default" : 								{
									"fontname" : [ "Andale Mono" ],
									"fontsize" : [ 22.062093999999998 ]
								}
,
								"parentstyle" : "",
								"multi" : 0
							}
, 							{
								"name" : "MOZ-umenu",
								"default" : 								{
									"bgfillcolor" : 									{
										"angle" : 270.0,
										"autogradient" : 0.0,
										"color" : [ 0.996078, 0.996078, 0.996078, 1.0 ],
										"color1" : [ 0.996078, 0.996078, 0.996078, 1.0 ],
										"color2" : [ 0.2, 0.2, 0.2, 1.0 ],
										"proportion" : 0.5,
										"type" : "color"
									}
,
									"color" : [ 0.996078, 0.996078, 0.996078, 1.0 ],
									"elementcolor" : [ 0.996078, 0.996078, 0.996078, 1.0 ],
									"fontface" : [ 2 ],
									"fontname" : [ "Menlo Regular" ],
									"textcolor_inverse" : [ 0.0, 0.0, 0.0, 1.0 ]
								}
,
								"parentstyle" : "",
								"multi" : 0
							}
, 							{
								"name" : "SPLIM",
								"parentstyle" : "comment001",
								"multi" : 0
							}
, 							{
								"name" : "comment001",
								"default" : 								{
									"fontname" : [ "Herculanum" ],
									"fontsize" : [ 18.0 ]
								}
,
								"parentstyle" : "",
								"multi" : 0
							}
, 							{
								"name" : "ksliderWhite",
								"default" : 								{
									"color" : [ 1, 1, 1, 1 ]
								}
,
								"parentstyle" : "",
								"multi" : 0
							}
, 							{
								"name" : "message001",
								"default" : 								{
									"fontname" : [ "Arial" ],
									"fontsize" : [ 13.0 ],
									"textcolor_inverse" : [ 0.92549, 0.364706, 0.341176, 1.0 ]
								}
,
								"parentstyle" : "",
								"multi" : 0
							}
, 							{
								"name" : "newobjBlue-1",
								"default" : 								{
									"accentcolor" : [ 0.317647, 0.654902, 0.976471, 1 ]
								}
,
								"parentstyle" : "",
								"multi" : 0
							}
, 							{
								"name" : "newobjGreen-1",
								"default" : 								{
									"accentcolor" : [ 0, 0.533333, 0.168627, 1 ]
								}
,
								"parentstyle" : "",
								"multi" : 0
							}
, 							{
								"name" : "numberGold-1",
								"default" : 								{
									"accentcolor" : [ 0.764706, 0.592157, 0.101961, 1 ]
								}
,
								"parentstyle" : "",
								"multi" : 0
							}
, 							{
								"name" : "orjan style",
								"default" : 								{
									"accentcolor" : [ 0.65098, 0.666667, 0.662745, 1.0 ],
									"bgcolor" : [ 0.97911, 0.963068, 0.9712, 1.0 ],
									"bgfillcolor" : 									{
										"angle" : 270.0,
										"autogradient" : 0,
										"color" : [ 0.290196, 0.309804, 0.301961, 1.0 ],
										"color1" : [ 1.0, 1.0, 1.0, 1.0 ],
										"color2" : [ 0.862745, 0.870588, 0.878431, 1.0 ],
										"proportion" : 0.39,
										"type" : "gradient"
									}
,
									"color" : [ 0.037449, 0.035848, 0.03644, 1.0 ],
									"elementcolor" : [ 0.898251, 0.915112, 0.965693, 1.0 ],
									"textcolor_inverse" : [ 0.0, 0.0, 0.0, 1.0 ]
								}
,
								"parentstyle" : "",
								"multi" : 0
							}
 ]
					}
,
					"patching_rect" : [ 48.958333333333258, 265.599514563106709, 244.0, 22.0 ],
					"saved_object_attributes" : 					{
						"description" : "",
						"digest" : "",
						"globalpatchername" : "",
						"tags" : ""
					}
,
					"text" : "p lisp.quickeval modif-package"
				}

			}
, 			{
				"box" : 				{
					"id" : "obj-39",
					"maxclass" : "newobj",
					"numinlets" : 1,
					"numoutlets" : 1,
					"outlettype" : [ "" ],
					"patching_rect" : [ 549.374999999999773, 56.103896103896091, 70.0, 22.0 ],
					"text" : "loadmess 1"
				}

			}
, 			{
				"box" : 				{
					"id" : "obj-38",
					"maxclass" : "newobj",
					"numinlets" : 1,
					"numoutlets" : 1,
					"outlettype" : [ "" ],
					"patcher" : 					{
						"fileversion" : 1,
						"appversion" : 						{
							"major" : 8,
							"minor" : 5,
							"revision" : 4,
							"architecture" : "x64",
							"modernui" : 1
						}
,
						"classnamespace" : "box",
						"rect" : [ 0.0, 0.0, 640.0, 480.0 ],
						"bglocked" : 0,
						"openinpresentation" : 0,
						"default_fontsize" : 12.0,
						"default_fontface" : 0,
						"default_fontname" : "Arial",
						"gridonopen" : 1,
						"gridsize" : [ 15.0, 15.0 ],
						"gridsnaponopen" : 1,
						"objectsnaponopen" : 1,
						"statusbarvisible" : 2,
						"toolbarvisible" : 1,
						"lefttoolbarpinned" : 0,
						"toptoolbarpinned" : 0,
						"righttoolbarpinned" : 0,
						"bottomtoolbarpinned" : 0,
						"toolbars_unpinned_last_save" : 0,
						"tallnewobj" : 0,
						"boxanimatetime" : 200,
						"enablehscroll" : 1,
						"enablevscroll" : 1,
						"devicewidth" : 0.0,
						"description" : "",
						"digest" : "",
						"tags" : "",
						"style" : "",
						"subpatcher_template" : "",
						"assistshowspatchername" : 0,
						"boxes" : [ 							{
								"box" : 								{
									"id" : "obj-34",
									"maxclass" : "message",
									"numinlets" : 2,
									"numoutlets" : 1,
									"outlettype" : [ "" ],
									"patching_rect" : [ 83.0, 131.0, 29.5, 22.0 ],
									"text" : "t"
								}

							}
, 							{
								"box" : 								{
									"id" : "obj-31",
									"maxclass" : "message",
									"numinlets" : 2,
									"numoutlets" : 1,
									"outlettype" : [ "" ],
									"patching_rect" : [ 50.0, 131.0, 29.5, 22.0 ],
									"text" : "nil"
								}

							}
, 							{
								"box" : 								{
									"id" : "obj-28",
									"maxclass" : "newobj",
									"numinlets" : 3,
									"numoutlets" : 3,
									"outlettype" : [ "bang", "bang", "" ],
									"patching_rect" : [ 50.0, 100.0, 85.0, 22.0 ],
									"text" : "sel 0 1"
								}

							}
, 							{
								"box" : 								{
									"comment" : "",
									"id" : "obj-35",
									"index" : 1,
									"maxclass" : "inlet",
									"numinlets" : 0,
									"numoutlets" : 1,
									"outlettype" : [ "int" ],
									"patching_rect" : [ 50.0, 40.0, 30.0, 30.0 ]
								}

							}
, 							{
								"box" : 								{
									"comment" : "",
									"id" : "obj-36",
									"index" : 1,
									"maxclass" : "outlet",
									"numinlets" : 1,
									"numoutlets" : 0,
									"patching_rect" : [ 60.5, 213.0, 30.0, 30.0 ]
								}

							}
 ],
						"lines" : [ 							{
								"patchline" : 								{
									"destination" : [ "obj-31", 0 ],
									"source" : [ "obj-28", 0 ]
								}

							}
, 							{
								"patchline" : 								{
									"destination" : [ "obj-34", 0 ],
									"source" : [ "obj-28", 1 ]
								}

							}
, 							{
								"patchline" : 								{
									"destination" : [ "obj-36", 0 ],
									"source" : [ "obj-31", 0 ]
								}

							}
, 							{
								"patchline" : 								{
									"destination" : [ "obj-36", 0 ],
									"source" : [ "obj-34", 0 ]
								}

							}
, 							{
								"patchline" : 								{
									"destination" : [ "obj-28", 0 ],
									"source" : [ "obj-35", 0 ]
								}

							}
 ]
					}
,
					"patching_rect" : [ 549.374999999999773, 113.246753246753201, 43.0, 22.0 ],
					"saved_object_attributes" : 					{
						"description" : "",
						"digest" : "",
						"globalpatchername" : "",
						"tags" : ""
					}
,
					"text" : "p rnd?"
				}

			}
, 			{
				"box" : 				{
					"id" : "obj-27",
					"maxclass" : "toggle",
					"numinlets" : 1,
					"numoutlets" : 1,
					"outlettype" : [ "int" ],
					"parameter_enable" : 0,
					"patching_rect" : [ 549.374999999999773, 83.636363636363626, 24.0, 24.0 ]
				}

			}
, 			{
				"box" : 				{
					"id" : "obj-21",
					"maxclass" : "number",
					"numinlets" : 1,
					"numoutlets" : 2,
					"outlettype" : [ "", "bang" ],
					"parameter_enable" : 0,
					"patching_rect" : [ 441.805555555555429, 109.14285714285711, 50.0, 22.0 ]
				}

			}
, 			{
				"box" : 				{
					"id" : "obj-12",
					"maxclass" : "newobj",
					"numinlets" : 1,
					"numoutlets" : 1,
					"outlettype" : [ "" ],
					"patching_rect" : [ 441.805555555555429, 79.532467532467535, 70.0, 22.0 ],
					"text" : "loadmess 2"
				}

			}
, 			{
				"box" : 				{
					"id" : "obj-9",
					"maxclass" : "comment",
					"numinlets" : 1,
					"numoutlets" : 0,
					"patching_rect" : [ 441.805555555555429, 55.396103896103909, 75.0, 20.0 ],
					"text" : "mode?"
				}

			}
, 			{
				"box" : 				{
					"fontface" : 2,
					"fontsize" : 16.159032109579829,
					"id" : "obj-97",
					"linecount" : 3,
					"maxclass" : "comment",
					"numinlets" : 1,
					"numoutlets" : 0,
					"patching_rect" : [ 291.374999999999773, 256.325004759185163, 385.0, 61.0 ],
					"text" : "quickfix for package names\n<- here i turned lisp.quickeval into a subpatch and changed the default pw to cl-user",
					"textcolor" : [ 1.0, 0.0, 0.0, 1.0 ]
				}

			}
, 			{
				"box" : 				{
					"id" : "obj-92",
					"maxclass" : "newobj",
					"numinlets" : 1,
					"numoutlets" : 2,
					"outlettype" : [ "bang", "bang" ],
					"patching_rect" : [ 120.499999999999886, 79.532467532467535, 213.166666666666629, 22.0 ],
					"text" : "t b b"
				}

			}
, 			{
				"box" : 				{
					"id" : "obj-47",
					"maxclass" : "newobj",
					"numinlets" : 1,
					"numoutlets" : 0,
					"patcher" : 					{
						"fileversion" : 1,
						"appversion" : 						{
							"major" : 8,
							"minor" : 5,
							"revision" : 4,
							"architecture" : "x64",
							"modernui" : 1
						}
,
						"classnamespace" : "box",
						"rect" : [ 59.0, 104.0, 861.0, 480.0 ],
						"bglocked" : 0,
						"openinpresentation" : 0,
						"default_fontsize" : 12.0,
						"default_fontface" : 0,
						"default_fontname" : "Arial",
						"gridonopen" : 1,
						"gridsize" : [ 15.0, 15.0 ],
						"gridsnaponopen" : 1,
						"objectsnaponopen" : 1,
						"statusbarvisible" : 2,
						"toolbarvisible" : 1,
						"lefttoolbarpinned" : 0,
						"toptoolbarpinned" : 0,
						"righttoolbarpinned" : 0,
						"bottomtoolbarpinned" : 0,
						"toolbars_unpinned_last_save" : 0,
						"tallnewobj" : 0,
						"boxanimatetime" : 200,
						"enablehscroll" : 1,
						"enablevscroll" : 1,
						"devicewidth" : 0.0,
						"description" : "",
						"digest" : "",
						"tags" : "",
						"style" : "",
						"subpatcher_template" : "",
						"assistshowspatchername" : 0,
						"boxes" : [ 							{
								"box" : 								{
									"id" : "obj-3",
									"maxclass" : "message",
									"numinlets" : 2,
									"numoutlets" : 1,
									"outlettype" : [ "" ],
									"patching_rect" : [ 85.0, 132.0, 712.0, 22.0 ],
									"text" : "open \"/Users/julienvincenot/Documents/Max 8/Packages/MOZLib/sources/___double_click_to_make_new_core.app\""
								}

							}
, 							{
								"box" : 								{
									"id" : "obj-2",
									"maxclass" : "newobj",
									"numinlets" : 1,
									"numoutlets" : 0,
									"patching_rect" : [ 50.0, 191.0, 32.0, 22.0 ],
									"text" : "print"
								}

							}
, 							{
								"box" : 								{
									"id" : "obj-1",
									"maxclass" : "newobj",
									"numinlets" : 1,
									"numoutlets" : 2,
									"outlettype" : [ "", "bang" ],
									"patching_rect" : [ 50.0, 149.0, 33.0, 22.0 ],
									"saved_object_attributes" : 									{
										"shell" : "(default)"
									}
,
									"text" : "shell"
								}

							}
, 							{
								"box" : 								{
									"id" : "obj-45",
									"maxclass" : "message",
									"numinlets" : 2,
									"numoutlets" : 1,
									"outlettype" : [ "" ],
									"patching_rect" : [ 50.0, 90.0, 712.0, 22.0 ],
									"text" : "open \"/Users/julienvincenot/Documents/Max 8/Packages/MOZLib/sources/___double_click_to_make_new_core.app\""
								}

							}
, 							{
								"box" : 								{
									"comment" : "",
									"id" : "obj-46",
									"index" : 1,
									"maxclass" : "inlet",
									"numinlets" : 0,
									"numoutlets" : 1,
									"outlettype" : [ "bang" ],
									"patching_rect" : [ 50.0, 40.0, 30.0, 30.0 ]
								}

							}
 ],
						"lines" : [ 							{
								"patchline" : 								{
									"destination" : [ "obj-2", 0 ],
									"source" : [ "obj-1", 0 ]
								}

							}
, 							{
								"patchline" : 								{
									"destination" : [ "obj-1", 0 ],
									"source" : [ "obj-45", 0 ]
								}

							}
, 							{
								"patchline" : 								{
									"destination" : [ "obj-45", 0 ],
									"source" : [ "obj-46", 0 ]
								}

							}
 ]
					}
,
					"patching_rect" : [ 725.833333333333371, 211.0, 107.0, 22.0 ],
					"saved_object_attributes" : 					{
						"description" : "",
						"digest" : "",
						"globalpatchername" : "",
						"tags" : ""
					}
,
					"text" : "p make_new_core"
				}

			}
, 			{
				"box" : 				{
					"id" : "obj-43",
					"maxclass" : "button",
					"numinlets" : 1,
					"numoutlets" : 1,
					"outlettype" : [ "bang" ],
					"parameter_enable" : 0,
					"patching_rect" : [ 725.833333333333371, 174.5, 24.0, 24.0 ]
				}

			}
, 			{
				"box" : 				{
					"fontsize" : 20.481091094687866,
					"id" : "obj-37",
					"maxclass" : "comment",
					"numinlets" : 1,
					"numoutlets" : 0,
					"patching_rect" : [ 338.499999999999773, 79.532467532467535, 94.0, 29.0 ],
					"text" : "heurrules"
				}

			}
, 			{
				"box" : 				{
					"id" : "obj-33",
					"maxclass" : "newobj",
					"numinlets" : 1,
					"numoutlets" : 1,
					"outlettype" : [ "" ],
					"patching_rect" : [ 120.527777777777715, 134.636363636363626, 70.0, 22.0 ],
					"text" : "lisp.quote 1"
				}

			}
, 			{
				"box" : 				{
					"id" : "obj-29",
					"maxclass" : "newobj",
					"numinlets" : 10,
					"numoutlets" : 1,
					"outlettype" : [ "" ],
					"patching_rect" : [ 48.958333333333258, 166.636363636363626, 532.0, 22.0 ],
					"text" : "lisp.expr engine_v4.05 12 candidates 't *basic-domain* 'nil 'nil 'nil 3 't 1 @triggers 2"
				}

			}
, 			{
				"box" : 				{
					"id" : "obj-4",
					"maxclass" : "newobj",
					"numinlets" : 2,
					"numoutlets" : 1,
					"outlettype" : [ "" ],
					"patching_rect" : [ 314.666666666666515, 104.636363636363626, 117.0, 22.0 ],
					"reg_data_0000000000" : [ "[", "list", "[", "format-heuristic-RL-rule", "#'", "[", "lambda", "[", "&rest", "x", "]", "[", "progn", "[", "print", "[", "b", "x", "]", "]", 1, "]", "]", 0, "]", "]" ],
					"reg_data_count" : [ 1 ],
					"saved_object_attributes" : 					{
						"embed" : 1,
						"versionnumber" : 80105
					}
,
					"text" : "bach.reg @embed 1"
				}

			}
 ],
		"lines" : [ 			{
				"patchline" : 				{
					"destination" : [ "obj-52", 1 ],
					"midpoints" : [ 58.458333333333258, 345.099514563106709, 534.5, 345.099514563106709 ],
					"source" : [ "obj-1", 0 ]
				}

			}
, 			{
				"patchline" : 				{
					"destination" : [ "obj-8", 0 ],
					"source" : [ "obj-10", 0 ]
				}

			}
, 			{
				"patchline" : 				{
					"destination" : [ "obj-29", 0 ],
					"source" : [ "obj-11", 0 ]
				}

			}
, 			{
				"patchline" : 				{
					"destination" : [ "obj-21", 0 ],
					"source" : [ "obj-12", 0 ]
				}

			}
, 			{
				"patchline" : 				{
					"destination" : [ "obj-82", 0 ],
					"source" : [ "obj-16", 0 ]
				}

			}
, 			{
				"patchline" : 				{
					"destination" : [ "obj-11", 0 ],
					"source" : [ "obj-18", 0 ]
				}

			}
, 			{
				"patchline" : 				{
					"destination" : [ "obj-29", 7 ],
					"source" : [ "obj-21", 0 ]
				}

			}
, 			{
				"patchline" : 				{
					"destination" : [ "obj-23", 0 ],
					"source" : [ "obj-24", 0 ]
				}

			}
, 			{
				"patchline" : 				{
					"destination" : [ "obj-38", 0 ],
					"source" : [ "obj-27", 0 ]
				}

			}
, 			{
				"patchline" : 				{
					"destination" : [ "obj-48", 0 ],
					"source" : [ "obj-29", 0 ]
				}

			}
, 			{
				"patchline" : 				{
					"destination" : [ "obj-29", 1 ],
					"source" : [ "obj-33", 0 ]
				}

			}
, 			{
				"patchline" : 				{
					"destination" : [ "obj-29", 8 ],
					"source" : [ "obj-38", 0 ]
				}

			}
, 			{
				"patchline" : 				{
					"destination" : [ "obj-27", 0 ],
					"source" : [ "obj-39", 0 ]
				}

			}
, 			{
				"patchline" : 				{
					"destination" : [ "obj-29", 6 ],
					"source" : [ "obj-4", 0 ]
				}

			}
, 			{
				"patchline" : 				{
					"destination" : [ "obj-47", 0 ],
					"source" : [ "obj-43", 0 ]
				}

			}
, 			{
				"patchline" : 				{
					"destination" : [ "obj-1", 0 ],
					"source" : [ "obj-48", 0 ]
				}

			}
, 			{
				"patchline" : 				{
					"destination" : [ "obj-33", 0 ],
					"source" : [ "obj-6", 0 ]
				}

			}
, 			{
				"patchline" : 				{
					"destination" : [ "obj-29", 3 ],
					"source" : [ "obj-8", 1 ]
				}

			}
, 			{
				"patchline" : 				{
					"destination" : [ "obj-92", 0 ],
					"source" : [ "obj-82", 0 ]
				}

			}
, 			{
				"patchline" : 				{
					"destination" : [ "obj-4", 0 ],
					"source" : [ "obj-92", 1 ]
				}

			}
, 			{
				"patchline" : 				{
					"destination" : [ "obj-6", 0 ],
					"source" : [ "obj-92", 0 ]
				}

			}
 ],
		"dependency_cache" : [ 			{
				"name" : "bach.args.mxo",
				"type" : "iLaX"
			}
, 			{
				"name" : "bach.arithmser.mxo",
				"type" : "iLaX"
			}
, 			{
				"name" : "bach.belong.maxpat",
				"bootpath" : "~/Documents/Max 8/Packages/bach/patchers",
				"patcherrelativepath" : "../../../bach/patchers",
				"type" : "JSON",
				"implicit" : 1
			}
, 			{
				"name" : "bach.eq.mxo",
				"type" : "iLaX"
			}
, 			{
				"name" : "bach.filternull.maxpat",
				"bootpath" : "~/Documents/Max 8/Packages/bach/patchers",
				"patcherrelativepath" : "../../../bach/patchers",
				"type" : "JSON",
				"implicit" : 1
			}
, 			{
				"name" : "bach.find.mxo",
				"type" : "iLaX"
			}
, 			{
				"name" : "bach.intersection.mxo",
				"type" : "iLaX"
			}
, 			{
				"name" : "bach.join.mxo",
				"type" : "iLaX"
			}
, 			{
				"name" : "bach.length.mxo",
				"type" : "iLaX"
			}
, 			{
				"name" : "bach.lookup.maxpat",
				"bootpath" : "~/Documents/Max 8/Packages/bach/patchers",
				"patcherrelativepath" : "../../../bach/patchers",
				"type" : "JSON",
				"implicit" : 1
			}
, 			{
				"name" : "bach.mapelem.mxo",
				"type" : "iLaX"
			}
, 			{
				"name" : "bach.nth.mxo",
				"type" : "iLaX"
			}
, 			{
				"name" : "bach.portal.mxo",
				"type" : "iLaX"
			}
, 			{
				"name" : "bach.read.mxo",
				"type" : "iLaX"
			}
, 			{
				"name" : "bach.reg.mxo",
				"type" : "iLaX"
			}
, 			{
				"name" : "bach.slice.mxo",
				"type" : "iLaX"
			}
, 			{
				"name" : "bach.thin.mxo",
				"type" : "iLaX"
			}
, 			{
				"name" : "bach.write.mxo",
				"type" : "iLaX"
			}
, 			{
				"name" : "key_trigger.maxpat",
				"bootpath" : "~/Documents/Max 8/Packages/MOZLib/patchers/utilities",
				"patcherrelativepath" : "../../patchers/utilities",
				"type" : "JSON",
				"implicit" : 1
			}
, 			{
				"name" : "lisp.expr.maxpat",
				"bootpath" : "~/Documents/Max 8/Packages/MOZLib/patchers/pw4m_lisp_scripting_boxes",
				"patcherrelativepath" : "../../patchers/pw4m_lisp_scripting_boxes",
				"type" : "JSON",
				"implicit" : 1
			}
, 			{
				"name" : "lisp.quote.maxpat",
				"bootpath" : "~/Documents/Max 8/Packages/MOZLib/patchers/pw4m_lisp_scripting_boxes",
				"patcherrelativepath" : "../../patchers/pw4m_lisp_scripting_boxes",
				"type" : "JSON",
				"implicit" : 1
			}
, 			{
				"name" : "mac_or_win.maxpat",
				"bootpath" : "~/Documents/Max 8/Packages/MOZLib/patchers/pw4m_lisp",
				"patcherrelativepath" : "../../patchers/pw4m_lisp",
				"type" : "JSON",
				"implicit" : 1
			}
, 			{
				"name" : "make_path_once.maxpat",
				"bootpath" : "~/Documents/Max 8/Packages/MOZLib/patchers/pw4m_lisp",
				"patcherrelativepath" : "../../patchers/pw4m_lisp",
				"type" : "JSON",
				"implicit" : 1
			}
, 			{
				"name" : "moz.init-unless.maxpat",
				"bootpath" : "~/Documents/Max 8/Packages/MOZLib/patchers/utilities",
				"patcherrelativepath" : "../../patchers/utilities",
				"type" : "JSON",
				"implicit" : 1
			}
, 			{
				"name" : "pw.eval-box.maxpat",
				"bootpath" : "~/Documents/Max 8/Packages/MOZLib/patchers/pw4m_lisp",
				"patcherrelativepath" : "../../patchers/pw4m_lisp",
				"type" : "JSON",
				"implicit" : 1
			}
, 			{
				"name" : "shell.mxo",
				"type" : "iLaX"
			}
, 			{
				"name" : "thru.maxpat",
				"bootpath" : "C74:/patchers/m4l/Pluggo for Live resources/patches",
				"type" : "JSON",
				"implicit" : 1
			}
 ],
		"autosave" : 0
	}

}
